<svg version="1.1" viewBox="0.0 0.0 351.0 217.0" fill="none" stroke="none" stroke-linecap="square" stroke-miterlimit="10" width="351" height="217" xmlns:xlink="http://www.w3.org/1999/xlink" xmlns="http://www.w3.org/2000/svg"><path fill="#ffffff" d="M0 0L351.0 0L351.0 217.0L0 217.0L0 0Z" fill-rule="nonzero"/><path stroke="#cccccc" stroke-width="1.0" stroke-linecap="butt" d="M37.5 186.5L340.5 186.5" fill-rule="nonzero"/><path stroke="#cccccc" stroke-width="1.0" stroke-linecap="butt" d="M37.5 164.5L340.5 164.5" fill-rule="nonzero"/><path stroke="#cccccc" stroke-width="1.0" stroke-linecap="butt" d="M37.5 143.5L340.5 143.5" fill-rule="nonzero"/><path stroke="#cccccc" stroke-width="1.0" stroke-linecap="butt" d="M37.5 121.5L340.5 121.5" fill-rule="nonzero"/><path stroke="#cccccc" stroke-width="1.0" stroke-linecap="butt" d="M37.5 100.5L340.5 100.5" fill-rule="nonzero"/><path stroke="#cccccc" stroke-width="1.0" stroke-linecap="butt" d="M37.5 78.5L340.5 78.5" fill-rule="nonzero"/><path stroke="#cccccc" stroke-width="1.0" stroke-linecap="butt" d="M37.5 57.5L340.5 57.5" fill-rule="nonzero"/><clipPath id="id_0"><path d="M37.85 57.083332L340.15 57.083332L340.15 186.15L37.85 186.15L37.85 57.083332Z" clip-rule="nonzero"/></clipPath><path stroke="#156082" stroke-width="2.0" stroke-linecap="butt" clip-path="url(#id_0)" d="M68.08 67.83889L128.54 110.861115L189.0 121.61667L249.46 78.594444L309.92 100.10555" fill-rule="nonzero"/><path stroke="#e97132" stroke-width="2.0" stroke-linecap="butt" clip-path="url(#id_0)" d="M68.08 143.12778L128.54 143.12778L189.0 153.88333L249.46 132.37222L309.92 132.37222" fill-rule="nonzero"/><path stroke="#196b24" stroke-width="2.0" stroke-linecap="butt" clip-path="url(#id_0)" d="M68.08 121.61667L128.54 132.37222L189.0 132.37222L249.46 78.594444L309.92 100.10555" fill-rule="nonzero"/><path stroke="#0f9ed5" stroke-width="2.0" stroke-linecap="butt" clip-path="url(#id_0)" d="M68.08 89.35L128.54 110.861115L189.0 121.61667L249.46 78.594444L309.92 89.35" fill-rule="nonzero"/><path stroke="#a02b93" stroke-width="2.0" stroke-linecap="butt" clip-path="url(#id_0)" d="M68.08 132.37222L128.54 153.88333L189.0 164.63889L249.46 132.37222L309.92 121.61667" fill-rule="nonzero"/><path stroke="#4ea72e" stroke-width="2.0" stroke-linecap="butt" clip-path="url(#id_0)" d="M68.08 78.594444L128.54 100.10555L189.0 100.10555L249.46 78.594444L309.92 89.35" fill-rule="nonzero"/><path stroke="#5b90a8" stroke-width="2.0" stroke-linecap="butt" clip-path="url(#id_0)" d="M68.08 78.594444L128.54 121.61667L189.0 132.37222L249.46 100.10555L309.92 89.35" fill-rule="nonzero"/><path stroke="#f09c70" stroke-width="2.0" stroke-linecap="butt" clip-path="url(#id_0)" d="M68.08 132.37222L128.54 143.12778L189.0 132.37222L249.46 121.61667L309.92 121.61667" fill-rule="nonzero"/><path fill="#156082" clip-path="url(#id_0)" d="M71.08 67.83889C71.08 69.49574 69.736855 70.83889 68.08 70.83889C66.42315 70.83889 65.08 69.49574 65.08 67.83889C65.08 66.18204 66.42315 64.83889 68.08 64.83889C69.736855 64.83889 71.08 66.18204 71.08 67.83889Z" fill-rule="nonzero"/><path fill="#156082" clip-path="url(#id_0)" d="M131.54 110.861115C131.54 112.51797 130.19685 113.861115 128.54 113.861115C126.88315 113.861115 125.54 112.51797 125.54 110.861115C125.54 109.204254 126.88315 107.861115 128.54 107.861115C130.19685 107.861115 131.54 109.204254 131.54 110.861115Z" fill-rule="nonzero"/><path fill="#156082" clip-path="url(#id_0)" d="M192.0 121.61667C192.0 123.27352 190.65686 124.61667 189.0 124.61667C187.34314 124.61667 186.0 123.27352 186.0 121.61667C186.0 119.959816 187.34314 118.61667 189.0 118.61667C190.65686 118.61667 192.0 119.959816 192.0 121.61667Z" fill-rule="nonzero"/><path fill="#156082" clip-path="url(#id_0)" d="M252.46 78.594444C252.46 80.2513 251.11685 81.594444 249.46 81.594444C247.80315 81.594444 246.46 80.2513 246.46 78.594444C246.46 76.93759 247.80315 75.594444 249.46 75.594444C251.11685 75.594444 252.46 76.93759 252.46 78.594444Z" fill-rule="nonzero"/><path fill="#156082" clip-path="url(#id_0)" d="M312.92 100.10555C312.92 101.76241 311.57684 103.10555 309.92 103.10555C308.26315 103.10555 306.92 101.76241 306.92 100.10555C306.92 98.4487 308.26315 97.10555 309.92 97.10555C311.57684 97.10555 312.92 98.4487 312.92 100.10555Z" fill-rule="nonzero"/><path fill="#e97132" clip-path="url(#id_0)" d="M71.08 143.12778C71.08 144.78464 69.736855 146.12778 68.08 146.12778C66.42315 146.12778 65.08 144.78464 65.08 143.12778C65.08 141.47092 66.42315 140.12778 68.08 140.12778C69.736855 140.12778 71.08 141.47092 71.08 143.12778Z" fill-rule="nonzero"/><path fill="#e97132" clip-path="url(#id_0)" d="M131.54 143.12778C131.54 144.78464 130.19685 146.12778 128.54 146.12778C126.88315 146.12778 125.54 144.78464 125.54 143.12778C125.54 141.47092 126.88315 140.12778 128.54 140.12778C130.19685 140.12778 131.54 141.47092 131.54 143.12778Z" fill-rule="nonzero"/><path fill="#e97132" clip-path="url(#id_0)" d="M192.0 153.88333C192.0 155.54019 190.65686 156.88333 189.0 156.88333C187.34314 156.88333 186.0 155.54019 186.0 153.88333C186.0 152.22649 187.34314 150.88333 189.0 150.88333C190.65686 150.88333 192.0 152.22649 192.0 153.88333Z" fill-rule="nonzero"/><path fill="#e97132" clip-path="url(#id_0)" d="M252.46 132.37222C252.46 134.02908 251.11685 135.37222 249.46 135.37222C247.80315 135.37222 246.46 134.02908 246.46 132.37222C246.46 130.71536 247.80315 129.37222 249.46 129.37222C251.11685 129.37222 252.46 130.71536 252.46 132.37222Z" fill-rule="nonzero"/><path fill="#e97132" clip-path="url(#id_0)" d="M312.92 132.37222C312.92 134.02908 311.57684 135.37222 309.92 135.37222C308.26315 135.37222 306.92 134.02908 306.92 132.37222C306.92 130.71536 308.26315 129.37222 309.92 129.37222C311.57684 129.37222 312.92 130.71536 312.92 132.37222Z" fill-rule="nonzero"/><path fill="#196b24" clip-path="url(#id_0)" d="M71.08 121.61667C71.08 123.27352 69.736855 124.61667 68.08 124.61667C66.42315 124.61667 65.08 123.27352 65.08 121.61667C65.08 119.959816 66.42315 118.61667 68.08 118.61667C69.736855 118.61667 71.08 119.959816 71.08 121.61667Z" fill-rule="nonzero"/><path fill="#196b24" clip-path="url(#id_0)" d="M131.54 132.37222C131.54 134.02908 130.19685 135.37222 128.54 135.37222C126.88315 135.37222 125.54 134.02908 125.54 132.37222C125.54 130.71536 126.88315 129.37222 128.54 129.37222C130.19685 129.37222 131.54 130.71536 131.54 132.37222Z" fill-rule="nonzero"/><path fill="#196b24" clip-path="url(#id_0)" d="M192.0 132.37222C192.0 134.02908 190.65686 135.37222 189.0 135.37222C187.34314 135.37222 186.0 134.02908 186.0 132.37222C186.0 130.71536 187.34314 129.37222 189.0 129.37222C190.65686 129.37222 192.0 130.71536 192.0 132.37222Z" fill-rule="nonzero"/><path fill="#196b24" clip-path="url(#id_0)" d="M252.46 78.594444C252.46 80.2513 251.11685 81.594444 249.46 81.594444C247.80315 81.594444 246.46 80.2513 246.46 78.594444C246.46 76.93759 247.80315 75.594444 249.46 75.594444C251.11685 75.594444 252.46 76.93759 252.46 78.594444Z" fill-rule="nonzero"/><path fill="#196b24" clip-path="url(#id_0)" d="M312.92 100.10555C312.92 101.76241 311.57684 103.10555 309.92 103.10555C308.26315 103.10555 306.92 101.76241 306.92 100.10555C306.92 98.4487 308.26315 97.10555 309.92 97.10555C311.57684 97.10555 312.92 98.4487 312.92 100.10555Z" fill-rule="nonzero"/><path fill="#0f9ed5" clip-path="url(#id_0)" d="M71.08 89.35C71.08 91.00685 69.736855 92.35 68.08 92.35C66.42315 92.35 65.08 91.00685 65.08 89.35C65.08 87.693146 66.42315 86.35 68.08 86.35C69.736855 86.35 71.08 87.693146 71.08 89.35Z" fill-rule="nonzero"/><path fill="#0f9ed5" clip-path="url(#id_0)" d="M131.54 110.861115C131.54 112.51797 130.19685 113.861115 128.54 113.861115C126.88315 113.861115 125.54 112.51797 125.54 110.861115C125.54 109.204254 126.88315 107.861115 128.54 107.861115C130.19685 107.861115 131.54 109.204254 131.54 110.861115Z" fill-rule="nonzero"/><path fill="#0f9ed5" clip-path="url(#id_0)" d="M192.0 121.61667C192.0 123.27352 190.65686 124.61667 189.0 124.61667C187.34314 124.61667 186.0 123.27352 186.0 121.61667C186.0 119.959816 187.34314 118.61667 189.0 118.61667C190.65686 118.61667 192.0 119.959816 192.0 121.61667Z" fill-rule="nonzero"/><path fill="#0f9ed5" clip-path="url(#id_0)" d="M252.46 78.594444C252.46 80.2513 251.11685 81.594444 249.46 81.594444C247.80315 81.594444 246.46 80.2513 246.46 78.594444C246.46 76.93759 247.80315 75.594444 249.46 75.594444C251.11685 75.594444 252.46 76.93759 252.46 78.594444Z" fill-rule="nonzero"/><path fill="#0f9ed5" clip-path="url(#id_0)" d="M312.92 89.35C312.92 91.00685 311.57684 92.35 309.92 92.35C308.26315 92.35 306.92 91.00685 306.92 89.35C306.92 87.693146 308.26315 86.35 309.92 86.35C311.57684 86.35 312.92 87.693146 312.92 89.35Z" fill-rule="nonzero"/><path fill="#a02b93" clip-path="url(#id_0)" d="M71.08 132.37222C71.08 134.02908 69.736855 135.37222 68.08 135.37222C66.42315 135.37222 65.08 134.02908 65.08 132.37222C65.08 130.71536 66.42315 129.37222 68.08 129.37222C69.736855 129.37222 71.08 130.71536 71.08 132.37222Z" fill-rule="nonzero"/><path fill="#a02b93" clip-path="url(#id_0)" d="M131.54 153.88333C131.54 155.54019 130.19685 156.88333 128.54 156.88333C126.88315 156.88333 125.54 155.54019 125.54 153.88333C125.54 152.22649 126.88315 150.88333 128.54 150.88333C130.19685 150.88333 131.54 152.22649 131.54 153.88333Z" fill-rule="nonzero"/><path fill="#a02b93" clip-path="url(#id_0)" d="M192.0 164.63889C192.0 166.29575 190.65686 167.63889 189.0 167.63889C187.34314 167.63889 186.0 166.29575 186.0 164.63889C186.0 162.98204 187.34314 161.63889 189.0 161.63889C190.65686 161.63889 192.0 162.98204 192.0 164.63889Z" fill-rule="nonzero"/><path fill="#a02b93" clip-path="url(#id_0)" d="M252.46 132.37222C252.46 134.02908 251.11685 135.37222 249.46 135.37222C247.80315 135.37222 246.46 134.02908 246.46 132.37222C246.46 130.71536 247.80315 129.37222 249.46 129.37222C251.11685 129.37222 252.46 130.71536 252.46 132.37222Z" fill-rule="nonzero"/><path fill="#a02b93" clip-path="url(#id_0)" d="M312.92 121.61667C312.92 123.27352 311.57684 124.61667 309.92 124.61667C308.26315 124.61667 306.92 123.27352 306.92 121.61667C306.92 119.959816 308.26315 118.61667 309.92 118.61667C311.57684 118.61667 312.92 119.959816 312.92 121.61667Z" fill-rule="nonzero"/><path fill="#4ea72e" clip-path="url(#id_0)" d="M71.08 78.594444C71.08 80.2513 69.736855 81.594444 68.08 81.594444C66.42315 81.594444 65.08 80.2513 65.08 78.594444C65.08 76.93759 66.42315 75.594444 68.08 75.594444C69.736855 75.594444 71.08 76.93759 71.08 78.594444Z" fill-rule="nonzero"/><path fill="#4ea72e" clip-path="url(#id_0)" d="M131.54 100.10555C131.54 101.76241 130.19685 103.10555 128.54 103.10555C126.88315 103.10555 125.54 101.76241 125.54 100.10555C125.54 98.4487 126.88315 97.10555 128.54 97.10555C130.19685 97.10555 131.54 98.4487 131.54 100.10555Z" fill-rule="nonzero"/><path fill="#4ea72e" clip-path="url(#id_0)" d="M192.0 100.10555C192.0 101.76241 190.65686 103.10555 189.0 103.10555C187.34314 103.10555 186.0 101.76241 186.0 100.10555C186.0 98.4487 187.34314 97.10555 189.0 97.10555C190.65686 97.10555 192.0 98.4487 192.0 100.10555Z" fill-rule="nonzero"/><path fill="#4ea72e" clip-path="url(#id_0)" d="M252.46 78.594444C252.46 80.2513 251.11685 81.594444 249.46 81.594444C247.80315 81.594444 246.46 80.2513 246.46 78.594444C246.46 76.93759 247.80315 75.594444 249.46 75.594444C251.11685 75.594444 252.46 76.93759 252.46 78.594444Z" fill-rule="nonzero"/><path fill="#4ea72e" clip-path="url(#id_0)" d="M312.92 89.35C312.92 91.00685 311.57684 92.35 309.92 92.35C308.26315 92.35 306.92 91.00685 306.92 89.35C306.92 87.693146 308.26315 86.35 309.92 86.35C311.57684 86.35 312.92 87.693146 312.92 89.35Z" fill-rule="nonzero"/><path fill="#5b90a8" clip-path="url(#id_0)" d="M71.08 78.594444C71.08 80.2513 69.736855 81.594444 68.08 81.594444C66.42315 81.594444 65.08 80.2513 65.08 78.594444C65.08 76.93759 66.42315 75.594444 68.08 75.594444C69.736855 75.594444 71.08 76.93759 71.08 78.594444Z" fill-rule="nonzero"/><path fill="#5b90a8" clip-path="url(#id_0)" d="M131.54 121.61667C131.54 123.27352 130.19685 124.61667 128.54 124.61667C126.88315 124.61667 125.54 123.27352 125.54 121.61667C125.54 119.959816 126.88315 118.61667 128.54 118.61667C130.19685 118.61667 131.54 119.959816 131.54 121.61667Z" fill-rule="nonzero"/><path fill="#5b90a8" clip-path="url(#id_0)" d="M192.0 132.37222C192.0 134.02908 190.65686 135.37222 189.0 135.37222C187.34314 135.37222 186.0 134.02908 186.0 132.37222C186.0 130.71536 187.34314 129.37222 189.0 129.37222C190.65686 129.37222 192.0 130.71536 192.0 132.37222Z" fill-rule="nonzero"/><path fill="#5b90a8" clip-path="url(#id_0)" d="M252.46 100.10555C252.46 101.76241 251.11685 103.10555 249.46 103.10555C247.80315 103.10555 246.46 101.76241 246.46 100.10555C246.46 98.4487 247.80315 97.10555 249.46 97.10555C251.11685 97.10555 252.46 98.4487 252.46 100.10555Z" fill-rule="nonzero"/><path fill="#5b90a8" clip-path="url(#id_0)" d="M312.92 89.35C312.92 91.00685 311.57684 92.35 309.92 92.35C308.26315 92.35 306.92 91.00685 306.92 89.35C306.92 87.693146 308.26315 86.35 309.92 86.35C311.57684 86.35 312.92 87.693146 312.92 89.35Z" fill-rule="nonzero"/><path fill="#f09c70" clip-path="url(#id_0)" d="M71.08 132.37222C71.08 134.02908 69.736855 135.37222 68.08 135.37222C66.42315 135.37222 65.08 134.02908 65.08 132.37222C65.08 130.71536 66.42315 129.37222 68.08 129.37222C69.736855 129.37222 71.08 130.71536 71.08 132.37222Z" fill-rule="nonzero"/><path fill="#f09c70" clip-path="url(#id_0)" d="M131.54 143.12778C131.54 144.78464 130.19685 146.12778 128.54 146.12778C126.88315 146.12778 125.54 144.78464 125.54 143.12778C125.54 141.47092 126.88315 140.12778 128.54 140.12778C130.19685 140.12778 131.54 141.47092 131.54 143.12778Z" fill-rule="nonzero"/><path fill="#f09c70" clip-path="url(#id_0)" d="M192.0 132.37222C192.0 134.02908 190.65686 135.37222 189.0 135.37222C187.34314 135.37222 186.0 134.02908 186.0 132.37222C186.0 130.71536 187.34314 129.37222 189.0 129.37222C190.65686 129.37222 192.0 130.71536 192.0 132.37222Z" fill-rule="nonzero"/><path fill="#f09c70" clip-path="url(#id_0)" d="M252.46 121.61667C252.46 123.27352 251.11685 124.61667 249.46 124.61667C247.80315 124.61667 246.46 123.27352 246.46 121.61667C246.46 119.959816 247.80315 118.61667 249.46 118.61667C251.11685 118.61667 252.46 119.959816 252.46 121.61667Z" fill-rule="nonzero"/><path fill="#f09c70" clip-path="url(#id_0)" d="M312.92 121.61667C312.92 123.27352 311.57684 124.61667 309.92 124.61667C308.26315 124.61667 306.92 123.27352 306.92 121.61667C306.92 119.959816 308.26315 118.61667 309.92 118.61667C311.57684 118.61667 312.92 119.959816 312.92 121.61667Z" fill-rule="nonzero"/><path fill="#000000" d="M11.2875 186.22812Q11.2875 184.86874 11.69375 183.88437Q12.1 182.9 12.7875 182.41562Q13.31875 182.04062 13.88125 182.04062Q14.7875 182.04062 15.521875 182.97812Q16.428125 184.11874 16.428125 186.10312Q16.428125 187.47812 16.021875 188.44687Q15.63125 189.41562 15.00625 189.85312Q14.396875 190.29062 13.81875 190.29062Q12.678125 190.29062 11.928125 188.94687Q11.2875 187.82187 11.2875 186.22812ZM12.428125 186.36874Q12.428125 188.00937 12.834375 189.04062Q13.178125 189.91562 13.834375 189.91562Q14.146875 189.91562 14.490625 189.63437Q14.834375 189.35312 15.00625 188.68124Q15.271875 187.68124 15.271875 185.8375Q15.271875 184.47812 14.990625 183.57187Q14.7875 182.9 14.44375 182.61874Q14.209375 182.43124 13.865625 182.43124Q13.475 182.43124 13.1625 182.79062Q12.740625 183.275 12.584375 184.32187Q12.428125 185.35312 12.428125 186.36874ZM18.35 189.00937Q18.63125 189.00937 18.81875 189.2125Q19.00625 189.4 19.00625 189.66562Q19.00625 189.93124 18.803125 190.13437Q18.615625 190.32187 18.35 190.32187Q18.084375 190.32187 17.88125 190.13437Q17.69375 189.93124 17.69375 189.66562Q17.69375 189.38437 17.88125 189.19687Q18.084375 189.00937 18.35 189.00937ZM25.225 182.04062L25.225 182.25937Q24.459375 182.3375 23.959375 182.57187Q23.475 182.79062 22.990625 183.275Q22.521875 183.74374 22.209375 184.3375Q21.896875 184.91562 21.678125 185.7125Q22.521875 185.13437 23.38125 185.13437Q24.19375 185.13437 24.7875 185.79062Q25.38125 186.44687 25.38125 187.47812Q25.38125 188.47812 24.7875 189.29062Q24.053125 190.29062 22.865625 190.29062Q22.053125 190.29062 21.475 189.74374Q20.365625 188.69687 20.365625 187.025Q20.365625 185.9625 20.7875 185.00937Q21.225 184.04062 22.00625 183.30624Q22.803125 182.55624 23.521875 182.30624Q24.25625 182.04062 24.896875 182.04062L25.225 182.04062ZM21.584375 186.13437Q21.475 186.93124 21.475 187.41562Q21.475 187.97812 21.678125 188.65Q21.896875 189.30624 22.303125 189.68124Q22.6 189.9625 23.0375 189.9625Q23.5375 189.9625 23.94375 189.47812Q24.35 188.99374 24.35 188.10312Q24.35 187.10312 23.94375 186.38437Q23.553125 185.65 22.81875 185.65Q22.6 185.65 22.334375 185.74374Q22.084375 185.8375 21.584375 186.13437ZM26.2875 186.22812Q26.2875 184.86874 26.69375 183.88437Q27.1 182.9 27.7875 182.41562Q28.31875 182.04062 28.88125 182.04062Q29.7875 182.04062 30.521875 182.97812Q31.428125 184.11874 31.428125 186.10312Q31.428125 187.47812 31.021875 188.44687Q30.63125 189.41562 30.00625 189.85312Q29.396875 190.29062 28.81875 190.29062Q27.678125 190.29062 26.928125 188.94687Q26.2875 187.82187 26.2875 186.22812ZM27.428125 186.36874Q27.428125 188.00937 27.834375 189.04062Q28.178125 189.91562 28.834375 189.91562Q29.146875 189.91562 29.490625 189.63437Q29.834375 189.35312 30.00625 188.68124Q30.271875 187.68124 30.271875 185.8375Q30.271875 184.47812 29.990625 183.57187Q29.7875 182.9 29.44375 182.61874Q29.209375 182.43124 28.865625 182.43124Q28.475 182.43124 28.1625 182.79062Q27.740625 183.275 27.584375 184.32187Q27.428125 185.35312 27.428125 186.36874Z" fill-rule="nonzero"/><path fill="#000000" d="M11.2875 164.71701Q11.2875 163.35764 11.69375 162.37326Q12.1 161.38889 12.7875 160.90451Q13.31875 160.52951 13.88125 160.52951Q14.7875 160.52951 15.521875 161.46701Q16.428125 162.60764 16.428125 164.59201Q16.428125 165.96701 16.021875 166.93576Q15.63125 167.90451 15.00625 168.34201Q14.396875 168.77951 13.81875 168.77951Q12.678125 168.77951 11.928125 167.43576Q11.2875 166.31076 11.2875 164.71701ZM12.428125 164.85764Q12.428125 166.49826 12.834375 167.52951Q13.178125 168.40451 13.834375 168.40451Q14.146875 168.40451 14.490625 168.12326Q14.834375 167.84201 15.00625 167.17014Q15.271875 166.17014 15.271875 164.32639Q15.271875 162.96701 14.990625 162.06076Q14.7875 161.38889 14.44375 161.10764Q14.209375 160.92014 13.865625 160.92014Q13.475 160.92014 13.1625 161.27951Q12.740625 161.76389 12.584375 162.81076Q12.428125 163.84201 12.428125 164.85764ZM18.35 167.49826Q18.63125 167.49826 18.81875 167.70139Q19.00625 167.88889 19.00625 168.15451Q19.00625 168.42014 18.803125 168.62326Q18.615625 168.81076 18.35 168.81076Q18.084375 168.81076 17.88125 168.62326Q17.69375 168.42014 17.69375 168.15451Q17.69375 167.87326 17.88125 167.68576Q18.084375 167.49826 18.35 167.49826ZM25.225 160.52951L25.225 160.74826Q24.459375 160.82639 23.959375 161.06076Q23.475 161.27951 22.990625 161.76389Q22.521875 162.23264 22.209375 162.82639Q21.896875 163.40451 21.678125 164.20139Q22.521875 163.62326 23.38125 163.62326Q24.19375 163.62326 24.7875 164.27951Q25.38125 164.93576 25.38125 165.96701Q25.38125 166.96701 24.7875 167.77951Q24.053125 168.77951 22.865625 168.77951Q22.053125 168.77951 21.475 168.23264Q20.365625 167.18576 20.365625 165.51389Q20.365625 164.45139 20.7875 163.49826Q21.225 162.52951 22.00625 161.79514Q22.803125 161.04514 23.521875 160.79514Q24.25625 160.52951 24.896875 160.52951L25.225 160.52951ZM21.584375 164.62326Q21.475 165.42014 21.475 165.90451Q21.475 166.46701 21.678125 167.13889Q21.896875 167.79514 22.303125 168.17014Q22.6 168.45139 23.0375 168.45139Q23.5375 168.45139 23.94375 167.96701Q24.35 167.48264 24.35 166.59201Q24.35 165.59201 23.94375 164.87326Q23.553125 164.13889 22.81875 164.13889Q22.6 164.13889 22.334375 164.23264Q22.084375 164.32639 21.584375 164.62326ZM31.35 167.10764L30.803125 168.63889L26.115625 168.63889L26.115625 168.42014Q28.178125 166.52951 29.021875 165.34201Q29.865625 164.13889 29.865625 163.15451Q29.865625 162.40451 29.396875 161.92014Q28.94375 161.42014 28.2875 161.42014Q27.709375 161.42014 27.240625 161.76389Q26.771875 162.10764 26.553125 162.77951L26.334375 162.77951Q26.490625 161.68576 27.084375 161.10764Q27.69375 160.52951 28.6 160.52951Q29.56875 160.52951 30.209375 161.15451Q30.865625 161.76389 30.865625 162.60764Q30.865625 163.21701 30.584375 163.82639Q30.146875 164.76389 29.178125 165.82639Q27.725 167.42014 27.35 167.74826L29.428125 167.74826Q30.06875 167.74826 30.31875 167.70139Q30.56875 167.65451 30.771875 167.51389Q30.990625 167.37326 31.13125 167.10764L31.35 167.10764Z" fill-rule="nonzero"/><path fill="#000000" d="M11.2875 143.2059Q11.2875 141.84653 11.69375 140.86215Q12.1 139.87778 12.7875 139.3934Q13.31875 139.0184 13.88125 139.0184Q14.7875 139.0184 15.521875 139.9559Q16.428125 141.09653 16.428125 143.0809Q16.428125 144.4559 16.021875 145.42465Q15.63125 146.3934 15.00625 146.8309Q14.396875 147.2684 13.81875 147.2684Q12.678125 147.2684 11.928125 145.92465Q11.2875 144.79965 11.2875 143.2059ZM12.428125 143.34653Q12.428125 144.98715 12.834375 146.0184Q13.178125 146.8934 13.834375 146.8934Q14.146875 146.8934 14.490625 146.61215Q14.834375 146.3309 15.00625 145.65903Q15.271875 144.65903 15.271875 142.81528Q15.271875 141.4559 14.990625 140.54965Q14.7875 139.87778 14.44375 139.59653Q14.209375 139.40903 13.865625 139.40903Q13.475 139.40903 13.1625 139.7684Q12.740625 140.25278 12.584375 141.29965Q12.428125 142.3309 12.428125 143.34653ZM18.35 145.98715Q18.63125 145.98715 18.81875 146.19028Q19.00625 146.37778 19.00625 146.6434Q19.00625 146.90903 18.803125 147.11215Q18.615625 147.29965 18.35 147.29965Q18.084375 147.29965 17.88125 147.11215Q17.69375 146.90903 17.69375 146.6434Q17.69375 146.36215 17.88125 146.17465Q18.084375 145.98715 18.35 145.98715ZM25.225 139.0184L25.225 139.23715Q24.459375 139.31528 23.959375 139.54965Q23.475 139.7684 22.990625 140.25278Q22.521875 140.72153 22.209375 141.31528Q21.896875 141.8934 21.678125 142.69028Q22.521875 142.11215 23.38125 142.11215Q24.19375 142.11215 24.7875 142.7684Q25.38125 143.42465 25.38125 144.4559Q25.38125 145.4559 24.7875 146.2684Q24.053125 147.2684 22.865625 147.2684Q22.053125 147.2684 21.475 146.72153Q20.365625 145.67465 20.365625 144.00278Q20.365625 142.94028 20.7875 141.98715Q21.225 141.0184 22.00625 140.28403Q22.803125 139.53403 23.521875 139.28403Q24.25625 139.0184 24.896875 139.0184L25.225 139.0184ZM21.584375 143.11215Q21.475 143.90903 21.475 144.3934Q21.475 144.9559 21.678125 145.62778Q21.896875 146.28403 22.303125 146.65903Q22.6 146.94028 23.0375 146.94028Q23.5375 146.94028 23.94375 146.4559Q24.35 145.97153 24.35 145.0809Q24.35 144.0809 23.94375 143.36215Q23.553125 142.62778 22.81875 142.62778Q22.6 142.62778 22.334375 142.72153Q22.084375 142.81528 21.584375 143.11215ZM31.428125 144.19028L31.428125 145.03403L30.365625 145.03403L30.365625 147.12778L29.396875 147.12778L29.396875 145.03403L26.0375 145.03403L26.0375 144.28403L29.725 139.0184L30.365625 139.0184L30.365625 144.19028L31.428125 144.19028ZM29.396875 144.19028L29.396875 140.25278L26.615625 144.19028L29.396875 144.19028Z" fill-rule="nonzero"/><path fill="#000000" d="M11.2875 121.69479Q11.2875 120.33542 11.69375 119.35104Q12.1 118.36667 12.7875 117.88229Q13.31875 117.50729 13.88125 117.50729Q14.7875 117.50729 15.521875 118.44479Q16.428125 119.58542 16.428125 121.56979Q16.428125 122.94479 16.021875 123.91354Q15.63125 124.88229 15.00625 125.31979Q14.396875 125.75729 13.81875 125.75729Q12.678125 125.75729 11.928125 124.41354Q11.2875 123.28854 11.2875 121.69479ZM12.428125 121.83542Q12.428125 123.47604 12.834375 124.50729Q13.178125 125.38229 13.834375 125.38229Q14.146875 125.38229 14.490625 125.10104Q14.834375 124.81979 15.00625 124.14792Q15.271875 123.14792 15.271875 121.30417Q15.271875 119.94479 14.990625 119.03854Q14.7875 118.36667 14.44375 118.08542Q14.209375 117.89792 13.865625 117.89792Q13.475 117.89792 13.1625 118.25729Q12.740625 118.74167 12.584375 119.78854Q12.428125 120.81979 12.428125 121.83542ZM18.35 124.47604Q18.63125 124.47604 18.81875 124.67917Q19.00625 124.86667 19.00625 125.13229Q19.00625 125.39792 18.803125 125.60104Q18.615625 125.78854 18.35 125.78854Q18.084375 125.78854 17.88125 125.60104Q17.69375 125.39792 17.69375 125.13229Q17.69375 124.85104 17.88125 124.66354Q18.084375 124.47604 18.35 124.47604ZM25.225 117.50729L25.225 117.72604Q24.459375 117.80417 23.959375 118.03854Q23.475 118.25729 22.990625 118.74167Q22.521875 119.21042 22.209375 119.80417Q21.896875 120.38229 21.678125 121.17917Q22.521875 120.60104 23.38125 120.60104Q24.19375 120.60104 24.7875 121.25729Q25.38125 121.91354 25.38125 122.94479Q25.38125 123.94479 24.7875 124.75729Q24.053125 125.75729 22.865625 125.75729Q22.053125 125.75729 21.475 125.21042Q20.365625 124.16354 20.365625 122.49167Q20.365625 121.42917 20.7875 120.47604Q21.225 119.50729 22.00625 118.77292Q22.803125 118.02292 23.521875 117.77292Q24.25625 117.50729 24.896875 117.50729L25.225 117.50729ZM21.584375 121.60104Q21.475 122.39792 21.475 122.88229Q21.475 123.44479 21.678125 124.11667Q21.896875 124.77292 22.303125 125.14792Q22.6 125.42917 23.0375 125.42917Q23.5375 125.42917 23.94375 124.94479Q24.35 124.46042 24.35 123.56979Q24.35 122.56979 23.94375 121.85104Q23.553125 121.11667 22.81875 121.11667Q22.6 121.11667 22.334375 121.21042Q22.084375 121.30417 21.584375 121.60104ZM31.225 117.50729L31.225 117.72604Q30.459375 117.80417 29.959375 118.03854Q29.475 118.25729 28.990625 118.74167Q28.521875 119.21042 28.209375 119.80417Q27.896875 120.38229 27.678125 121.17917Q28.521875 120.60104 29.38125 120.60104Q30.19375 120.60104 30.7875 121.25729Q31.38125 121.91354 31.38125 122.94479Q31.38125 123.94479 30.7875 124.75729Q30.053125 125.75729 28.865625 125.75729Q28.053125 125.75729 27.475 125.21042Q26.365625 124.16354 26.365625 122.49167Q26.365625 121.42917 26.7875 120.47604Q27.225 119.50729 28.00625 118.77292Q28.803125 118.02292 29.521875 117.77292Q30.25625 117.50729 30.896875 117.50729L31.225 117.50729ZM27.584375 121.60104Q27.475 122.39792 27.475 122.88229Q27.475 123.44479 27.678125 124.11667Q27.896875 124.77292 28.303125 125.14792Q28.6 125.42917 29.0375 125.42917Q29.5375 125.42917 29.94375 124.94479Q30.35 124.46042 30.35 123.56979Q30.35 122.56979 29.94375 121.85104Q29.553125 121.11667 28.81875 121.11667Q28.6 121.11667 28.334375 121.21042Q28.084375 121.30417 27.584375 121.60104Z" fill-rule="nonzero"/><path fill="#000000" d="M11.2875 100.18368Q11.2875 98.8243 11.69375 97.83993Q12.1 96.85555 12.7875 96.37118Q13.31875 95.99618 13.88125 95.99618Q14.7875 95.99618 15.521875 96.93368Q16.428125 98.0743 16.428125 100.05868Q16.428125 101.43368 16.021875 102.40243Q15.63125 103.37118 15.00625 103.80868Q14.396875 104.24618 13.81875 104.24618Q12.678125 104.24618 11.928125 102.90243Q11.2875 101.77743 11.2875 100.18368ZM12.428125 100.3243Q12.428125 101.96493 12.834375 102.99618Q13.178125 103.87118 13.834375 103.87118Q14.146875 103.87118 14.490625 103.58993Q14.834375 103.30868 15.00625 102.6368Q15.271875 101.6368 15.271875 99.79305Q15.271875 98.43368 14.990625 97.52743Q14.7875 96.85555 14.44375 96.5743Q14.209375 96.3868 13.865625 96.3868Q13.475 96.3868 13.1625 96.74618Q12.740625 97.23055 12.584375 98.27743Q12.428125 99.30868 12.428125 100.3243ZM18.35 102.96493Q18.63125 102.96493 18.81875 103.16805Q19.00625 103.35555 19.00625 103.62118Q19.00625 103.8868 18.803125 104.08993Q18.615625 104.27743 18.35 104.27743Q18.084375 104.27743 17.88125 104.08993Q17.69375 103.8868 17.69375 103.62118Q17.69375 103.33993 17.88125 103.15243Q18.084375 102.96493 18.35 102.96493ZM25.225 95.99618L25.225 96.21493Q24.459375 96.29305 23.959375 96.52743Q23.475 96.74618 22.990625 97.23055Q22.521875 97.6993 22.209375 98.29305Q21.896875 98.87118 21.678125 99.66805Q22.521875 99.08993 23.38125 99.08993Q24.19375 99.08993 24.7875 99.74618Q25.38125 100.40243 25.38125 101.43368Q25.38125 102.43368 24.7875 103.24618Q24.053125 104.24618 22.865625 104.24618Q22.053125 104.24618 21.475 103.6993Q20.365625 102.65243 20.365625 100.98055Q20.365625 99.91805 20.7875 98.96493Q21.225 97.99618 22.00625 97.2618Q22.803125 96.5118 23.521875 96.2618Q24.25625 95.99618 24.896875 95.99618L25.225 95.99618ZM21.584375 100.08993Q21.475 100.8868 21.475 101.37118Q21.475 101.93368 21.678125 102.60555Q21.896875 103.2618 22.303125 103.6368Q22.6 103.91805 23.0375 103.91805Q23.5375 103.91805 23.94375 103.43368Q24.35 102.9493 24.35 102.05868Q24.35 101.05868 23.94375 100.33993Q23.553125 99.60555 22.81875 99.60555Q22.6 99.60555 22.334375 99.6993Q22.084375 99.79305 21.584375 100.08993ZM28.146875 100.10555Q27.209375 99.3243 26.928125 98.85555Q26.6625 98.3868 26.6625 97.8868Q26.6625 97.12118 27.25625 96.55868Q27.865625 95.99618 28.85 95.99618Q29.81875 95.99618 30.396875 96.52743Q30.990625 97.04305 30.990625 97.6993Q30.990625 98.15243 30.6625 98.62118Q30.35 99.0743 29.35 99.6993Q30.38125 100.49618 30.709375 100.96493Q31.1625 101.55868 31.1625 102.21493Q31.1625 103.05868 30.521875 103.65243Q29.88125 104.24618 28.85 104.24618Q27.709375 104.24618 27.084375 103.54305Q26.584375 102.96493 26.584375 102.29305Q26.584375 101.7618 26.928125 101.24618Q27.2875 100.73055 28.146875 100.10555ZM29.06875 99.48055Q29.771875 98.83993 29.959375 98.48055Q30.146875 98.10555 30.146875 97.65243Q30.146875 97.02743 29.803125 96.68368Q29.459375 96.33993 28.865625 96.33993Q28.271875 96.33993 27.896875 96.68368Q27.521875 97.02743 27.521875 97.49618Q27.521875 97.79305 27.6625 98.10555Q27.81875 98.40243 28.115625 98.68368L29.06875 99.48055ZM28.428125 100.3243Q27.94375 100.73055 27.709375 101.21493Q27.475 101.6993 27.475 102.2618Q27.475 103.02743 27.88125 103.48055Q28.303125 103.93368 28.94375 103.93368Q29.56875 103.93368 29.94375 103.5743Q30.334375 103.21493 30.334375 102.6993Q30.334375 102.27743 30.115625 101.9493Q29.69375 101.3243 28.428125 100.3243Z" fill-rule="nonzero"/><path fill="#000000" d="M11.2875 78.67257Q11.2875 77.313194 11.69375 76.32882Q12.1 75.344444 12.7875 74.86007Q13.31875 74.48507 13.88125 74.48507Q14.7875 74.48507 15.521875 75.42257Q16.428125 76.563194 16.428125 78.54757Q16.428125 79.92257 16.021875 80.89132Q15.63125 81.86007 15.00625 82.29757Q14.396875 82.73507 13.81875 82.73507Q12.678125 82.73507 11.928125 81.39132Q11.2875 80.26632 11.2875 78.67257ZM12.428125 78.813194Q12.428125 80.45382 12.834375 81.48507Q13.178125 82.36007 13.834375 82.36007Q14.146875 82.36007 14.490625 82.07882Q14.834375 81.79757 15.00625 81.125694Q15.271875 80.125694 15.271875 78.281944Q15.271875 76.92257 14.990625 76.01632Q14.7875 75.344444 14.44375 75.063194Q14.209375 74.875694 13.865625 74.875694Q13.475 74.875694 13.1625 75.23507Q12.740625 75.719444 12.584375 76.76632Q12.428125 77.79757 12.428125 78.813194ZM18.35 81.45382Q18.63125 81.45382 18.81875 81.656944Q19.00625 81.844444 19.00625 82.11007Q19.00625 82.375694 18.803125 82.57882Q18.615625 82.76632 18.35 82.76632Q18.084375 82.76632 17.88125 82.57882Q17.69375 82.375694 17.69375 82.11007Q17.69375 81.82882 17.88125 81.64132Q18.084375 81.45382 18.35 81.45382ZM21.053125 74.64132L25.31875 74.64132L25.31875 74.875694L22.6625 82.76632L22.00625 82.76632L24.38125 75.61007L22.19375 75.61007Q21.5375 75.61007 21.25625 75.76632Q20.771875 76.031944 20.459375 76.594444L20.303125 76.531944L21.053125 74.64132ZM26.2875 78.67257Q26.2875 77.313194 26.69375 76.32882Q27.1 75.344444 27.7875 74.86007Q28.31875 74.48507 28.88125 74.48507Q29.7875 74.48507 30.521875 75.42257Q31.428125 76.563194 31.428125 78.54757Q31.428125 79.92257 31.021875 80.89132Q30.63125 81.86007 30.00625 82.29757Q29.396875 82.73507 28.81875 82.73507Q27.678125 82.73507 26.928125 81.39132Q26.2875 80.26632 26.2875 78.67257ZM27.428125 78.813194Q27.428125 80.45382 27.834375 81.48507Q28.178125 82.36007 28.834375 82.36007Q29.146875 82.36007 29.490625 82.07882Q29.834375 81.79757 30.00625 81.125694Q30.271875 80.125694 30.271875 78.281944Q30.271875 76.92257 29.990625 76.01632Q29.7875 75.344444 29.44375 75.063194Q29.209375 74.875694 28.865625 74.875694Q28.475 74.875694 28.1625 75.23507Q27.740625 75.719444 27.584375 76.76632Q27.428125 77.79757 27.428125 78.813194Z" fill-rule="nonzero"/><path fill="#000000" d="M11.2875 57.161457Q11.2875 55.802082 11.69375 54.817707Q12.1 53.833332 12.7875 53.348957Q13.31875 52.973957 13.88125 52.973957Q14.7875 52.973957 15.521875 53.911457Q16.428125 55.052082 16.428125 57.036457Q16.428125 58.411457 16.021875 59.380207Q15.63125 60.348957 15.00625 60.786457Q14.396875 61.223957 13.81875 61.223957Q12.678125 61.223957 11.928125 59.880207Q11.2875 58.755207 11.2875 57.161457ZM12.428125 57.302082Q12.428125 58.942707 12.834375 59.973957Q13.178125 60.848957 13.834375 60.848957Q14.146875 60.848957 14.490625 60.567707Q14.834375 60.286457 15.00625 59.614582Q15.271875 58.614582 15.271875 56.770832Q15.271875 55.411457 14.990625 54.505207Q14.7875 53.833332 14.44375 53.552082Q14.209375 53.364582 13.865625 53.364582Q13.475 53.364582 13.1625 53.723957Q12.740625 54.208332 12.584375 55.255207Q12.428125 56.286457 12.428125 57.302082ZM18.35 59.942707Q18.63125 59.942707 18.81875 60.145832Q19.00625 60.333332 19.00625 60.598957Q19.00625 60.864582 18.803125 61.067707Q18.615625 61.255207 18.35 61.255207Q18.084375 61.255207 17.88125 61.067707Q17.69375 60.864582 17.69375 60.598957Q17.69375 60.317707 17.88125 60.130207Q18.084375 59.942707 18.35 59.942707ZM21.053125 53.130207L25.31875 53.130207L25.31875 53.364582L22.6625 61.255207L22.00625 61.255207L24.38125 54.098957L22.19375 54.098957Q21.5375 54.098957 21.25625 54.255207Q20.771875 54.520832 20.459375 55.083332L20.303125 55.020832L21.053125 53.130207ZM31.35 59.552082L30.803125 61.083332L26.115625 61.083332L26.115625 60.864582Q28.178125 58.973957 29.021875 57.786457Q29.865625 56.583332 29.865625 55.598957Q29.865625 54.848957 29.396875 54.364582Q28.94375 53.864582 28.2875 53.864582Q27.709375 53.864582 27.240625 54.208332Q26.771875 54.552082 26.553125 55.223957L26.334375 55.223957Q26.490625 54.130207 27.084375 53.552082Q27.69375 52.973957 28.6 52.973957Q29.56875 52.973957 30.209375 53.598957Q30.865625 54.208332 30.865625 55.052082Q30.865625 55.661457 30.584375 56.270832Q30.146875 57.208332 29.178125 58.270832Q27.725 59.864582 27.35 60.192707L29.428125 60.192707Q30.06875 60.192707 30.31875 60.145832Q30.56875 60.098957 30.771875 59.958332Q30.990625 59.817707 31.13125 59.552082L31.35 59.552082Z" fill-rule="nonzero"/><path fill="#000000" d="M57.48625 195.97812L59.42375 195.04062L59.61125 195.04062L59.61125 201.74374Q59.61125 202.41562 59.658127 202.5875Q59.720627 202.74374 59.8925 202.8375Q60.08 202.91562 60.61125 202.93124L60.61125 203.15L57.626877 203.15L57.626877 202.93124Q58.189377 202.91562 58.345627 202.8375Q58.5175 202.74374 58.58 202.60312Q58.6425 202.4625 58.6425 201.74374L58.6425 197.4625Q58.6425 196.5875 58.595627 196.35312Q58.54875 196.16562 58.439377 196.07187Q58.33 195.97812 58.17375 195.97812Q57.955 195.97812 57.58 196.16562L57.48625 195.97812ZM71.18938 198.00937Q71.97063 198.86874 72.53313 199.30624Q73.11125 199.74374 73.61125 199.9625L73.61125 200.22812Q73.03313 200.50937 72.48625 200.94687Q71.93938 201.38437 71.18938 202.22812L70.73625 202.22812Q71.28313 201.05624 71.8925 200.41562L62.54875 200.41562L62.54875 199.82187L71.8925 199.82187Q71.43938 199.25937 71.2675 198.99374Q71.09563 198.7125 70.75188 198.00937L71.18938 198.00937ZM79.58 201.61874L79.03313 203.15L74.34563 203.15L74.34563 202.93124Q76.40813 201.04062 77.25188 199.85312Q78.09563 198.65 78.09563 197.66562Q78.09563 196.91562 77.62688 196.43124Q77.17375 195.93124 76.5175 195.93124Q75.93938 195.93124 75.47063 196.275Q75.00188 196.61874 74.78313 197.29062L74.56438 197.29062Q74.72063 196.19687 75.31438 195.61874Q75.92375 195.04062 76.83 195.04062Q77.79875 195.04062 78.43938 195.66562Q79.09563 196.275 79.09563 197.11874Q79.09563 197.72812 78.81438 198.3375Q78.37688 199.275 77.40813 200.3375Q75.955 201.93124 75.58 202.25937L77.65813 202.25937Q78.29875 202.25937 78.54875 202.2125Q78.79875 202.16562 79.00188 202.025Q79.22063 201.88437 79.36125 201.61874L79.58 201.61874Z" fill-rule="nonzero"/><path fill="#000000" d="M122.04 201.61874L121.493126 203.15L116.805626 203.15L116.805626 202.93124Q118.868126 201.04062 119.711876 199.85312Q120.555626 198.65 120.555626 197.66562Q120.555626 196.91562 120.086876 196.43124Q119.63375 195.93124 118.9775 195.93124Q118.399376 195.93124 117.930626 196.275Q117.461876 196.61874 117.243126 197.29062L117.024376 197.29062Q117.180626 196.19687 117.774376 195.61874Q118.38375 195.04062 119.29 195.04062Q120.25875 195.04062 120.899376 195.66562Q121.555626 196.275 121.555626 197.11874Q121.555626 197.72812 121.274376 198.3375Q120.836876 199.275 119.868126 200.3375Q118.415 201.93124 118.04 202.25937L120.118126 202.25937Q120.75875 202.25937 121.00875 202.2125Q121.25875 202.16562 121.461876 202.025Q121.680626 201.88437 121.82125 201.61874L122.04 201.61874ZM131.64938 198.00937Q132.43063 198.86874 132.99313 199.30624Q133.57126 199.74374 134.07126 199.9625L134.07126 200.22812Q133.49313 200.50937 132.94626 200.94687Q132.39938 201.38437 131.64938 202.22812L131.19626 202.22812Q131.74313 201.05624 132.35251 200.41562L123.00875 200.41562L123.00875 199.82187L132.35251 199.82187Q131.89938 199.25937 131.72751 198.99374Q131.55563 198.7125 131.21188 198.00937L131.64938 198.00937ZM135.14938 196.7125Q135.49313 195.91562 136.00876 195.47812Q136.52438 195.04062 137.30563 195.04062Q138.25876 195.04062 138.75876 195.66562Q139.14938 196.11874 139.14938 196.65Q139.14938 197.525 138.05563 198.44687Q138.79001 198.72812 139.16501 199.25937Q139.54001 199.79062 139.54001 200.525Q139.54001 201.55624 138.88376 202.30624Q138.04001 203.29062 136.41501 203.29062Q135.60251 203.29062 135.30563 203.0875Q135.02438 202.88437 135.02438 202.66562Q135.02438 202.49374 135.16501 202.36874Q135.30563 202.22812 135.49313 202.22812Q135.64938 202.22812 135.79001 202.275Q135.89938 202.30624 136.24313 202.49374Q136.60251 202.68124 136.72751 202.7125Q136.94626 202.775 137.19626 202.775Q137.79001 202.775 138.22751 202.32187Q138.68063 201.85312 138.68063 201.22812Q138.68063 200.75937 138.47751 200.32187Q138.32126 199.99374 138.13376 199.82187Q137.88376 199.5875 137.44626 199.4Q137.00876 199.2125 136.55563 199.2125L136.36813 199.2125L136.36813 199.025Q136.82126 198.97812 137.29001 198.69687Q137.75876 198.41562 137.96188 198.04062Q138.18063 197.65 138.18063 197.18124Q138.18063 196.5875 137.80563 196.2125Q137.43063 195.8375 136.86813 195.8375Q135.94626 195.8375 135.33688 196.80624L135.14938 196.7125Z" fill-rule="nonzero"/><path fill="#000000" d="M177.60938 196.7125Q177.95312 195.91562 178.46875 195.47812Q178.98438 195.04062 179.76562 195.04062Q180.71875 195.04062 181.21875 195.66562Q181.60938 196.11874 181.60938 196.65Q181.60938 197.525 180.51562 198.44687Q181.25 198.72812 181.625 199.25937Q182.0 199.79062 182.0 200.525Q182.0 201.55624 181.34375 202.30624Q180.5 203.29062 178.875 203.29062Q178.0625 203.29062 177.76562 203.0875Q177.48438 202.88437 177.48438 202.66562Q177.48438 202.49374 177.625 202.36874Q177.76562 202.22812 177.95312 202.22812Q178.10938 202.22812 178.25 202.275Q178.35938 202.30624 178.70312 202.49374Q179.0625 202.68124 179.1875 202.7125Q179.40625 202.775 179.65625 202.775Q180.25 202.775 180.6875 202.32187Q181.14062 201.85312 181.14062 201.22812Q181.14062 200.75937 180.9375 200.32187Q180.78125 199.99374 180.59375 199.82187Q180.34375 199.5875 179.90625 199.4Q179.46875 199.2125 179.01562 199.2125L178.82812 199.2125L178.82812 199.025Q179.28125 198.97812 179.75 198.69687Q180.21875 198.41562 180.42188 198.04062Q180.64062 197.65 180.64062 197.18124Q180.64062 196.5875 180.26562 196.2125Q179.89062 195.8375 179.32812 195.8375Q178.40625 195.8375 177.79688 196.80624L177.60938 196.7125ZM192.10938 198.00937Q192.89062 198.86874 193.45312 199.30624Q194.03125 199.74374 194.53125 199.9625L194.53125 200.22812Q193.95312 200.50937 193.40625 200.94687Q192.85938 201.38437 192.10938 202.22812L191.65625 202.22812Q192.20312 201.05624 192.8125 200.41562L183.46875 200.41562L183.46875 199.82187L192.8125 199.82187Q192.35938 199.25937 192.1875 198.99374Q192.01562 198.7125 191.67188 198.00937L192.10938 198.00937ZM200.57812 200.2125L200.57812 201.05624L199.51562 201.05624L199.51562 203.15L198.54688 203.15L198.54688 201.05624L195.1875 201.05624L195.1875 200.30624L198.875 195.04062L199.51562 195.04062L199.51562 200.2125L200.57812 200.2125ZM198.54688 200.2125L198.54688 196.275L195.76562 200.2125L198.54688 200.2125Z" fill-rule="nonzero"/><path fill="#000000" d="M243.03813 200.2125L243.03813 201.05624L241.97563 201.05624L241.97563 203.15L241.00688 203.15L241.00688 201.05624L237.6475 201.05624L237.6475 200.30624L241.335 195.04062L241.97563 195.04062L241.97563 200.2125L243.03813 200.2125ZM241.00688 200.2125L241.00688 196.275L238.22563 200.2125L241.00688 200.2125ZM252.56938 198.00937Q253.35063 198.86874 253.91313 199.30624Q254.49126 199.74374 254.99126 199.9625L254.99126 200.22812Q254.41313 200.50937 253.86626 200.94687Q253.31938 201.38437 252.56938 202.22812L252.11626 202.22812Q252.66313 201.05624 253.2725 200.41562L243.92876 200.41562L243.92876 199.82187L253.2725 199.82187Q252.81938 199.25937 252.6475 198.99374Q252.47563 198.7125 252.13188 198.00937L252.56938 198.00937ZM260.66315 195.19687L260.21002 196.19687L257.8194 196.19687L257.30377 197.25937Q258.85065 197.49374 259.7569 198.41562Q260.53815 199.2125 260.53815 200.29062Q260.53815 200.91562 260.28815 201.4625Q260.03815 201.99374 259.64752 202.36874Q259.2569 202.74374 258.78815 202.9625Q258.11627 203.29062 257.39752 203.29062Q256.67877 203.29062 256.35065 203.05624Q256.03815 202.80624 256.03815 202.50937Q256.03815 202.35312 256.16315 202.22812Q256.30377 202.0875 256.5069 202.0875Q256.66315 202.0875 256.77252 202.13437Q256.89752 202.18124 257.16315 202.38437Q257.60065 202.68124 258.05377 202.68124Q258.74127 202.68124 259.2569 202.16562Q259.77252 201.65 259.77252 200.9Q259.77252 200.18124 259.30377 199.55624Q258.85065 198.93124 258.03815 198.60312Q257.39752 198.3375 256.30377 198.29062L257.8194 195.19687L260.66315 195.19687Z" fill-rule="nonzero"/><path fill="#000000" d="M303.12314 195.19687L302.67 196.19687L300.2794 196.19687L299.76376 197.25937Q301.31064 197.49374 302.2169 198.41562Q302.99814 199.2125 302.99814 200.29062Q302.99814 200.91562 302.74814 201.4625Q302.49814 201.99374 302.1075 202.36874Q301.7169 202.74374 301.24814 202.9625Q300.57626 203.29062 299.8575 203.29062Q299.13876 203.29062 298.81064 203.05624Q298.49814 202.80624 298.49814 202.50937Q298.49814 202.35312 298.62314 202.22812Q298.76376 202.0875 298.9669 202.0875Q299.12314 202.0875 299.2325 202.13437Q299.3575 202.18124 299.62314 202.38437Q300.06064 202.68124 300.51376 202.68124Q301.20126 202.68124 301.7169 202.16562Q302.2325 201.65 302.2325 200.9Q302.2325 200.18124 301.76376 199.55624Q301.31064 198.93124 300.49814 198.60312Q299.8575 198.3375 298.76376 198.29062L300.2794 195.19687L303.12314 195.19687ZM313.0294 198.00937Q313.81064 198.86874 314.37314 199.30624Q314.95126 199.74374 315.45126 199.9625L315.45126 200.22812Q314.87314 200.50937 314.32626 200.94687Q313.7794 201.38437 313.0294 202.22812L312.57626 202.22812Q313.12314 201.05624 313.7325 200.41562L304.38876 200.41562L304.38876 199.82187L313.7325 199.82187Q313.2794 199.25937 313.1075 198.99374Q312.93564 198.7125 312.5919 198.00937L313.0294 198.00937ZM321.295 195.04062L321.295 195.25937Q320.5294 195.3375 320.0294 195.57187Q319.545 195.79062 319.06064 196.275Q318.5919 196.74374 318.2794 197.3375Q317.9669 197.91562 317.74814 198.7125Q318.5919 198.13437 319.45126 198.13437Q320.26376 198.13437 320.8575 198.79062Q321.45126 199.44687 321.45126 200.47812Q321.45126 201.47812 320.8575 202.29062Q320.12314 203.29062 318.93564 203.29062Q318.12314 203.29062 317.545 202.74374Q316.43564 201.69687 316.43564 200.025Q316.43564 198.9625 316.8575 198.00937Q317.295 197.04062 318.07626 196.30624Q318.87314 195.55624 319.5919 195.30624Q320.32626 195.04062 320.9669 195.04062L321.295 195.04062ZM317.6544 199.13437Q317.545 199.93124 317.545 200.41562Q317.545 200.97812 317.74814 201.65Q317.9669 202.30624 318.37314 202.68124Q318.67 202.9625 319.1075 202.9625Q319.6075 202.9625 320.01376 202.47812Q320.42 201.99374 320.42 201.10312Q320.42 200.10312 320.01376 199.38437Q319.62314 198.65 318.88876 198.65Q318.67 198.65 318.4044 198.74374Q318.1544 198.8375 317.6544 199.13437Z" fill-rule="nonzero"/><path fill="#156082" d="M31.5 17.85C31.5 21.163708 28.81371 23.85 25.5 23.85C22.18629 23.85 19.5 21.163708 19.5 17.85C19.5 14.536291 22.18629 11.85 25.5 11.85C28.81371 11.85 31.5 14.536291 31.5 17.85Z" fill-rule="nonzero"/><path fill="#1a1a1a" d="M46.859375 13.725L47.078125 16.225L46.859375 16.225Q46.5625 15.2875 46.0625 14.81875Q45.359375 14.13125 44.234375 14.13125Q42.71875 14.13125 41.9375 15.334375Q41.265625 16.35 41.265625 17.740625Q41.265625 18.88125 41.703125 19.81875Q42.15625 20.75625 42.859375 21.19375Q43.578125 21.63125 44.328125 21.63125Q44.765625 21.63125 45.171875 21.521875Q45.578125 21.4125 45.96875 21.19375L45.96875 18.896875Q45.96875 18.303125 45.875 18.115625Q45.78125 17.928125 45.59375 17.834375Q45.40625 17.740625 44.921875 17.740625L44.921875 17.50625L48.0 17.50625L48.0 17.740625L47.84375 17.740625Q47.390625 17.740625 47.21875 18.0375Q47.109375 18.25625 47.109375 18.896875L47.109375 21.334375Q46.4375 21.69375 45.78125 21.865625Q45.125 22.0375 44.3125 22.0375Q42.015625 22.0375 40.8125 20.553125Q39.921875 19.44375 39.921875 18.00625Q39.921875 16.94375 40.421875 15.990625Q41.03125 14.85 42.0625 14.225Q42.9375 13.725 44.125 13.725Q44.5625 13.725 44.90625 13.803125Q45.265625 13.865625 45.921875 14.1Q46.25 14.225 46.359375 14.225Q46.46875 14.225 46.546875 14.13125Q46.625 14.021875 46.65625 13.725L46.859375 13.725ZM50.453125 16.31875L50.453125 17.5375Q51.125 16.31875 51.828125 16.31875Q52.15625 16.31875 52.359375 16.521875Q52.578125 16.709375 52.578125 16.975Q52.578125 17.209375 52.421875 17.365625Q52.265625 17.521875 52.0625 17.521875Q51.859375 17.521875 51.59375 17.31875Q51.34375 17.115625 51.21875 17.115625Q51.109375 17.115625 50.984375 17.225Q50.734375 17.475 50.453125 18.021875L50.453125 20.6Q50.453125 21.0375 50.5625 21.271875Q50.640625 21.428125 50.828125 21.5375Q51.015625 21.63125 51.390625 21.63125L51.390625 21.85L48.640625 21.85L48.640625 21.63125Q49.046875 21.63125 49.25 21.50625Q49.390625 21.4125 49.453125 21.209375Q49.484375 21.115625 49.484375 20.646875L49.484375 18.56875Q49.484375 17.63125 49.4375 17.459375Q49.40625 17.271875 49.296875 17.19375Q49.203125 17.1 49.046875 17.1Q48.859375 17.1 48.640625 17.19375L48.578125 16.975L50.203125 16.31875L50.453125 16.31875ZM58.078125 18.9125L58.078125 19.75625L57.015625 19.75625L57.015625 21.85L56.046875 21.85L56.046875 19.75625L52.6875 19.75625L52.6875 19.00625L56.375 13.740625L57.015625 13.740625L57.015625 18.9125L58.078125 18.9125ZM56.046875 18.9125L56.046875 14.975L53.265625 18.9125L56.046875 18.9125Z" fill-rule="nonzero"/><path fill="#e97132" d="M86.5 17.85C86.5 21.163708 83.813705 23.85 80.5 23.85C77.186295 23.85 74.5 21.163708 74.5 17.85C74.5 14.536291 77.186295 11.85 80.5 11.85C83.813705 11.85 86.5 14.536291 86.5 17.85Z" fill-rule="nonzero"/><path fill="#1a1a1a" d="M96.96875 18.13125L96.96875 20.44375Q96.96875 21.19375 97.125 21.38125Q97.34375 21.63125 97.796875 21.63125L98.109375 21.63125L98.109375 21.85L94.703125 21.85L94.703125 21.63125L95.0 21.63125Q95.5 21.63125 95.71875 21.303125Q95.84375 21.115625 95.84375 20.44375L95.84375 15.303125Q95.84375 14.553125 95.671875 14.38125Q95.453125 14.115625 95.0 14.115625L94.703125 14.115625L94.703125 13.896875L97.609375 13.896875Q98.671875 13.896875 99.28125 14.13125Q99.90625 14.35 100.328125 14.865625Q100.75 15.38125 100.75 16.1Q100.75 17.06875 100.109375 17.678125Q99.46875 18.2875 98.296875 18.2875Q98.015625 18.2875 97.671875 18.25625Q97.34375 18.209375 96.96875 18.13125ZM96.96875 17.7875Q97.265625 17.85 97.5 17.88125Q97.75 17.9125 97.921875 17.9125Q98.53125 17.9125 98.96875 17.44375Q99.421875 16.975 99.421875 16.225Q99.421875 15.709375 99.203125 15.271875Q99.0 14.81875 98.609375 14.6Q98.21875 14.38125 97.734375 14.38125Q97.4375 14.38125 96.96875 14.490625L96.96875 17.7875ZM107.078125 18.9125L107.078125 19.75625L106.015625 19.75625L106.015625 21.85L105.046875 21.85L105.046875 19.75625L101.6875 19.75625L101.6875 19.00625L105.375 13.740625L106.015625 13.740625L106.015625 18.9125L107.078125 18.9125ZM105.046875 18.9125L105.046875 14.975L102.265625 18.9125L105.046875 18.9125ZM109.46875 17.459375Q110.0625 16.88125 110.15625 16.7875Q110.421875 16.56875 110.71875 16.44375Q111.03125 16.31875 111.328125 16.31875Q111.84375 16.31875 112.203125 16.615625Q112.5625 16.9125 112.6875 17.459375Q113.296875 16.75625 113.703125 16.5375Q114.125 16.31875 114.5625 16.31875Q114.984375 16.31875 115.3125 16.5375Q115.65625 16.75625 115.84375 17.25625Q115.96875 17.6 115.96875 18.334375L115.96875 20.63125Q115.96875 21.146875 116.046875 21.334375Q116.109375 21.459375 116.265625 21.553125Q116.421875 21.63125 116.78125 21.63125L116.78125 21.85L114.140625 21.85L114.140625 21.63125L114.25 21.63125Q114.59375 21.63125 114.78125 21.50625Q114.921875 21.4125 114.984375 21.209375Q115.0 21.1 115.0 20.63125L115.0 18.334375Q115.0 17.678125 114.84375 17.396875Q114.609375 17.021875 114.109375 17.021875Q113.796875 17.021875 113.484375 17.178125Q113.171875 17.334375 112.734375 17.75625L112.71875 17.81875L112.734375 18.06875L112.734375 20.63125Q112.734375 21.19375 112.78125 21.334375Q112.84375 21.459375 113.015625 21.553125Q113.1875 21.63125 113.59375 21.63125L113.59375 21.85L110.890625 21.85L110.890625 21.63125Q111.328125 21.63125 111.5 21.5375Q111.671875 21.428125 111.734375 21.209375Q111.765625 21.115625 111.765625 20.63125L111.765625 18.334375Q111.765625 17.678125 111.5625 17.38125Q111.3125 17.00625 110.84375 17.00625Q110.53125 17.00625 110.21875 17.178125Q109.734375 17.44375 109.46875 17.75625L109.46875 20.63125Q109.46875 21.1625 109.53125 21.31875Q109.609375 21.475 109.75 21.553125Q109.90625 21.63125 110.34375 21.63125L110.34375 21.85L107.6875 21.85L107.6875 21.63125Q108.0625 21.63125 108.203125 21.553125Q108.34375 21.475 108.421875 21.303125Q108.5 21.13125 108.5 20.63125L108.5 18.584375Q108.5 17.69375 108.453125 17.44375Q108.40625 17.25625 108.3125 17.178125Q108.234375 17.1 108.078125 17.1Q107.921875 17.1 107.6875 17.19375L107.59375 16.975L109.21875 16.31875L109.46875 16.31875L109.46875 17.459375Z" fill-rule="nonzero"/><path fill="#196b24" d="M144.5 17.85C144.5 21.163708 141.8137 23.85 138.5 23.85C135.1863 23.85 132.5 21.163708 132.5 17.85C132.5 14.536291 135.1863 11.85 138.5 11.85C141.8137 11.85 144.5 14.536291 144.5 17.85Z" fill-rule="nonzero"/><path fill="#1a1a1a" d="M159.375 19.646875L159.57812 19.69375L158.89062 21.85L152.73438 21.85L152.73438 21.63125L153.04688 21.63125Q153.54688 21.63125 153.76562 21.303125Q153.89062 21.115625 153.89062 20.44375L153.89062 15.303125Q153.89062 14.56875 153.71875 14.38125Q153.48438 14.115625 153.04688 14.115625L152.73438 14.115625L152.73438 13.896875L156.34375 13.896875L156.34375 14.115625Q155.70312 14.115625 155.45312 14.240625Q155.20312 14.365625 155.10938 14.553125Q155.01562 14.740625 155.01562 15.44375L155.01562 20.44375Q155.01562 20.928125 155.10938 21.1Q155.17188 21.225 155.3125 21.2875Q155.46875 21.35 156.23438 21.35L156.8125 21.35Q157.73438 21.35 158.09375 21.209375Q158.46875 21.06875 158.76562 20.740625Q159.07812 20.396875 159.375 19.646875ZM160.10938 15.4125Q160.45312 14.615625 160.96875 14.178125Q161.48438 13.740625 162.26562 13.740625Q163.21875 13.740625 163.71875 14.365625Q164.10938 14.81875 164.10938 15.35Q164.10938 16.225 163.01562 17.146875Q163.75 17.428125 164.125 17.959375Q164.5 18.490625 164.5 19.225Q164.5 20.25625 163.84375 21.00625Q163.0 21.990625 161.375 21.990625Q160.5625 21.990625 160.26562 21.7875Q159.98438 21.584375 159.98438 21.365625Q159.98438 21.19375 160.125 21.06875Q160.26562 20.928125 160.45312 20.928125Q160.60938 20.928125 160.75 20.975Q160.85938 21.00625 161.20312 21.19375Q161.5625 21.38125 161.6875 21.4125Q161.90625 21.475 162.15625 21.475Q162.75 21.475 163.1875 21.021875Q163.64062 20.553125 163.64062 19.928125Q163.64062 19.459375 163.4375 19.021875Q163.28125 18.69375 163.09375 18.521875Q162.84375 18.2875 162.40625 18.1Q161.96875 17.9125 161.51562 17.9125L161.32812 17.9125L161.32812 17.725Q161.78125 17.678125 162.25 17.396875Q162.71875 17.115625 162.92188 16.740625Q163.14062 16.35 163.14062 15.88125Q163.14062 15.2875 162.76562 14.9125Q162.39062 14.5375 161.82812 14.5375Q160.90625 14.5375 160.29688 15.50625L160.10938 15.4125ZM167.0 20.709375Q167.28125 20.709375 167.46875 20.9125Q167.65625 21.1 167.65625 21.365625Q167.65625 21.63125 167.45312 21.834375Q167.26562 22.021875 167.0 22.021875Q166.73438 22.021875 166.53125 21.834375Q166.34375 21.63125 166.34375 21.365625Q166.34375 21.084375 166.53125 20.896875Q166.73438 20.709375 167.0 20.709375ZM174.0 20.31875L173.45312 21.85L168.76562 21.85L168.76562 21.63125Q170.82812 19.740625 171.67188 18.553125Q172.51562 17.35 172.51562 16.365625Q172.51562 15.615625 172.04688 15.13125Q171.59375 14.63125 170.9375 14.63125Q170.35938 14.63125 169.89062 14.975Q169.42188 15.31875 169.20312 15.990625L168.98438 15.990625Q169.14062 14.896875 169.73438 14.31875Q170.34375 13.740625 171.25 13.740625Q172.21875 13.740625 172.85938 14.365625Q173.51562 14.975 173.51562 15.81875Q173.51562 16.428125 173.23438 17.0375Q172.79688 17.975 171.82812 19.0375Q170.375 20.63125 170.0 20.959375L172.07812 20.959375Q172.71875 20.959375 172.96875 20.9125Q173.21875 20.865625 173.42188 20.725Q173.64062 20.584375 173.78125 20.31875L174.0 20.31875Z" fill-rule="nonzero"/><path fill="#0f9ed5" d="M202.5 17.85C202.5 21.163708 199.8137 23.85 196.5 23.85C193.1863 23.85 190.5 21.163708 190.5 17.85C190.5 14.536291 193.1863 11.85 196.5 11.85C199.8137 11.85 202.5 14.536291 202.5 17.85Z" fill-rule="nonzero"/><path fill="#1a1a1a" d="M215.40625 21.85L212.34375 15.1625L212.34375 20.475Q212.34375 21.209375 212.5 21.38125Q212.71875 21.63125 213.1875 21.63125L213.46875 21.63125L213.46875 21.85L210.70312 21.85L210.70312 21.63125L210.98438 21.63125Q211.48438 21.63125 211.70312 21.334375Q211.82812 21.146875 211.82812 20.475L211.82812 15.2875Q211.82812 14.75625 211.70312 14.521875Q211.625 14.35 211.40625 14.240625Q211.1875 14.115625 210.70312 14.115625L210.70312 13.896875L212.95312 13.896875L215.82812 20.115625L218.67188 13.896875L220.92188 13.896875L220.92188 14.115625L220.64062 14.115625Q220.14062 14.115625 219.92188 14.428125Q219.79688 14.615625 219.79688 15.2875L219.79688 20.475Q219.79688 21.209375 219.95312 21.38125Q220.17188 21.63125 220.64062 21.63125L220.92188 21.63125L220.92188 21.85L217.54688 21.85L217.54688 21.63125L217.82812 21.63125Q218.32812 21.63125 218.54688 21.334375Q218.67188 21.146875 218.67188 20.475L218.67188 15.1625L215.60938 21.85L215.40625 21.85ZM228.0 13.725L228.0 16.475L227.78125 16.475Q227.6875 15.678125 227.40625 15.209375Q227.14062 14.740625 226.625 14.475Q226.125 14.19375 225.59375 14.19375Q224.98438 14.19375 224.57812 14.56875Q224.1875 14.928125 224.1875 15.4125Q224.1875 15.771875 224.4375 16.06875Q224.79688 16.50625 226.15625 17.240625Q227.28125 17.834375 227.6875 18.1625Q228.09375 18.475 228.3125 18.9125Q228.53125 19.35 228.53125 19.81875Q228.53125 20.725 227.82812 21.38125Q227.125 22.0375 226.03125 22.0375Q225.6875 22.0375 225.375 21.975Q225.20312 21.94375 224.625 21.771875Q224.04688 21.584375 223.90625 21.584375Q223.75 21.584375 223.65625 21.678125Q223.57812 21.75625 223.54688 22.0375L223.32812 22.0375L223.32812 19.303125L223.54688 19.303125Q223.70312 20.1625 223.95312 20.584375Q224.21875 21.00625 224.73438 21.2875Q225.26562 21.56875 225.90625 21.56875Q226.64062 21.56875 227.0625 21.19375Q227.48438 20.803125 227.48438 20.271875Q227.48438 19.975 227.32812 19.678125Q227.17188 19.38125 226.82812 19.13125Q226.59375 18.94375 225.57812 18.38125Q224.5625 17.803125 224.125 17.475Q223.70312 17.13125 223.46875 16.725Q223.25 16.303125 223.25 15.81875Q223.25 14.959375 223.90625 14.35Q224.5625 13.725 225.57812 13.725Q226.20312 13.725 226.92188 14.0375Q227.25 14.178125 227.375 14.178125Q227.53125 14.178125 227.625 14.084375Q227.73438 13.990625 227.78125 13.725L228.0 13.725Z" fill-rule="nonzero"/><path fill="#a02b93" d="M256.5 17.85C256.5 21.163708 253.8137 23.85 250.5 23.85C247.1863 23.85 244.5 21.163708 244.5 17.85C244.5 14.536291 247.1863 11.85 250.5 11.85C253.8137 11.85 256.5 14.536291 256.5 17.85Z" fill-rule="nonzero"/><path fill="#1a1a1a" d="M271.85938 13.725L272.07812 16.225L271.85938 16.225Q271.5625 15.2875 271.0625 14.81875Q270.35938 14.13125 269.23438 14.13125Q267.71875 14.13125 266.9375 15.334375Q266.26562 16.35 266.26562 17.740625Q266.26562 18.88125 266.70312 19.81875Q267.15625 20.75625 267.85938 21.19375Q268.57812 21.63125 269.32812 21.63125Q269.76562 21.63125 270.17188 21.521875Q270.57812 21.4125 270.96875 21.19375L270.96875 18.896875Q270.96875 18.303125 270.875 18.115625Q270.78125 17.928125 270.59375 17.834375Q270.40625 17.740625 269.92188 17.740625L269.92188 17.50625L273.0 17.50625L273.0 17.740625L272.84375 17.740625Q272.39062 17.740625 272.21875 18.0375Q272.10938 18.25625 272.10938 18.896875L272.10938 21.334375Q271.4375 21.69375 270.78125 21.865625Q270.125 22.0375 269.3125 22.0375Q267.01562 22.0375 265.8125 20.553125Q264.92188 19.44375 264.92188 18.00625Q264.92188 16.94375 265.42188 15.990625Q266.03125 14.85 267.0625 14.225Q267.9375 13.725 269.125 13.725Q269.5625 13.725 269.90625 13.803125Q270.26562 13.865625 270.92188 14.1Q271.25 14.225 271.35938 14.225Q271.46875 14.225 271.54688 14.13125Q271.625 14.021875 271.65625 13.725L271.85938 13.725ZM277.89062 13.725Q279.4375 13.725 280.5625 14.896875Q281.70312 16.06875 281.70312 17.834375Q281.70312 19.646875 280.5625 20.85Q279.42188 22.0375 277.79688 22.0375Q276.15625 22.0375 275.03125 20.865625Q273.92188 19.69375 273.92188 17.85Q273.92188 15.959375 275.21875 14.75625Q276.32812 13.725 277.89062 13.725ZM277.78125 14.146875Q276.71875 14.146875 276.0625 14.94375Q275.26562 15.928125 275.26562 17.81875Q275.26562 19.771875 276.09375 20.81875Q276.73438 21.615625 277.78125 21.615625Q278.90625 21.615625 279.625 20.740625Q280.35938 19.865625 280.35938 17.990625Q280.35938 15.94375 279.5625 14.94375Q278.92188 14.146875 277.78125 14.146875Z" fill-rule="nonzero"/><path fill="#4ea72e" d="M310.5 17.85C310.5 21.163708 307.81372 23.85 304.5 23.85C301.18628 23.85 298.5 21.163708 298.5 17.85C298.5 14.536291 301.18628 11.85 304.5 11.85C307.81372 11.85 310.5 14.536291 310.5 17.85Z" fill-rule="nonzero"/><path fill="#1a1a1a" d="M320.96875 18.13125L320.96875 20.44375Q320.96875 21.19375 321.125 21.38125Q321.34375 21.63125 321.79688 21.63125L322.10938 21.63125L322.10938 21.85L318.70312 21.85L318.70312 21.63125L319.0 21.63125Q319.5 21.63125 319.71875 21.303125Q319.84375 21.115625 319.84375 20.44375L319.84375 15.303125Q319.84375 14.553125 319.67188 14.38125Q319.45312 14.115625 319.0 14.115625L318.70312 14.115625L318.70312 13.896875L321.60938 13.896875Q322.67188 13.896875 323.28125 14.13125Q323.90625 14.35 324.32812 14.865625Q324.75 15.38125 324.75 16.1Q324.75 17.06875 324.10938 17.678125Q323.46875 18.2875 322.29688 18.2875Q322.01562 18.2875 321.67188 18.25625Q321.34375 18.209375 320.96875 18.13125ZM320.96875 17.7875Q321.26562 17.85 321.5 17.88125Q321.75 17.9125 321.92188 17.9125Q322.53125 17.9125 322.96875 17.44375Q323.42188 16.975 323.42188 16.225Q323.42188 15.709375 323.20312 15.271875Q323.0 14.81875 322.60938 14.6Q322.21875 14.38125 321.73438 14.38125Q321.4375 14.38125 320.96875 14.490625L320.96875 17.7875ZM331.07812 18.9125L331.07812 19.75625L330.01562 19.75625L330.01562 21.85L329.04688 21.85L329.04688 19.75625L325.6875 19.75625L325.6875 19.00625L329.375 13.740625L330.01562 13.740625L330.01562 18.9125L331.07812 18.9125ZM329.04688 18.9125L329.04688 14.975L326.26562 18.9125L329.04688 18.9125Z" fill-rule="nonzero"/><path fill="#5b90a8" d="M142.0 35.85C142.0 39.163708 139.3137 41.85 136.0 41.85C132.6863 41.85 130.0 39.163708 130.0 35.85C130.0 32.536293 132.6863 29.85 136.0 29.85C139.3137 29.85 142.0 32.536293 142.0 35.85Z" fill-rule="nonzero"/><path fill="#1a1a1a" d="M150.20312 39.85L150.20312 39.63125L150.5 39.63125Q151.01562 39.63125 151.21875 39.303123Q151.34375 39.115623 151.34375 38.44375L151.34375 33.303123Q151.34375 32.56875 151.1875 32.38125Q150.95312 32.115623 150.5 32.115623L150.20312 32.115623L150.20312 31.896873L153.4375 31.896873Q155.21875 31.896873 156.14062 32.303123Q157.07812 32.709373 157.64062 33.6625Q158.20312 34.6 158.20312 35.834373Q158.20312 37.490623 157.20312 38.6Q156.07812 39.85 153.75 39.85L150.20312 39.85ZM152.46875 39.271873Q153.21875 39.44375 153.71875 39.44375Q155.07812 39.44375 155.96875 38.490623Q156.875 37.521873 156.875 35.896873Q156.875 34.240623 155.96875 33.303123Q155.07812 32.35 153.67188 32.35Q153.14062 32.35 152.46875 32.521873L152.46875 39.271873ZM160.40625 32.678123L162.34375 31.740623L162.53125 31.740623L162.53125 38.44375Q162.53125 39.115623 162.57812 39.2875Q162.64062 39.44375 162.8125 39.5375Q163.0 39.615623 163.53125 39.63125L163.53125 39.85L160.54688 39.85L160.54688 39.63125Q161.10938 39.615623 161.26562 39.5375Q161.4375 39.44375 161.5 39.303123Q161.5625 39.1625 161.5625 38.44375L161.5625 34.1625Q161.5625 33.2875 161.51562 33.053123Q161.46875 32.865623 161.35938 32.771873Q161.25 32.678123 161.09375 32.678123Q160.875 32.678123 160.5 32.865623L160.40625 32.678123Z" fill-rule="nonzero"/><path fill="#f09c70" d="M193.0 35.85C193.0 39.163708 190.3137 41.85 187.0 41.85C183.6863 41.85 181.0 39.163708 181.0 35.85C181.0 32.536293 183.6863 29.85 187.0 29.85C190.3137 29.85 193.0 32.536293 193.0 35.85Z" fill-rule="nonzero"/><path fill="#1a1a1a" d="M208.35938 31.724998L208.57812 34.225L208.35938 34.225Q208.0625 33.2875 207.5625 32.81875Q206.85938 32.13125 205.73438 32.13125Q204.21875 32.13125 203.4375 33.334373Q202.76562 34.35 202.76562 35.740623Q202.76562 36.88125 203.20312 37.81875Q203.65625 38.75625 204.35938 39.19375Q205.07812 39.63125 205.82812 39.63125Q206.26562 39.63125 206.67188 39.521873Q207.07812 39.4125 207.46875 39.19375L207.46875 36.896873Q207.46875 36.303123 207.375 36.115623Q207.28125 35.928123 207.09375 35.834373Q206.90625 35.740623 206.42188 35.740623L206.42188 35.50625L209.5 35.50625L209.5 35.740623L209.34375 35.740623Q208.89062 35.740623 208.71875 36.0375Q208.60938 36.25625 208.60938 36.896873L208.60938 39.334373Q207.9375 39.69375 207.28125 39.865623Q206.625 40.0375 205.8125 40.0375Q203.51562 40.0375 202.3125 38.553123Q201.42188 37.44375 201.42188 36.00625Q201.42188 34.94375 201.92188 33.990623Q202.53125 32.85 203.5625 32.225Q204.4375 31.724998 205.625 31.724998Q206.0625 31.724998 206.40625 31.803123Q206.76562 31.865623 207.42188 32.1Q207.75 32.225 207.85938 32.225Q207.96875 32.225 208.04688 32.13125Q208.125 32.021873 208.15625 31.724998L208.35938 31.724998ZM211.28125 36.50625Q211.26562 37.69375 211.85938 38.38125Q212.4375 39.053123 213.23438 39.053123Q213.76562 39.053123 214.15625 38.771873Q214.54688 38.475 214.8125 37.771873L214.98438 37.896873Q214.85938 38.69375 214.26562 39.365623Q213.6875 40.021873 212.79688 40.021873Q211.82812 40.021873 211.14062 39.271873Q210.45312 38.50625 210.45312 37.240623Q210.45312 35.865623 211.15625 35.1Q211.85938 34.31875 212.92188 34.31875Q213.82812 34.31875 214.40625 34.9125Q214.98438 35.50625 214.98438 36.50625L211.28125 36.50625ZM211.28125 36.1625L213.76562 36.1625Q213.73438 35.646873 213.64062 35.44375Q213.5 35.115623 213.20312 34.928123Q212.90625 34.740623 212.59375 34.740623Q212.10938 34.740623 211.71875 35.115623Q211.34375 35.490623 211.28125 36.1625ZM215.60938 33.4125Q215.95312 32.615623 216.46875 32.178123Q216.98438 31.740623 217.76562 31.740623Q218.71875 31.740623 219.21875 32.365623Q219.60938 32.81875 219.60938 33.35Q219.60938 34.225 218.51562 35.146873Q219.25 35.428123 219.625 35.959373Q220.0 36.490623 220.0 37.225Q220.0 38.25625 219.34375 39.00625Q218.5 39.990623 216.875 39.990623Q216.0625 39.990623 215.76562 39.7875Q215.48438 39.584373 215.48438 39.365623Q215.48438 39.19375 215.625 39.06875Q215.76562 38.928123 215.95312 38.928123Q216.10938 38.928123 216.25 38.975Q216.35938 39.00625 216.70312 39.19375Q217.0625 39.38125 217.1875 39.4125Q217.40625 39.475 217.65625 39.475Q218.25 39.475 218.6875 39.021873Q219.14062 38.553123 219.14062 37.928123Q219.14062 37.459373 218.9375 37.021873Q218.78125 36.69375 218.59375 36.521873Q218.34375 36.2875 217.90625 36.1Q217.46875 35.9125 217.01562 35.9125L216.82812 35.9125L216.82812 35.725Q217.28125 35.678123 217.75 35.396873Q218.21875 35.115623 218.42188 34.740623Q218.64062 34.35 218.64062 33.88125Q218.64062 33.2875 218.26562 32.9125Q217.89062 32.5375 217.32812 32.5375Q216.40625 32.5375 215.79688 33.50625L215.60938 33.4125Z" fill-rule="nonzero"/></svg>