<svg version="1.1" viewBox="0.0 0.0 351.0 217.0" fill="none" stroke="none" stroke-linecap="square" stroke-miterlimit="10" width="351" height="217" xmlns:xlink="http://www.w3.org/1999/xlink" xmlns="http://www.w3.org/2000/svg"><path fill="#ffffff" d="M0 0L351.0 0L351.0 217.0L0 217.0L0 0Z" fill-rule="nonzero"/><path stroke="#cccccc" stroke-width="1.0" stroke-linecap="butt" d="M37.5 186.5L340.5 186.5" fill-rule="nonzero"/><path stroke="#cccccc" stroke-width="1.0" stroke-linecap="butt" d="M37.5 173.5L340.5 173.5" fill-rule="nonzero"/><path stroke="#cccccc" stroke-width="1.0" stroke-linecap="butt" d="M37.5 160.5L340.5 160.5" fill-rule="nonzero"/><path stroke="#cccccc" stroke-width="1.0" stroke-linecap="butt" d="M37.5 147.5L340.5 147.5" fill-rule="nonzero"/><path stroke="#cccccc" stroke-width="1.0" stroke-linecap="butt" d="M37.5 134.5L340.5 134.5" fill-rule="nonzero"/><path stroke="#cccccc" stroke-width="1.0" stroke-linecap="butt" d="M37.5 121.5L340.5 121.5" fill-rule="nonzero"/><path stroke="#cccccc" stroke-width="1.0" stroke-linecap="butt" d="M37.5 108.5L340.5 108.5" fill-rule="nonzero"/><path stroke="#cccccc" stroke-width="1.0" stroke-linecap="butt" d="M37.5 95.5L340.5 95.5" fill-rule="nonzero"/><path stroke="#cccccc" stroke-width="1.0" stroke-linecap="butt" d="M37.5 82.5L340.5 82.5" fill-rule="nonzero"/><path stroke="#cccccc" stroke-width="1.0" stroke-linecap="butt" d="M37.5 69.5L340.5 69.5" fill-rule="nonzero"/><path stroke="#cccccc" stroke-width="1.0" stroke-linecap="butt" d="M37.5 57.5L340.5 57.5" fill-rule="nonzero"/><clipPath id="id_0"><path d="M37.85 57.083332L340.15 57.083332L340.15 186.15L37.85 186.15L37.85 57.083332Z" clip-rule="nonzero"/></clipPath><path stroke="#156082" stroke-width="2.0" stroke-linecap="butt" clip-path="url(#id_0)" d="M68.08 121.61667L128.54 128.07L189.0 134.52333L249.46 128.07L309.92 121.61667" fill-rule="nonzero"/><path stroke="#e97132" stroke-width="2.0" stroke-linecap="butt" clip-path="url(#id_0)" d="M68.08 147.43L128.54 147.43L189.0 147.43L249.46 128.07L309.92 134.52333" fill-rule="nonzero"/><path stroke="#196b24" stroke-width="2.0" stroke-linecap="butt" clip-path="url(#id_0)" d="M68.08 134.52333L128.54 134.52333L189.0 134.52333L249.46 115.16333L309.92 115.16333" fill-rule="nonzero"/><path stroke="#0f9ed5" stroke-width="2.0" stroke-linecap="butt" clip-path="url(#id_0)" d="M68.08 134.52333L128.54 153.88333L189.0 160.33667L249.46 108.71L309.92 121.61667" fill-rule="nonzero"/><path stroke="#a02b93" stroke-width="2.0" stroke-linecap="butt" clip-path="url(#id_0)" d="M68.08 147.43L128.54 166.79L189.0 173.24333L249.46 147.43L309.92 134.52333" fill-rule="nonzero"/><path stroke="#4ea72e" stroke-width="2.0" stroke-linecap="butt" clip-path="url(#id_0)" d="M68.08 128.07L128.54 115.16333L189.0 121.61667L249.46 108.71L309.92 108.71" fill-rule="nonzero"/><path stroke="#5b90a8" stroke-width="2.0" stroke-linecap="butt" clip-path="url(#id_0)" d="M68.08 115.16333L128.54 128.07L189.0 134.52333L249.46 121.61667L309.92 115.16333" fill-rule="nonzero"/><path stroke="#f09c70" stroke-width="2.0" stroke-linecap="butt" clip-path="url(#id_0)" d="M68.08 140.97667L128.54 128.07L189.0 121.61667L249.46 121.61667L309.92 121.61667" fill-rule="nonzero"/><path fill="#156082" clip-path="url(#id_0)" d="M71.08 121.61667C71.08 123.27352 69.736855 124.61667 68.08 124.61667C66.42315 124.61667 65.08 123.27352 65.08 121.61667C65.08 119.959816 66.42315 118.61667 68.08 118.61667C69.736855 118.61667 71.08 119.959816 71.08 121.61667Z" fill-rule="nonzero"/><path fill="#156082" clip-path="url(#id_0)" d="M131.54 128.07C131.54 129.72685 130.19685 131.07 128.54 131.07C126.88315 131.07 125.54 129.72685 125.54 128.07C125.54 126.41315 126.88315 125.07 128.54 125.07C130.19685 125.07 131.54 126.41315 131.54 128.07Z" fill-rule="nonzero"/><path fill="#156082" clip-path="url(#id_0)" d="M192.0 134.52333C192.0 136.18019 190.65686 137.52333 189.0 137.52333C187.34314 137.52333 186.0 136.18019 186.0 134.52333C186.0 132.86649 187.34314 131.52333 189.0 131.52333C190.65686 131.52333 192.0 132.86649 192.0 134.52333Z" fill-rule="nonzero"/><path fill="#156082" clip-path="url(#id_0)" d="M252.46 128.07C252.46 129.72685 251.11685 131.07 249.46 131.07C247.80315 131.07 246.46 129.72685 246.46 128.07C246.46 126.41315 247.80315 125.07 249.46 125.07C251.11685 125.07 252.46 126.41315 252.46 128.07Z" fill-rule="nonzero"/><path fill="#156082" clip-path="url(#id_0)" d="M312.92 121.61667C312.92 123.27352 311.57684 124.61667 309.92 124.61667C308.26315 124.61667 306.92 123.27352 306.92 121.61667C306.92 119.959816 308.26315 118.61667 309.92 118.61667C311.57684 118.61667 312.92 119.959816 312.92 121.61667Z" fill-rule="nonzero"/><path fill="#e97132" clip-path="url(#id_0)" d="M71.08 147.43C71.08 149.08685 69.736855 150.43 68.08 150.43C66.42315 150.43 65.08 149.08685 65.08 147.43C65.08 145.77315 66.42315 144.43 68.08 144.43C69.736855 144.43 71.08 145.77315 71.08 147.43Z" fill-rule="nonzero"/><path fill="#e97132" clip-path="url(#id_0)" d="M131.54 147.43C131.54 149.08685 130.19685 150.43 128.54 150.43C126.88315 150.43 125.54 149.08685 125.54 147.43C125.54 145.77315 126.88315 144.43 128.54 144.43C130.19685 144.43 131.54 145.77315 131.54 147.43Z" fill-rule="nonzero"/><path fill="#e97132" clip-path="url(#id_0)" d="M192.0 147.43C192.0 149.08685 190.65686 150.43 189.0 150.43C187.34314 150.43 186.0 149.08685 186.0 147.43C186.0 145.77315 187.34314 144.43 189.0 144.43C190.65686 144.43 192.0 145.77315 192.0 147.43Z" fill-rule="nonzero"/><path fill="#e97132" clip-path="url(#id_0)" d="M252.46 128.07C252.46 129.72685 251.11685 131.07 249.46 131.07C247.80315 131.07 246.46 129.72685 246.46 128.07C246.46 126.41315 247.80315 125.07 249.46 125.07C251.11685 125.07 252.46 126.41315 252.46 128.07Z" fill-rule="nonzero"/><path fill="#e97132" clip-path="url(#id_0)" d="M312.92 134.52333C312.92 136.18019 311.57684 137.52333 309.92 137.52333C308.26315 137.52333 306.92 136.18019 306.92 134.52333C306.92 132.86649 308.26315 131.52333 309.92 131.52333C311.57684 131.52333 312.92 132.86649 312.92 134.52333Z" fill-rule="nonzero"/><path fill="#196b24" clip-path="url(#id_0)" d="M71.08 134.52333C71.08 136.18019 69.736855 137.52333 68.08 137.52333C66.42315 137.52333 65.08 136.18019 65.08 134.52333C65.08 132.86649 66.42315 131.52333 68.08 131.52333C69.736855 131.52333 71.08 132.86649 71.08 134.52333Z" fill-rule="nonzero"/><path fill="#196b24" clip-path="url(#id_0)" d="M131.54 134.52333C131.54 136.18019 130.19685 137.52333 128.54 137.52333C126.88315 137.52333 125.54 136.18019 125.54 134.52333C125.54 132.86649 126.88315 131.52333 128.54 131.52333C130.19685 131.52333 131.54 132.86649 131.54 134.52333Z" fill-rule="nonzero"/><path fill="#196b24" clip-path="url(#id_0)" d="M192.0 134.52333C192.0 136.18019 190.65686 137.52333 189.0 137.52333C187.34314 137.52333 186.0 136.18019 186.0 134.52333C186.0 132.86649 187.34314 131.52333 189.0 131.52333C190.65686 131.52333 192.0 132.86649 192.0 134.52333Z" fill-rule="nonzero"/><path fill="#196b24" clip-path="url(#id_0)" d="M252.46 115.16333C252.46 116.82019 251.11685 118.16333 249.46 118.16333C247.80315 118.16333 246.46 116.82019 246.46 115.16333C246.46 113.50648 247.80315 112.16333 249.46 112.16333C251.11685 112.16333 252.46 113.50648 252.46 115.16333Z" fill-rule="nonzero"/><path fill="#196b24" clip-path="url(#id_0)" d="M312.92 115.16333C312.92 116.82019 311.57684 118.16333 309.92 118.16333C308.26315 118.16333 306.92 116.82019 306.92 115.16333C306.92 113.50648 308.26315 112.16333 309.92 112.16333C311.57684 112.16333 312.92 113.50648 312.92 115.16333Z" fill-rule="nonzero"/><path fill="#0f9ed5" clip-path="url(#id_0)" d="M71.08 134.52333C71.08 136.18019 69.736855 137.52333 68.08 137.52333C66.42315 137.52333 65.08 136.18019 65.08 134.52333C65.08 132.86649 66.42315 131.52333 68.08 131.52333C69.736855 131.52333 71.08 132.86649 71.08 134.52333Z" fill-rule="nonzero"/><path fill="#0f9ed5" clip-path="url(#id_0)" d="M131.54 153.88333C131.54 155.54019 130.19685 156.88333 128.54 156.88333C126.88315 156.88333 125.54 155.54019 125.54 153.88333C125.54 152.22649 126.88315 150.88333 128.54 150.88333C130.19685 150.88333 131.54 152.22649 131.54 153.88333Z" fill-rule="nonzero"/><path fill="#0f9ed5" clip-path="url(#id_0)" d="M192.0 160.33667C192.0 161.99352 190.65686 163.33667 189.0 163.33667C187.34314 163.33667 186.0 161.99352 186.0 160.33667C186.0 158.67981 187.34314 157.33667 189.0 157.33667C190.65686 157.33667 192.0 158.67981 192.0 160.33667Z" fill-rule="nonzero"/><path fill="#0f9ed5" clip-path="url(#id_0)" d="M252.46 108.71C252.46 110.36685 251.11685 111.71 249.46 111.71C247.80315 111.71 246.46 110.36685 246.46 108.71C246.46 107.05315 247.80315 105.71 249.46 105.71C251.11685 105.71 252.46 107.05315 252.46 108.71Z" fill-rule="nonzero"/><path fill="#0f9ed5" clip-path="url(#id_0)" d="M312.92 121.61667C312.92 123.27352 311.57684 124.61667 309.92 124.61667C308.26315 124.61667 306.92 123.27352 306.92 121.61667C306.92 119.959816 308.26315 118.61667 309.92 118.61667C311.57684 118.61667 312.92 119.959816 312.92 121.61667Z" fill-rule="nonzero"/><path fill="#a02b93" clip-path="url(#id_0)" d="M71.08 147.43C71.08 149.08685 69.736855 150.43 68.08 150.43C66.42315 150.43 65.08 149.08685 65.08 147.43C65.08 145.77315 66.42315 144.43 68.08 144.43C69.736855 144.43 71.08 145.77315 71.08 147.43Z" fill-rule="nonzero"/><path fill="#a02b93" clip-path="url(#id_0)" d="M131.54 166.79C131.54 168.44685 130.19685 169.79 128.54 169.79C126.88315 169.79 125.54 168.44685 125.54 166.79C125.54 165.13315 126.88315 163.79 128.54 163.79C130.19685 163.79 131.54 165.13315 131.54 166.79Z" fill-rule="nonzero"/><path fill="#a02b93" clip-path="url(#id_0)" d="M192.0 173.24333C192.0 174.90019 190.65686 176.24333 189.0 176.24333C187.34314 176.24333 186.0 174.90019 186.0 173.24333C186.0 171.58647 187.34314 170.24333 189.0 170.24333C190.65686 170.24333 192.0 171.58647 192.0 173.24333Z" fill-rule="nonzero"/><path fill="#a02b93" clip-path="url(#id_0)" d="M252.46 147.43C252.46 149.08685 251.11685 150.43 249.46 150.43C247.80315 150.43 246.46 149.08685 246.46 147.43C246.46 145.77315 247.80315 144.43 249.46 144.43C251.11685 144.43 252.46 145.77315 252.46 147.43Z" fill-rule="nonzero"/><path fill="#a02b93" clip-path="url(#id_0)" d="M312.92 134.52333C312.92 136.18019 311.57684 137.52333 309.92 137.52333C308.26315 137.52333 306.92 136.18019 306.92 134.52333C306.92 132.86649 308.26315 131.52333 309.92 131.52333C311.57684 131.52333 312.92 132.86649 312.92 134.52333Z" fill-rule="nonzero"/><path fill="#4ea72e" clip-path="url(#id_0)" d="M71.08 128.07C71.08 129.72685 69.736855 131.07 68.08 131.07C66.42315 131.07 65.08 129.72685 65.08 128.07C65.08 126.41315 66.42315 125.07 68.08 125.07C69.736855 125.07 71.08 126.41315 71.08 128.07Z" fill-rule="nonzero"/><path fill="#4ea72e" clip-path="url(#id_0)" d="M131.54 115.16333C131.54 116.82019 130.19685 118.16333 128.54 118.16333C126.88315 118.16333 125.54 116.82019 125.54 115.16333C125.54 113.50648 126.88315 112.16333 128.54 112.16333C130.19685 112.16333 131.54 113.50648 131.54 115.16333Z" fill-rule="nonzero"/><path fill="#4ea72e" clip-path="url(#id_0)" d="M192.0 121.61667C192.0 123.27352 190.65686 124.61667 189.0 124.61667C187.34314 124.61667 186.0 123.27352 186.0 121.61667C186.0 119.959816 187.34314 118.61667 189.0 118.61667C190.65686 118.61667 192.0 119.959816 192.0 121.61667Z" fill-rule="nonzero"/><path fill="#4ea72e" clip-path="url(#id_0)" d="M252.46 108.71C252.46 110.36685 251.11685 111.71 249.46 111.71C247.80315 111.71 246.46 110.36685 246.46 108.71C246.46 107.05315 247.80315 105.71 249.46 105.71C251.11685 105.71 252.46 107.05315 252.46 108.71Z" fill-rule="nonzero"/><path fill="#4ea72e" clip-path="url(#id_0)" d="M312.92 108.71C312.92 110.36685 311.57684 111.71 309.92 111.71C308.26315 111.71 306.92 110.36685 306.92 108.71C306.92 107.05315 308.26315 105.71 309.92 105.71C311.57684 105.71 312.92 107.05315 312.92 108.71Z" fill-rule="nonzero"/><path fill="#5b90a8" clip-path="url(#id_0)" d="M71.08 115.16333C71.08 116.82019 69.736855 118.16333 68.08 118.16333C66.42315 118.16333 65.08 116.82019 65.08 115.16333C65.08 113.50648 66.42315 112.16333 68.08 112.16333C69.736855 112.16333 71.08 113.50648 71.08 115.16333Z" fill-rule="nonzero"/><path fill="#5b90a8" clip-path="url(#id_0)" d="M131.54 128.07C131.54 129.72685 130.19685 131.07 128.54 131.07C126.88315 131.07 125.54 129.72685 125.54 128.07C125.54 126.41315 126.88315 125.07 128.54 125.07C130.19685 125.07 131.54 126.41315 131.54 128.07Z" fill-rule="nonzero"/><path fill="#5b90a8" clip-path="url(#id_0)" d="M192.0 134.52333C192.0 136.18019 190.65686 137.52333 189.0 137.52333C187.34314 137.52333 186.0 136.18019 186.0 134.52333C186.0 132.86649 187.34314 131.52333 189.0 131.52333C190.65686 131.52333 192.0 132.86649 192.0 134.52333Z" fill-rule="nonzero"/><path fill="#5b90a8" clip-path="url(#id_0)" d="M252.46 121.61667C252.46 123.27352 251.11685 124.61667 249.46 124.61667C247.80315 124.61667 246.46 123.27352 246.46 121.61667C246.46 119.959816 247.80315 118.61667 249.46 118.61667C251.11685 118.61667 252.46 119.959816 252.46 121.61667Z" fill-rule="nonzero"/><path fill="#5b90a8" clip-path="url(#id_0)" d="M312.92 115.16333C312.92 116.82019 311.57684 118.16333 309.92 118.16333C308.26315 118.16333 306.92 116.82019 306.92 115.16333C306.92 113.50648 308.26315 112.16333 309.92 112.16333C311.57684 112.16333 312.92 113.50648 312.92 115.16333Z" fill-rule="nonzero"/><path fill="#f09c70" clip-path="url(#id_0)" d="M71.08 140.97667C71.08 142.63351 69.736855 143.97667 68.08 143.97667C66.42315 143.97667 65.08 142.63351 65.08 140.97667C65.08 139.31981 66.42315 137.97667 68.08 137.97667C69.736855 137.97667 71.08 139.31981 71.08 140.97667Z" fill-rule="nonzero"/><path fill="#f09c70" clip-path="url(#id_0)" d="M131.54 128.07C131.54 129.72685 130.19685 131.07 128.54 131.07C126.88315 131.07 125.54 129.72685 125.54 128.07C125.54 126.41315 126.88315 125.07 128.54 125.07C130.19685 125.07 131.54 126.41315 131.54 128.07Z" fill-rule="nonzero"/><path fill="#f09c70" clip-path="url(#id_0)" d="M192.0 121.61667C192.0 123.27352 190.65686 124.61667 189.0 124.61667C187.34314 124.61667 186.0 123.27352 186.0 121.61667C186.0 119.959816 187.34314 118.61667 189.0 118.61667C190.65686 118.61667 192.0 119.959816 192.0 121.61667Z" fill-rule="nonzero"/><path fill="#f09c70" clip-path="url(#id_0)" d="M252.46 121.61667C252.46 123.27352 251.11685 124.61667 249.46 124.61667C247.80315 124.61667 246.46 123.27352 246.46 121.61667C246.46 119.959816 247.80315 118.61667 249.46 118.61667C251.11685 118.61667 252.46 119.959816 252.46 121.61667Z" fill-rule="nonzero"/><path fill="#f09c70" clip-path="url(#id_0)" d="M312.92 121.61667C312.92 123.27352 311.57684 124.61667 309.92 124.61667C308.26315 124.61667 306.92 123.27352 306.92 121.61667C306.92 119.959816 308.26315 118.61667 309.92 118.61667C311.57684 118.61667 312.92 119.959816 312.92 121.61667Z" fill-rule="nonzero"/><path fill="#000000" d="M11.2875 186.22812Q11.2875 184.86874 11.69375 183.88437Q12.1 182.9 12.7875 182.41562Q13.31875 182.04062 13.88125 182.04062Q14.7875 182.04062 15.521875 182.97812Q16.428125 184.11874 16.428125 186.10312Q16.428125 187.47812 16.021875 188.44687Q15.63125 189.41562 15.00625 189.85312Q14.396875 190.29062 13.81875 190.29062Q12.678125 190.29062 11.928125 188.94687Q11.2875 187.82187 11.2875 186.22812ZM12.428125 186.36874Q12.428125 188.00937 12.834375 189.04062Q13.178125 189.91562 13.834375 189.91562Q14.146875 189.91562 14.490625 189.63437Q14.834375 189.35312 15.00625 188.68124Q15.271875 187.68124 15.271875 185.8375Q15.271875 184.47812 14.990625 183.57187Q14.7875 182.9 14.44375 182.61874Q14.209375 182.43124 13.865625 182.43124Q13.475 182.43124 13.1625 182.79062Q12.740625 183.275 12.584375 184.32187Q12.428125 185.35312 12.428125 186.36874ZM18.35 189.00937Q18.63125 189.00937 18.81875 189.2125Q19.00625 189.4 19.00625 189.66562Q19.00625 189.93124 18.803125 190.13437Q18.615625 190.32187 18.35 190.32187Q18.084375 190.32187 17.88125 190.13437Q17.69375 189.93124 17.69375 189.66562Q17.69375 189.38437 17.88125 189.19687Q18.084375 189.00937 18.35 189.00937ZM25.053125 182.19687L24.6 183.19687L22.209375 183.19687L21.69375 184.25937Q23.240625 184.49374 24.146875 185.41562Q24.928125 186.2125 24.928125 187.29062Q24.928125 187.91562 24.678125 188.4625Q24.428125 188.99374 24.0375 189.36874Q23.646875 189.74374 23.178125 189.9625Q22.50625 190.29062 21.7875 190.29062Q21.06875 190.29062 20.740625 190.05624Q20.428125 189.80624 20.428125 189.50937Q20.428125 189.35312 20.553125 189.22812Q20.69375 189.0875 20.896875 189.0875Q21.053125 189.0875 21.1625 189.13437Q21.2875 189.18124 21.553125 189.38437Q21.990625 189.68124 22.44375 189.68124Q23.13125 189.68124 23.646875 189.16562Q24.1625 188.65 24.1625 187.9Q24.1625 187.18124 23.69375 186.55624Q23.240625 185.93124 22.428125 185.60312Q21.7875 185.3375 20.69375 185.29062L22.209375 182.19687L25.053125 182.19687ZM31.225 182.04062L31.225 182.25937Q30.459375 182.3375 29.959375 182.57187Q29.475 182.79062 28.990625 183.275Q28.521875 183.74374 28.209375 184.3375Q27.896875 184.91562 27.678125 185.7125Q28.521875 185.13437 29.38125 185.13437Q30.19375 185.13437 30.7875 185.79062Q31.38125 186.44687 31.38125 187.47812Q31.38125 188.47812 30.7875 189.29062Q30.053125 190.29062 28.865625 190.29062Q28.053125 190.29062 27.475 189.74374Q26.365625 188.69687 26.365625 187.025Q26.365625 185.9625 26.7875 185.00937Q27.225 184.04062 28.00625 183.30624Q28.803125 182.55624 29.521875 182.30624Q30.25625 182.04062 30.896875 182.04062L31.225 182.04062ZM27.584375 186.13437Q27.475 186.93124 27.475 187.41562Q27.475 187.97812 27.678125 188.65Q27.896875 189.30624 28.303125 189.68124Q28.6 189.9625 29.0375 189.9625Q29.5375 189.9625 29.94375 189.47812Q30.35 188.99374 30.35 188.10312Q30.35 187.10312 29.94375 186.38437Q29.553125 185.65 28.81875 185.65Q28.6 185.65 28.334375 185.74374Q28.084375 185.8375 27.584375 186.13437Z" fill-rule="nonzero"/><path fill="#000000" d="M11.2875 160.4148Q11.2875 159.05542 11.69375 158.07104Q12.1 157.08667 12.7875 156.6023Q13.31875 156.2273 13.88125 156.2273Q14.7875 156.2273 15.521875 157.1648Q16.428125 158.30542 16.428125 160.2898Q16.428125 161.6648 16.021875 162.63354Q15.63125 163.6023 15.00625 164.0398Q14.396875 164.4773 13.81875 164.4773Q12.678125 164.4773 11.928125 163.13354Q11.2875 162.00854 11.2875 160.4148ZM12.428125 160.55542Q12.428125 162.19604 12.834375 163.2273Q13.178125 164.1023 13.834375 164.1023Q14.146875 164.1023 14.490625 163.82104Q14.834375 163.5398 15.00625 162.86792Q15.271875 161.86792 15.271875 160.02417Q15.271875 158.6648 14.990625 157.75854Q14.7875 157.08667 14.44375 156.80542Q14.209375 156.61792 13.865625 156.61792Q13.475 156.61792 13.1625 156.9773Q12.740625 157.46167 12.584375 158.50854Q12.428125 159.5398 12.428125 160.55542ZM18.35 163.19604Q18.63125 163.19604 18.81875 163.39917Q19.00625 163.58667 19.00625 163.8523Q19.00625 164.11792 18.803125 164.32104Q18.615625 164.50854 18.35 164.50854Q18.084375 164.50854 17.88125 164.32104Q17.69375 164.11792 17.69375 163.8523Q17.69375 163.57104 17.88125 163.38354Q18.084375 163.19604 18.35 163.19604ZM25.225 156.2273L25.225 156.44604Q24.459375 156.52417 23.959375 156.75854Q23.475 156.9773 22.990625 157.46167Q22.521875 157.93042 22.209375 158.52417Q21.896875 159.1023 21.678125 159.89917Q22.521875 159.32104 23.38125 159.32104Q24.19375 159.32104 24.7875 159.9773Q25.38125 160.63354 25.38125 161.6648Q25.38125 162.6648 24.7875 163.4773Q24.053125 164.4773 22.865625 164.4773Q22.053125 164.4773 21.475 163.93042Q20.365625 162.88354 20.365625 161.21167Q20.365625 160.14917 20.7875 159.19604Q21.225 158.2273 22.00625 157.49292Q22.803125 156.74292 23.521875 156.49292Q24.25625 156.2273 24.896875 156.2273L25.225 156.2273ZM21.584375 160.32104Q21.475 161.11792 21.475 161.6023Q21.475 162.1648 21.678125 162.83667Q21.896875 163.49292 22.303125 163.86792Q22.6 164.14917 23.0375 164.14917Q23.5375 164.14917 23.94375 163.6648Q24.35 163.18042 24.35 162.2898Q24.35 161.2898 23.94375 160.57104Q23.553125 159.83667 22.81875 159.83667Q22.6 159.83667 22.334375 159.93042Q22.084375 160.02417 21.584375 160.32104ZM26.2875 160.4148Q26.2875 159.05542 26.69375 158.07104Q27.1 157.08667 27.7875 156.6023Q28.31875 156.2273 28.88125 156.2273Q29.7875 156.2273 30.521875 157.1648Q31.428125 158.30542 31.428125 160.2898Q31.428125 161.6648 31.021875 162.63354Q30.63125 163.6023 30.00625 164.0398Q29.396875 164.4773 28.81875 164.4773Q27.678125 164.4773 26.928125 163.13354Q26.2875 162.00854 26.2875 160.4148ZM27.428125 160.55542Q27.428125 162.19604 27.834375 163.2273Q28.178125 164.1023 28.834375 164.1023Q29.146875 164.1023 29.490625 163.82104Q29.834375 163.5398 30.00625 162.86792Q30.271875 161.86792 30.271875 160.02417Q30.271875 158.6648 29.990625 157.75854Q29.7875 157.08667 29.44375 156.80542Q29.209375 156.61792 28.865625 156.61792Q28.475 156.61792 28.1625 156.9773Q27.740625 157.46167 27.584375 158.50854Q27.428125 159.5398 27.428125 160.55542Z" fill-rule="nonzero"/><path fill="#000000" d="M11.2875 134.60146Q11.2875 133.24208 11.69375 132.2577Q12.1 131.27333 12.7875 130.78896Q13.31875 130.41396 13.88125 130.41396Q14.7875 130.41396 15.521875 131.35146Q16.428125 132.49208 16.428125 134.47646Q16.428125 135.85146 16.021875 136.8202Q15.63125 137.78896 15.00625 138.22646Q14.396875 138.66396 13.81875 138.66396Q12.678125 138.66396 11.928125 137.3202Q11.2875 136.1952 11.2875 134.60146ZM12.428125 134.74208Q12.428125 136.3827 12.834375 137.41396Q13.178125 138.28896 13.834375 138.28896Q14.146875 138.28896 14.490625 138.0077Q14.834375 137.72646 15.00625 137.05458Q15.271875 136.05458 15.271875 134.21083Q15.271875 132.85146 14.990625 131.9452Q14.7875 131.27333 14.44375 130.99208Q14.209375 130.80458 13.865625 130.80458Q13.475 130.80458 13.1625 131.16396Q12.740625 131.64833 12.584375 132.6952Q12.428125 133.72646 12.428125 134.74208ZM18.35 137.3827Q18.63125 137.3827 18.81875 137.58583Q19.00625 137.77333 19.00625 138.03896Q19.00625 138.30458 18.803125 138.5077Q18.615625 138.6952 18.35 138.6952Q18.084375 138.6952 17.88125 138.5077Q17.69375 138.30458 17.69375 138.03896Q17.69375 137.7577 17.88125 137.5702Q18.084375 137.3827 18.35 137.3827ZM25.225 130.41396L25.225 130.6327Q24.459375 130.71083 23.959375 130.9452Q23.475 131.16396 22.990625 131.64833Q22.521875 132.11708 22.209375 132.71083Q21.896875 133.28896 21.678125 134.08583Q22.521875 133.5077 23.38125 133.5077Q24.19375 133.5077 24.7875 134.16396Q25.38125 134.8202 25.38125 135.85146Q25.38125 136.85146 24.7875 137.66396Q24.053125 138.66396 22.865625 138.66396Q22.053125 138.66396 21.475 138.11708Q20.365625 137.0702 20.365625 135.39833Q20.365625 134.33583 20.7875 133.3827Q21.225 132.41396 22.00625 131.67958Q22.803125 130.92958 23.521875 130.67958Q24.25625 130.41396 24.896875 130.41396L25.225 130.41396ZM21.584375 134.5077Q21.475 135.30458 21.475 135.78896Q21.475 136.35146 21.678125 137.02333Q21.896875 137.67958 22.303125 138.05458Q22.6 138.33583 23.0375 138.33583Q23.5375 138.33583 23.94375 137.85146Q24.35 137.36708 24.35 136.47646Q24.35 135.47646 23.94375 134.7577Q23.553125 134.02333 22.81875 134.02333Q22.6 134.02333 22.334375 134.11708Q22.084375 134.21083 21.584375 134.5077ZM31.428125 135.58583L31.428125 136.42958L30.365625 136.42958L30.365625 138.52333L29.396875 138.52333L29.396875 136.42958L26.0375 136.42958L26.0375 135.67958L29.725 130.41396L30.365625 130.41396L30.365625 135.58583L31.428125 135.58583ZM29.396875 135.58583L29.396875 131.64833L26.615625 135.58583L29.396875 135.58583Z" fill-rule="nonzero"/><path fill="#000000" d="M11.2875 108.788124Q11.2875 107.42875 11.69375 106.444374Q12.1 105.46 12.7875 104.975624Q13.31875 104.600624 13.88125 104.600624Q14.7875 104.600624 15.521875 105.538124Q16.428125 106.67875 16.428125 108.663124Q16.428125 110.038124 16.021875 111.006874Q15.63125 111.975624 15.00625 112.413124Q14.396875 112.850624 13.81875 112.850624Q12.678125 112.850624 11.928125 111.506874Q11.2875 110.381874 11.2875 108.788124ZM12.428125 108.92875Q12.428125 110.569374 12.834375 111.600624Q13.178125 112.475624 13.834375 112.475624Q14.146875 112.475624 14.490625 112.194374Q14.834375 111.913124 15.00625 111.24125Q15.271875 110.24125 15.271875 108.3975Q15.271875 107.038124 14.990625 106.131874Q14.7875 105.46 14.44375 105.17875Q14.209375 104.99125 13.865625 104.99125Q13.475 104.99125 13.1625 105.350624Q12.740625 105.835 12.584375 106.881874Q12.428125 107.913124 12.428125 108.92875ZM18.35 111.569374Q18.63125 111.569374 18.81875 111.7725Q19.00625 111.96 19.00625 112.225624Q19.00625 112.49125 18.803125 112.694374Q18.615625 112.881874 18.35 112.881874Q18.084375 112.881874 17.88125 112.694374Q17.69375 112.49125 17.69375 112.225624Q17.69375 111.944374 17.88125 111.756874Q18.084375 111.569374 18.35 111.569374ZM25.225 104.600624L25.225 104.819374Q24.459375 104.8975 23.959375 105.131874Q23.475 105.350624 22.990625 105.835Q22.521875 106.30375 22.209375 106.8975Q21.896875 107.475624 21.678125 108.2725Q22.521875 107.694374 23.38125 107.694374Q24.19375 107.694374 24.7875 108.350624Q25.38125 109.006874 25.38125 110.038124Q25.38125 111.038124 24.7875 111.850624Q24.053125 112.850624 22.865625 112.850624Q22.053125 112.850624 21.475 112.30375Q20.365625 111.256874 20.365625 109.585Q20.365625 108.5225 20.7875 107.569374Q21.225 106.600624 22.00625 105.86625Q22.803125 105.11625 23.521875 104.86625Q24.25625 104.600624 24.896875 104.600624L25.225 104.600624ZM21.584375 108.694374Q21.475 109.49125 21.475 109.975624Q21.475 110.538124 21.678125 111.21Q21.896875 111.86625 22.303125 112.24125Q22.6 112.5225 23.0375 112.5225Q23.5375 112.5225 23.94375 112.038124Q24.35 111.55375 24.35 110.663124Q24.35 109.663124 23.94375 108.944374Q23.553125 108.21 22.81875 108.21Q22.6 108.21 22.334375 108.30375Q22.084375 108.3975 21.584375 108.694374ZM28.146875 108.71Q27.209375 107.92875 26.928125 107.46Q26.6625 106.99125 26.6625 106.49125Q26.6625 105.725624 27.25625 105.163124Q27.865625 104.600624 28.85 104.600624Q29.81875 104.600624 30.396875 105.131874Q30.990625 105.6475 30.990625 106.30375Q30.990625 106.756874 30.6625 107.225624Q30.35 107.67875 29.35 108.30375Q30.38125 109.100624 30.709375 109.569374Q31.1625 110.163124 31.1625 110.819374Q31.1625 111.663124 30.521875 112.256874Q29.88125 112.850624 28.85 112.850624Q27.709375 112.850624 27.084375 112.1475Q26.584375 111.569374 26.584375 110.8975Q26.584375 110.36625 26.928125 109.850624Q27.2875 109.335 28.146875 108.71ZM29.06875 108.085Q29.771875 107.444374 29.959375 107.085Q30.146875 106.71 30.146875 106.256874Q30.146875 105.631874 29.803125 105.288124Q29.459375 104.944374 28.865625 104.944374Q28.271875 104.944374 27.896875 105.288124Q27.521875 105.631874 27.521875 106.100624Q27.521875 106.3975 27.6625 106.71Q27.81875 107.006874 28.115625 107.288124L29.06875 108.085ZM28.428125 108.92875Q27.94375 109.335 27.709375 109.819374Q27.475 110.30375 27.475 110.86625Q27.475 111.631874 27.88125 112.085Q28.303125 112.538124 28.94375 112.538124Q29.56875 112.538124 29.94375 112.17875Q30.334375 111.819374 30.334375 111.30375Q30.334375 110.881874 30.115625 110.55375Q29.69375 109.92875 28.428125 108.92875Z" fill-rule="nonzero"/><path fill="#000000" d="M11.2875 82.97479Q11.2875 81.61542 11.69375 80.63104Q12.1 79.64667 12.7875 79.16229Q13.31875 78.78729 13.88125 78.78729Q14.7875 78.78729 15.521875 79.72479Q16.428125 80.86542 16.428125 82.84979Q16.428125 84.22479 16.021875 85.19354Q15.63125 86.16229 15.00625 86.59979Q14.396875 87.03729 13.81875 87.03729Q12.678125 87.03729 11.928125 85.69354Q11.2875 84.56854 11.2875 82.97479ZM12.428125 83.11542Q12.428125 84.75604 12.834375 85.78729Q13.178125 86.66229 13.834375 86.66229Q14.146875 86.66229 14.490625 86.38104Q14.834375 86.09979 15.00625 85.42792Q15.271875 84.42792 15.271875 82.58417Q15.271875 81.22479 14.990625 80.31854Q14.7875 79.64667 14.44375 79.36542Q14.209375 79.17792 13.865625 79.17792Q13.475 79.17792 13.1625 79.53729Q12.740625 80.02167 12.584375 81.06854Q12.428125 82.09979 12.428125 83.11542ZM18.35 85.75604Q18.63125 85.75604 18.81875 85.95917Q19.00625 86.14667 19.00625 86.41229Q19.00625 86.67792 18.803125 86.88104Q18.615625 87.06854 18.35 87.06854Q18.084375 87.06854 17.88125 86.88104Q17.69375 86.67792 17.69375 86.41229Q17.69375 86.13104 17.88125 85.94354Q18.084375 85.75604 18.35 85.75604ZM21.053125 78.94354L25.31875 78.94354L25.31875 79.17792L22.6625 87.06854L22.00625 87.06854L24.38125 79.91229L22.19375 79.91229Q21.5375 79.91229 21.25625 80.06854Q20.771875 80.33417 20.459375 80.89667L20.303125 80.83417L21.053125 78.94354ZM31.35 85.36542L30.803125 86.89667L26.115625 86.89667L26.115625 86.67792Q28.178125 84.78729 29.021875 83.59979Q29.865625 82.39667 29.865625 81.41229Q29.865625 80.66229 29.396875 80.17792Q28.94375 79.67792 28.2875 79.67792Q27.709375 79.67792 27.240625 80.02167Q26.771875 80.36542 26.553125 81.03729L26.334375 81.03729Q26.490625 79.94354 27.084375 79.36542Q27.69375 78.78729 28.6 78.78729Q29.56875 78.78729 30.209375 79.41229Q30.865625 80.02167 30.865625 80.86542Q30.865625 81.47479 30.584375 82.08417Q30.146875 83.02167 29.178125 84.08417Q27.725 85.67792 27.35 86.00604L29.428125 86.00604Q30.06875 86.00604 30.31875 85.95917Q30.56875 85.91229 30.771875 85.77167Q30.990625 85.63104 31.13125 85.36542L31.35 85.36542Z" fill-rule="nonzero"/><path fill="#000000" d="M11.2875 57.161457Q11.2875 55.802082 11.69375 54.817707Q12.1 53.833332 12.7875 53.348957Q13.31875 52.973957 13.88125 52.973957Q14.7875 52.973957 15.521875 53.911457Q16.428125 55.052082 16.428125 57.036457Q16.428125 58.411457 16.021875 59.380207Q15.63125 60.348957 15.00625 60.786457Q14.396875 61.223957 13.81875 61.223957Q12.678125 61.223957 11.928125 59.880207Q11.2875 58.755207 11.2875 57.161457ZM12.428125 57.302082Q12.428125 58.942707 12.834375 59.973957Q13.178125 60.848957 13.834375 60.848957Q14.146875 60.848957 14.490625 60.567707Q14.834375 60.286457 15.00625 59.614582Q15.271875 58.614582 15.271875 56.770832Q15.271875 55.411457 14.990625 54.505207Q14.7875 53.833332 14.44375 53.552082Q14.209375 53.364582 13.865625 53.364582Q13.475 53.364582 13.1625 53.723957Q12.740625 54.208332 12.584375 55.255207Q12.428125 56.286457 12.428125 57.302082ZM18.35 59.942707Q18.63125 59.942707 18.81875 60.145832Q19.00625 60.333332 19.00625 60.598957Q19.00625 60.864582 18.803125 61.067707Q18.615625 61.255207 18.35 61.255207Q18.084375 61.255207 17.88125 61.067707Q17.69375 60.864582 17.69375 60.598957Q17.69375 60.317707 17.88125 60.130207Q18.084375 59.942707 18.35 59.942707ZM21.053125 53.130207L25.31875 53.130207L25.31875 53.364582L22.6625 61.255207L22.00625 61.255207L24.38125 54.098957L22.19375 54.098957Q21.5375 54.098957 21.25625 54.255207Q20.771875 54.520832 20.459375 55.083332L20.303125 55.020832L21.053125 53.130207ZM31.225 52.973957L31.225 53.192707Q30.459375 53.270832 29.959375 53.505207Q29.475 53.723957 28.990625 54.208332Q28.521875 54.677082 28.209375 55.270832Q27.896875 55.848957 27.678125 56.645832Q28.521875 56.067707 29.38125 56.067707Q30.19375 56.067707 30.7875 56.723957Q31.38125 57.380207 31.38125 58.411457Q31.38125 59.411457 30.7875 60.223957Q30.053125 61.223957 28.865625 61.223957Q28.053125 61.223957 27.475 60.677082Q26.365625 59.630207 26.365625 57.958332Q26.365625 56.895832 26.7875 55.942707Q27.225 54.973957 28.00625 54.239582Q28.803125 53.489582 29.521875 53.239582Q30.25625 52.973957 30.896875 52.973957L31.225 52.973957ZM27.584375 57.067707Q27.475 57.864582 27.475 58.348957Q27.475 58.911457 27.678125 59.583332Q27.896875 60.239582 28.303125 60.614582Q28.6 60.895832 29.0375 60.895832Q29.5375 60.895832 29.94375 60.411457Q30.35 59.927082 30.35 59.036457Q30.35 58.036457 29.94375 57.317707Q29.553125 56.583332 28.81875 56.583332Q28.6 56.583332 28.334375 56.677082Q28.084375 56.770832 27.584375 57.067707Z" fill-rule="nonzero"/><path fill="#000000" d="M57.48625 195.97812L59.42375 195.04062L59.61125 195.04062L59.61125 201.74374Q59.61125 202.41562 59.658127 202.5875Q59.720627 202.74374 59.8925 202.8375Q60.08 202.91562 60.61125 202.93124L60.61125 203.15L57.626877 203.15L57.626877 202.93124Q58.189377 202.91562 58.345627 202.8375Q58.5175 202.74374 58.58 202.60312Q58.6425 202.4625 58.6425 201.74374L58.6425 197.4625Q58.6425 196.5875 58.595627 196.35312Q58.54875 196.16562 58.439377 196.07187Q58.33 195.97812 58.17375 195.97812Q57.955 195.97812 57.58 196.16562L57.48625 195.97812ZM71.18938 198.00937Q71.97063 198.86874 72.53313 199.30624Q73.11125 199.74374 73.61125 199.9625L73.61125 200.22812Q73.03313 200.50937 72.48625 200.94687Q71.93938 201.38437 71.18938 202.22812L70.73625 202.22812Q71.28313 201.05624 71.8925 200.41562L62.54875 200.41562L62.54875 199.82187L71.8925 199.82187Q71.43938 199.25937 71.2675 198.99374Q71.09563 198.7125 70.75188 198.00937L71.18938 198.00937ZM79.58 201.61874L79.03313 203.15L74.34563 203.15L74.34563 202.93124Q76.40813 201.04062 77.25188 199.85312Q78.09563 198.65 78.09563 197.66562Q78.09563 196.91562 77.62688 196.43124Q77.17375 195.93124 76.5175 195.93124Q75.93938 195.93124 75.47063 196.275Q75.00188 196.61874 74.78313 197.29062L74.56438 197.29062Q74.72063 196.19687 75.31438 195.61874Q75.92375 195.04062 76.83 195.04062Q77.79875 195.04062 78.43938 195.66562Q79.09563 196.275 79.09563 197.11874Q79.09563 197.72812 78.81438 198.3375Q78.37688 199.275 77.40813 200.3375Q75.955 201.93124 75.58 202.25937L77.65813 202.25937Q78.29875 202.25937 78.54875 202.2125Q78.79875 202.16562 79.00188 202.025Q79.22063 201.88437 79.36125 201.61874L79.58 201.61874Z" fill-rule="nonzero"/><path fill="#000000" d="M122.04 201.61874L121.493126 203.15L116.805626 203.15L116.805626 202.93124Q118.868126 201.04062 119.711876 199.85312Q120.555626 198.65 120.555626 197.66562Q120.555626 196.91562 120.086876 196.43124Q119.63375 195.93124 118.9775 195.93124Q118.399376 195.93124 117.930626 196.275Q117.461876 196.61874 117.243126 197.29062L117.024376 197.29062Q117.180626 196.19687 117.774376 195.61874Q118.38375 195.04062 119.29 195.04062Q120.25875 195.04062 120.899376 195.66562Q121.555626 196.275 121.555626 197.11874Q121.555626 197.72812 121.274376 198.3375Q120.836876 199.275 119.868126 200.3375Q118.415 201.93124 118.04 202.25937L120.118126 202.25937Q120.75875 202.25937 121.00875 202.2125Q121.25875 202.16562 121.461876 202.025Q121.680626 201.88437 121.82125 201.61874L122.04 201.61874ZM131.64938 198.00937Q132.43063 198.86874 132.99313 199.30624Q133.57126 199.74374 134.07126 199.9625L134.07126 200.22812Q133.49313 200.50937 132.94626 200.94687Q132.39938 201.38437 131.64938 202.22812L131.19626 202.22812Q131.74313 201.05624 132.35251 200.41562L123.00875 200.41562L123.00875 199.82187L132.35251 199.82187Q131.89938 199.25937 131.72751 198.99374Q131.55563 198.7125 131.21188 198.00937L131.64938 198.00937ZM135.14938 196.7125Q135.49313 195.91562 136.00876 195.47812Q136.52438 195.04062 137.30563 195.04062Q138.25876 195.04062 138.75876 195.66562Q139.14938 196.11874 139.14938 196.65Q139.14938 197.525 138.05563 198.44687Q138.79001 198.72812 139.16501 199.25937Q139.54001 199.79062 139.54001 200.525Q139.54001 201.55624 138.88376 202.30624Q138.04001 203.29062 136.41501 203.29062Q135.60251 203.29062 135.30563 203.0875Q135.02438 202.88437 135.02438 202.66562Q135.02438 202.49374 135.16501 202.36874Q135.30563 202.22812 135.49313 202.22812Q135.64938 202.22812 135.79001 202.275Q135.89938 202.30624 136.24313 202.49374Q136.60251 202.68124 136.72751 202.7125Q136.94626 202.775 137.19626 202.775Q137.79001 202.775 138.22751 202.32187Q138.68063 201.85312 138.68063 201.22812Q138.68063 200.75937 138.47751 200.32187Q138.32126 199.99374 138.13376 199.82187Q137.88376 199.5875 137.44626 199.4Q137.00876 199.2125 136.55563 199.2125L136.36813 199.2125L136.36813 199.025Q136.82126 198.97812 137.29001 198.69687Q137.75876 198.41562 137.96188 198.04062Q138.18063 197.65 138.18063 197.18124Q138.18063 196.5875 137.80563 196.2125Q137.43063 195.8375 136.86813 195.8375Q135.94626 195.8375 135.33688 196.80624L135.14938 196.7125Z" fill-rule="nonzero"/><path fill="#000000" d="M177.60938 196.7125Q177.95312 195.91562 178.46875 195.47812Q178.98438 195.04062 179.76562 195.04062Q180.71875 195.04062 181.21875 195.66562Q181.60938 196.11874 181.60938 196.65Q181.60938 197.525 180.51562 198.44687Q181.25 198.72812 181.625 199.25937Q182.0 199.79062 182.0 200.525Q182.0 201.55624 181.34375 202.30624Q180.5 203.29062 178.875 203.29062Q178.0625 203.29062 177.76562 203.0875Q177.48438 202.88437 177.48438 202.66562Q177.48438 202.49374 177.625 202.36874Q177.76562 202.22812 177.95312 202.22812Q178.10938 202.22812 178.25 202.275Q178.35938 202.30624 178.70312 202.49374Q179.0625 202.68124 179.1875 202.7125Q179.40625 202.775 179.65625 202.775Q180.25 202.775 180.6875 202.32187Q181.14062 201.85312 181.14062 201.22812Q181.14062 200.75937 180.9375 200.32187Q180.78125 199.99374 180.59375 199.82187Q180.34375 199.5875 179.90625 199.4Q179.46875 199.2125 179.01562 199.2125L178.82812 199.2125L178.82812 199.025Q179.28125 198.97812 179.75 198.69687Q180.21875 198.41562 180.42188 198.04062Q180.64062 197.65 180.64062 197.18124Q180.64062 196.5875 180.26562 196.2125Q179.89062 195.8375 179.32812 195.8375Q178.40625 195.8375 177.79688 196.80624L177.60938 196.7125ZM192.10938 198.00937Q192.89062 198.86874 193.45312 199.30624Q194.03125 199.74374 194.53125 199.9625L194.53125 200.22812Q193.95312 200.50937 193.40625 200.94687Q192.85938 201.38437 192.10938 202.22812L191.65625 202.22812Q192.20312 201.05624 192.8125 200.41562L183.46875 200.41562L183.46875 199.82187L192.8125 199.82187Q192.35938 199.25937 192.1875 198.99374Q192.01562 198.7125 191.67188 198.00937L192.10938 198.00937ZM200.57812 200.2125L200.57812 201.05624L199.51562 201.05624L199.51562 203.15L198.54688 203.15L198.54688 201.05624L195.1875 201.05624L195.1875 200.30624L198.875 195.04062L199.51562 195.04062L199.51562 200.2125L200.57812 200.2125ZM198.54688 200.2125L198.54688 196.275L195.76562 200.2125L198.54688 200.2125Z" fill-rule="nonzero"/><path fill="#000000" d="M243.03813 200.2125L243.03813 201.05624L241.97563 201.05624L241.97563 203.15L241.00688 203.15L241.00688 201.05624L237.6475 201.05624L237.6475 200.30624L241.335 195.04062L241.97563 195.04062L241.97563 200.2125L243.03813 200.2125ZM241.00688 200.2125L241.00688 196.275L238.22563 200.2125L241.00688 200.2125ZM252.56938 198.00937Q253.35063 198.86874 253.91313 199.30624Q254.49126 199.74374 254.99126 199.9625L254.99126 200.22812Q254.41313 200.50937 253.86626 200.94687Q253.31938 201.38437 252.56938 202.22812L252.11626 202.22812Q252.66313 201.05624 253.2725 200.41562L243.92876 200.41562L243.92876 199.82187L253.2725 199.82187Q252.81938 199.25937 252.6475 198.99374Q252.47563 198.7125 252.13188 198.00937L252.56938 198.00937ZM260.66315 195.19687L260.21002 196.19687L257.8194 196.19687L257.30377 197.25937Q258.85065 197.49374 259.7569 198.41562Q260.53815 199.2125 260.53815 200.29062Q260.53815 200.91562 260.28815 201.4625Q260.03815 201.99374 259.64752 202.36874Q259.2569 202.74374 258.78815 202.9625Q258.11627 203.29062 257.39752 203.29062Q256.67877 203.29062 256.35065 203.05624Q256.03815 202.80624 256.03815 202.50937Q256.03815 202.35312 256.16315 202.22812Q256.30377 202.0875 256.5069 202.0875Q256.66315 202.0875 256.77252 202.13437Q256.89752 202.18124 257.16315 202.38437Q257.60065 202.68124 258.05377 202.68124Q258.74127 202.68124 259.2569 202.16562Q259.77252 201.65 259.77252 200.9Q259.77252 200.18124 259.30377 199.55624Q258.85065 198.93124 258.03815 198.60312Q257.39752 198.3375 256.30377 198.29062L257.8194 195.19687L260.66315 195.19687Z" fill-rule="nonzero"/><path fill="#000000" d="M303.12314 195.19687L302.67 196.19687L300.2794 196.19687L299.76376 197.25937Q301.31064 197.49374 302.2169 198.41562Q302.99814 199.2125 302.99814 200.29062Q302.99814 200.91562 302.74814 201.4625Q302.49814 201.99374 302.1075 202.36874Q301.7169 202.74374 301.24814 202.9625Q300.57626 203.29062 299.8575 203.29062Q299.13876 203.29062 298.81064 203.05624Q298.49814 202.80624 298.49814 202.50937Q298.49814 202.35312 298.62314 202.22812Q298.76376 202.0875 298.9669 202.0875Q299.12314 202.0875 299.2325 202.13437Q299.3575 202.18124 299.62314 202.38437Q300.06064 202.68124 300.51376 202.68124Q301.20126 202.68124 301.7169 202.16562Q302.2325 201.65 302.2325 200.9Q302.2325 200.18124 301.76376 199.55624Q301.31064 198.93124 300.49814 198.60312Q299.8575 198.3375 298.76376 198.29062L300.2794 195.19687L303.12314 195.19687ZM313.0294 198.00937Q313.81064 198.86874 314.37314 199.30624Q314.95126 199.74374 315.45126 199.9625L315.45126 200.22812Q314.87314 200.50937 314.32626 200.94687Q313.7794 201.38437 313.0294 202.22812L312.57626 202.22812Q313.12314 201.05624 313.7325 200.41562L304.38876 200.41562L304.38876 199.82187L313.7325 199.82187Q313.2794 199.25937 313.1075 198.99374Q312.93564 198.7125 312.5919 198.00937L313.0294 198.00937ZM321.295 195.04062L321.295 195.25937Q320.5294 195.3375 320.0294 195.57187Q319.545 195.79062 319.06064 196.275Q318.5919 196.74374 318.2794 197.3375Q317.9669 197.91562 317.74814 198.7125Q318.5919 198.13437 319.45126 198.13437Q320.26376 198.13437 320.8575 198.79062Q321.45126 199.44687 321.45126 200.47812Q321.45126 201.47812 320.8575 202.29062Q320.12314 203.29062 318.93564 203.29062Q318.12314 203.29062 317.545 202.74374Q316.43564 201.69687 316.43564 200.025Q316.43564 198.9625 316.8575 198.00937Q317.295 197.04062 318.07626 196.30624Q318.87314 195.55624 319.5919 195.30624Q320.32626 195.04062 320.9669 195.04062L321.295 195.04062ZM317.6544 199.13437Q317.545 199.93124 317.545 200.41562Q317.545 200.97812 317.74814 201.65Q317.9669 202.30624 318.37314 202.68124Q318.67 202.9625 319.1075 202.9625Q319.6075 202.9625 320.01376 202.47812Q320.42 201.99374 320.42 201.10312Q320.42 200.10312 320.01376 199.38437Q319.62314 198.65 318.88876 198.65Q318.67 198.65 318.4044 198.74374Q318.1544 198.8375 317.6544 199.13437Z" fill-rule="nonzero"/><path fill="#156082" d="M31.5 17.85C31.5 21.163708 28.81371 23.85 25.5 23.85C22.18629 23.85 19.5 21.163708 19.5 17.85C19.5 14.536291 22.18629 11.85 25.5 11.85C28.81371 11.85 31.5 14.536291 31.5 17.85Z" fill-rule="nonzero"/><path fill="#1a1a1a" d="M46.859375 13.725L47.078125 16.225L46.859375 16.225Q46.5625 15.2875 46.0625 14.81875Q45.359375 14.13125 44.234375 14.13125Q42.71875 14.13125 41.9375 15.334375Q41.265625 16.35 41.265625 17.740625Q41.265625 18.88125 41.703125 19.81875Q42.15625 20.75625 42.859375 21.19375Q43.578125 21.63125 44.328125 21.63125Q44.765625 21.63125 45.171875 21.521875Q45.578125 21.4125 45.96875 21.19375L45.96875 18.896875Q45.96875 18.303125 45.875 18.115625Q45.78125 17.928125 45.59375 17.834375Q45.40625 17.740625 44.921875 17.740625L44.921875 17.50625L48.0 17.50625L48.0 17.740625L47.84375 17.740625Q47.390625 17.740625 47.21875 18.0375Q47.109375 18.25625 47.109375 18.896875L47.109375 21.334375Q46.4375 21.69375 45.78125 21.865625Q45.125 22.0375 44.3125 22.0375Q42.015625 22.0375 40.8125 20.553125Q39.921875 19.44375 39.921875 18.00625Q39.921875 16.94375 40.421875 15.990625Q41.03125 14.85 42.0625 14.225Q42.9375 13.725 44.125 13.725Q44.5625 13.725 44.90625 13.803125Q45.265625 13.865625 45.921875 14.1Q46.25 14.225 46.359375 14.225Q46.46875 14.225 46.546875 14.13125Q46.625 14.021875 46.65625 13.725L46.859375 13.725ZM50.453125 16.31875L50.453125 17.5375Q51.125 16.31875 51.828125 16.31875Q52.15625 16.31875 52.359375 16.521875Q52.578125 16.709375 52.578125 16.975Q52.578125 17.209375 52.421875 17.365625Q52.265625 17.521875 52.0625 17.521875Q51.859375 17.521875 51.59375 17.31875Q51.34375 17.115625 51.21875 17.115625Q51.109375 17.115625 50.984375 17.225Q50.734375 17.475 50.453125 18.021875L50.453125 20.6Q50.453125 21.0375 50.5625 21.271875Q50.640625 21.428125 50.828125 21.5375Q51.015625 21.63125 51.390625 21.63125L51.390625 21.85L48.640625 21.85L48.640625 21.63125Q49.046875 21.63125 49.25 21.50625Q49.390625 21.4125 49.453125 21.209375Q49.484375 21.115625 49.484375 20.646875L49.484375 18.56875Q49.484375 17.63125 49.4375 17.459375Q49.40625 17.271875 49.296875 17.19375Q49.203125 17.1 49.046875 17.1Q48.859375 17.1 48.640625 17.19375L48.578125 16.975L50.203125 16.31875L50.453125 16.31875ZM58.078125 18.9125L58.078125 19.75625L57.015625 19.75625L57.015625 21.85L56.046875 21.85L56.046875 19.75625L52.6875 19.75625L52.6875 19.00625L56.375 13.740625L57.015625 13.740625L57.015625 18.9125L58.078125 18.9125ZM56.046875 18.9125L56.046875 14.975L53.265625 18.9125L56.046875 18.9125Z" fill-rule="nonzero"/><path fill="#e97132" d="M86.5 17.85C86.5 21.163708 83.813705 23.85 80.5 23.85C77.186295 23.85 74.5 21.163708 74.5 17.85C74.5 14.536291 77.186295 11.85 80.5 11.85C83.813705 11.85 86.5 14.536291 86.5 17.85Z" fill-rule="nonzero"/><path fill="#1a1a1a" d="M96.96875 18.13125L96.96875 20.44375Q96.96875 21.19375 97.125 21.38125Q97.34375 21.63125 97.796875 21.63125L98.109375 21.63125L98.109375 21.85L94.703125 21.85L94.703125 21.63125L95.0 21.63125Q95.5 21.63125 95.71875 21.303125Q95.84375 21.115625 95.84375 20.44375L95.84375 15.303125Q95.84375 14.553125 95.671875 14.38125Q95.453125 14.115625 95.0 14.115625L94.703125 14.115625L94.703125 13.896875L97.609375 13.896875Q98.671875 13.896875 99.28125 14.13125Q99.90625 14.35 100.328125 14.865625Q100.75 15.38125 100.75 16.1Q100.75 17.06875 100.109375 17.678125Q99.46875 18.2875 98.296875 18.2875Q98.015625 18.2875 97.671875 18.25625Q97.34375 18.209375 96.96875 18.13125ZM96.96875 17.7875Q97.265625 17.85 97.5 17.88125Q97.75 17.9125 97.921875 17.9125Q98.53125 17.9125 98.96875 17.44375Q99.421875 16.975 99.421875 16.225Q99.421875 15.709375 99.203125 15.271875Q99.0 14.81875 98.609375 14.6Q98.21875 14.38125 97.734375 14.38125Q97.4375 14.38125 96.96875 14.490625L96.96875 17.7875ZM107.078125 18.9125L107.078125 19.75625L106.015625 19.75625L106.015625 21.85L105.046875 21.85L105.046875 19.75625L101.6875 19.75625L101.6875 19.00625L105.375 13.740625L106.015625 13.740625L106.015625 18.9125L107.078125 18.9125ZM105.046875 18.9125L105.046875 14.975L102.265625 18.9125L105.046875 18.9125ZM109.46875 17.459375Q110.0625 16.88125 110.15625 16.7875Q110.421875 16.56875 110.71875 16.44375Q111.03125 16.31875 111.328125 16.31875Q111.84375 16.31875 112.203125 16.615625Q112.5625 16.9125 112.6875 17.459375Q113.296875 16.75625 113.703125 16.5375Q114.125 16.31875 114.5625 16.31875Q114.984375 16.31875 115.3125 16.5375Q115.65625 16.75625 115.84375 17.25625Q115.96875 17.6 115.96875 18.334375L115.96875 20.63125Q115.96875 21.146875 116.046875 21.334375Q116.109375 21.459375 116.265625 21.553125Q116.421875 21.63125 116.78125 21.63125L116.78125 21.85L114.140625 21.85L114.140625 21.63125L114.25 21.63125Q114.59375 21.63125 114.78125 21.50625Q114.921875 21.4125 114.984375 21.209375Q115.0 21.1 115.0 20.63125L115.0 18.334375Q115.0 17.678125 114.84375 17.396875Q114.609375 17.021875 114.109375 17.021875Q113.796875 17.021875 113.484375 17.178125Q113.171875 17.334375 112.734375 17.75625L112.71875 17.81875L112.734375 18.06875L112.734375 20.63125Q112.734375 21.19375 112.78125 21.334375Q112.84375 21.459375 113.015625 21.553125Q113.1875 21.63125 113.59375 21.63125L113.59375 21.85L110.890625 21.85L110.890625 21.63125Q111.328125 21.63125 111.5 21.5375Q111.671875 21.428125 111.734375 21.209375Q111.765625 21.115625 111.765625 20.63125L111.765625 18.334375Q111.765625 17.678125 111.5625 17.38125Q111.3125 17.00625 110.84375 17.00625Q110.53125 17.00625 110.21875 17.178125Q109.734375 17.44375 109.46875 17.75625L109.46875 20.63125Q109.46875 21.1625 109.53125 21.31875Q109.609375 21.475 109.75 21.553125Q109.90625 21.63125 110.34375 21.63125L110.34375 21.85L107.6875 21.85L107.6875 21.63125Q108.0625 21.63125 108.203125 21.553125Q108.34375 21.475 108.421875 21.303125Q108.5 21.13125 108.5 20.63125L108.5 18.584375Q108.5 17.69375 108.453125 17.44375Q108.40625 17.25625 108.3125 17.178125Q108.234375 17.1 108.078125 17.1Q107.921875 17.1 107.6875 17.19375L107.59375 16.975L109.21875 16.31875L109.46875 16.31875L109.46875 17.459375Z" fill-rule="nonzero"/><path fill="#196b24" d="M144.5 17.85C144.5 21.163708 141.8137 23.85 138.5 23.85C135.1863 23.85 132.5 21.163708 132.5 17.85C132.5 14.536291 135.1863 11.85 138.5 11.85C141.8137 11.85 144.5 14.536291 144.5 17.85Z" fill-rule="nonzero"/><path fill="#1a1a1a" d="M159.375 19.646875L159.57812 19.69375L158.89062 21.85L152.73438 21.85L152.73438 21.63125L153.04688 21.63125Q153.54688 21.63125 153.76562 21.303125Q153.89062 21.115625 153.89062 20.44375L153.89062 15.303125Q153.89062 14.56875 153.71875 14.38125Q153.48438 14.115625 153.04688 14.115625L152.73438 14.115625L152.73438 13.896875L156.34375 13.896875L156.34375 14.115625Q155.70312 14.115625 155.45312 14.240625Q155.20312 14.365625 155.10938 14.553125Q155.01562 14.740625 155.01562 15.44375L155.01562 20.44375Q155.01562 20.928125 155.10938 21.1Q155.17188 21.225 155.3125 21.2875Q155.46875 21.35 156.23438 21.35L156.8125 21.35Q157.73438 21.35 158.09375 21.209375Q158.46875 21.06875 158.76562 20.740625Q159.07812 20.396875 159.375 19.646875ZM160.10938 15.4125Q160.45312 14.615625 160.96875 14.178125Q161.48438 13.740625 162.26562 13.740625Q163.21875 13.740625 163.71875 14.365625Q164.10938 14.81875 164.10938 15.35Q164.10938 16.225 163.01562 17.146875Q163.75 17.428125 164.125 17.959375Q164.5 18.490625 164.5 19.225Q164.5 20.25625 163.84375 21.00625Q163.0 21.990625 161.375 21.990625Q160.5625 21.990625 160.26562 21.7875Q159.98438 21.584375 159.98438 21.365625Q159.98438 21.19375 160.125 21.06875Q160.26562 20.928125 160.45312 20.928125Q160.60938 20.928125 160.75 20.975Q160.85938 21.00625 161.20312 21.19375Q161.5625 21.38125 161.6875 21.4125Q161.90625 21.475 162.15625 21.475Q162.75 21.475 163.1875 21.021875Q163.64062 20.553125 163.64062 19.928125Q163.64062 19.459375 163.4375 19.021875Q163.28125 18.69375 163.09375 18.521875Q162.84375 18.2875 162.40625 18.1Q161.96875 17.9125 161.51562 17.9125L161.32812 17.9125L161.32812 17.725Q161.78125 17.678125 162.25 17.396875Q162.71875 17.115625 162.92188 16.740625Q163.14062 16.35 163.14062 15.88125Q163.14062 15.2875 162.76562 14.9125Q162.39062 14.5375 161.82812 14.5375Q160.90625 14.5375 160.29688 15.50625L160.10938 15.4125ZM167.0 20.709375Q167.28125 20.709375 167.46875 20.9125Q167.65625 21.1 167.65625 21.365625Q167.65625 21.63125 167.45312 21.834375Q167.26562 22.021875 167.0 22.021875Q166.73438 22.021875 166.53125 21.834375Q166.34375 21.63125 166.34375 21.365625Q166.34375 21.084375 166.53125 20.896875Q166.73438 20.709375 167.0 20.709375ZM174.0 20.31875L173.45312 21.85L168.76562 21.85L168.76562 21.63125Q170.82812 19.740625 171.67188 18.553125Q172.51562 17.35 172.51562 16.365625Q172.51562 15.615625 172.04688 15.13125Q171.59375 14.63125 170.9375 14.63125Q170.35938 14.63125 169.89062 14.975Q169.42188 15.31875 169.20312 15.990625L168.98438 15.990625Q169.14062 14.896875 169.73438 14.31875Q170.34375 13.740625 171.25 13.740625Q172.21875 13.740625 172.85938 14.365625Q173.51562 14.975 173.51562 15.81875Q173.51562 16.428125 173.23438 17.0375Q172.79688 17.975 171.82812 19.0375Q170.375 20.63125 170.0 20.959375L172.07812 20.959375Q172.71875 20.959375 172.96875 20.9125Q173.21875 20.865625 173.42188 20.725Q173.64062 20.584375 173.78125 20.31875L174.0 20.31875Z" fill-rule="nonzero"/><path fill="#0f9ed5" d="M202.5 17.85C202.5 21.163708 199.8137 23.85 196.5 23.85C193.1863 23.85 190.5 21.163708 190.5 17.85C190.5 14.536291 193.1863 11.85 196.5 11.85C199.8137 11.85 202.5 14.536291 202.5 17.85Z" fill-rule="nonzero"/><path fill="#1a1a1a" d="M215.40625 21.85L212.34375 15.1625L212.34375 20.475Q212.34375 21.209375 212.5 21.38125Q212.71875 21.63125 213.1875 21.63125L213.46875 21.63125L213.46875 21.85L210.70312 21.85L210.70312 21.63125L210.98438 21.63125Q211.48438 21.63125 211.70312 21.334375Q211.82812 21.146875 211.82812 20.475L211.82812 15.2875Q211.82812 14.75625 211.70312 14.521875Q211.625 14.35 211.40625 14.240625Q211.1875 14.115625 210.70312 14.115625L210.70312 13.896875L212.95312 13.896875L215.82812 20.115625L218.67188 13.896875L220.92188 13.896875L220.92188 14.115625L220.64062 14.115625Q220.14062 14.115625 219.92188 14.428125Q219.79688 14.615625 219.79688 15.2875L219.79688 20.475Q219.79688 21.209375 219.95312 21.38125Q220.17188 21.63125 220.64062 21.63125L220.92188 21.63125L220.92188 21.85L217.54688 21.85L217.54688 21.63125L217.82812 21.63125Q218.32812 21.63125 218.54688 21.334375Q218.67188 21.146875 218.67188 20.475L218.67188 15.1625L215.60938 21.85L215.40625 21.85ZM228.0 13.725L228.0 16.475L227.78125 16.475Q227.6875 15.678125 227.40625 15.209375Q227.14062 14.740625 226.625 14.475Q226.125 14.19375 225.59375 14.19375Q224.98438 14.19375 224.57812 14.56875Q224.1875 14.928125 224.1875 15.4125Q224.1875 15.771875 224.4375 16.06875Q224.79688 16.50625 226.15625 17.240625Q227.28125 17.834375 227.6875 18.1625Q228.09375 18.475 228.3125 18.9125Q228.53125 19.35 228.53125 19.81875Q228.53125 20.725 227.82812 21.38125Q227.125 22.0375 226.03125 22.0375Q225.6875 22.0375 225.375 21.975Q225.20312 21.94375 224.625 21.771875Q224.04688 21.584375 223.90625 21.584375Q223.75 21.584375 223.65625 21.678125Q223.57812 21.75625 223.54688 22.0375L223.32812 22.0375L223.32812 19.303125L223.54688 19.303125Q223.70312 20.1625 223.95312 20.584375Q224.21875 21.00625 224.73438 21.2875Q225.26562 21.56875 225.90625 21.56875Q226.64062 21.56875 227.0625 21.19375Q227.48438 20.803125 227.48438 20.271875Q227.48438 19.975 227.32812 19.678125Q227.17188 19.38125 226.82812 19.13125Q226.59375 18.94375 225.57812 18.38125Q224.5625 17.803125 224.125 17.475Q223.70312 17.13125 223.46875 16.725Q223.25 16.303125 223.25 15.81875Q223.25 14.959375 223.90625 14.35Q224.5625 13.725 225.57812 13.725Q226.20312 13.725 226.92188 14.0375Q227.25 14.178125 227.375 14.178125Q227.53125 14.178125 227.625 14.084375Q227.73438 13.990625 227.78125 13.725L228.0 13.725Z" fill-rule="nonzero"/><path fill="#a02b93" d="M256.5 17.85C256.5 21.163708 253.8137 23.85 250.5 23.85C247.1863 23.85 244.5 21.163708 244.5 17.85C244.5 14.536291 247.1863 11.85 250.5 11.85C253.8137 11.85 256.5 14.536291 256.5 17.85Z" fill-rule="nonzero"/><path fill="#1a1a1a" d="M271.85938 13.725L272.07812 16.225L271.85938 16.225Q271.5625 15.2875 271.0625 14.81875Q270.35938 14.13125 269.23438 14.13125Q267.71875 14.13125 266.9375 15.334375Q266.26562 16.35 266.26562 17.740625Q266.26562 18.88125 266.70312 19.81875Q267.15625 20.75625 267.85938 21.19375Q268.57812 21.63125 269.32812 21.63125Q269.76562 21.63125 270.17188 21.521875Q270.57812 21.4125 270.96875 21.19375L270.96875 18.896875Q270.96875 18.303125 270.875 18.115625Q270.78125 17.928125 270.59375 17.834375Q270.40625 17.740625 269.92188 17.740625L269.92188 17.50625L273.0 17.50625L273.0 17.740625L272.84375 17.740625Q272.39062 17.740625 272.21875 18.0375Q272.10938 18.25625 272.10938 18.896875L272.10938 21.334375Q271.4375 21.69375 270.78125 21.865625Q270.125 22.0375 269.3125 22.0375Q267.01562 22.0375 265.8125 20.553125Q264.92188 19.44375 264.92188 18.00625Q264.92188 16.94375 265.42188 15.990625Q266.03125 14.85 267.0625 14.225Q267.9375 13.725 269.125 13.725Q269.5625 13.725 269.90625 13.803125Q270.26562 13.865625 270.92188 14.1Q271.25 14.225 271.35938 14.225Q271.46875 14.225 271.54688 14.13125Q271.625 14.021875 271.65625 13.725L271.85938 13.725ZM277.89062 13.725Q279.4375 13.725 280.5625 14.896875Q281.70312 16.06875 281.70312 17.834375Q281.70312 19.646875 280.5625 20.85Q279.42188 22.0375 277.79688 22.0375Q276.15625 22.0375 275.03125 20.865625Q273.92188 19.69375 273.92188 17.85Q273.92188 15.959375 275.21875 14.75625Q276.32812 13.725 277.89062 13.725ZM277.78125 14.146875Q276.71875 14.146875 276.0625 14.94375Q275.26562 15.928125 275.26562 17.81875Q275.26562 19.771875 276.09375 20.81875Q276.73438 21.615625 277.78125 21.615625Q278.90625 21.615625 279.625 20.740625Q280.35938 19.865625 280.35938 17.990625Q280.35938 15.94375 279.5625 14.94375Q278.92188 14.146875 277.78125 14.146875Z" fill-rule="nonzero"/><path fill="#4ea72e" d="M310.5 17.85C310.5 21.163708 307.81372 23.85 304.5 23.85C301.18628 23.85 298.5 21.163708 298.5 17.85C298.5 14.536291 301.18628 11.85 304.5 11.85C307.81372 11.85 310.5 14.536291 310.5 17.85Z" fill-rule="nonzero"/><path fill="#1a1a1a" d="M320.96875 18.13125L320.96875 20.44375Q320.96875 21.19375 321.125 21.38125Q321.34375 21.63125 321.79688 21.63125L322.10938 21.63125L322.10938 21.85L318.70312 21.85L318.70312 21.63125L319.0 21.63125Q319.5 21.63125 319.71875 21.303125Q319.84375 21.115625 319.84375 20.44375L319.84375 15.303125Q319.84375 14.553125 319.67188 14.38125Q319.45312 14.115625 319.0 14.115625L318.70312 14.115625L318.70312 13.896875L321.60938 13.896875Q322.67188 13.896875 323.28125 14.13125Q323.90625 14.35 324.32812 14.865625Q324.75 15.38125 324.75 16.1Q324.75 17.06875 324.10938 17.678125Q323.46875 18.2875 322.29688 18.2875Q322.01562 18.2875 321.67188 18.25625Q321.34375 18.209375 320.96875 18.13125ZM320.96875 17.7875Q321.26562 17.85 321.5 17.88125Q321.75 17.9125 321.92188 17.9125Q322.53125 17.9125 322.96875 17.44375Q323.42188 16.975 323.42188 16.225Q323.42188 15.709375 323.20312 15.271875Q323.0 14.81875 322.60938 14.6Q322.21875 14.38125 321.73438 14.38125Q321.4375 14.38125 320.96875 14.490625L320.96875 17.7875ZM331.07812 18.9125L331.07812 19.75625L330.01562 19.75625L330.01562 21.85L329.04688 21.85L329.04688 19.75625L325.6875 19.75625L325.6875 19.00625L329.375 13.740625L330.01562 13.740625L330.01562 18.9125L331.07812 18.9125ZM329.04688 18.9125L329.04688 14.975L326.26562 18.9125L329.04688 18.9125Z" fill-rule="nonzero"/><path fill="#5b90a8" d="M142.0 35.85C142.0 39.163708 139.3137 41.85 136.0 41.85C132.6863 41.85 130.0 39.163708 130.0 35.85C130.0 32.536293 132.6863 29.85 136.0 29.85C139.3137 29.85 142.0 32.536293 142.0 35.85Z" fill-rule="nonzero"/><path fill="#1a1a1a" d="M150.20312 39.85L150.20312 39.63125L150.5 39.63125Q151.01562 39.63125 151.21875 39.303123Q151.34375 39.115623 151.34375 38.44375L151.34375 33.303123Q151.34375 32.56875 151.1875 32.38125Q150.95312 32.115623 150.5 32.115623L150.20312 32.115623L150.20312 31.896873L153.4375 31.896873Q155.21875 31.896873 156.14062 32.303123Q157.07812 32.709373 157.64062 33.6625Q158.20312 34.6 158.20312 35.834373Q158.20312 37.490623 157.20312 38.6Q156.07812 39.85 153.75 39.85L150.20312 39.85ZM152.46875 39.271873Q153.21875 39.44375 153.71875 39.44375Q155.07812 39.44375 155.96875 38.490623Q156.875 37.521873 156.875 35.896873Q156.875 34.240623 155.96875 33.303123Q155.07812 32.35 153.67188 32.35Q153.14062 32.35 152.46875 32.521873L152.46875 39.271873ZM160.40625 32.678123L162.34375 31.740623L162.53125 31.740623L162.53125 38.44375Q162.53125 39.115623 162.57812 39.2875Q162.64062 39.44375 162.8125 39.5375Q163.0 39.615623 163.53125 39.63125L163.53125 39.85L160.54688 39.85L160.54688 39.63125Q161.10938 39.615623 161.26562 39.5375Q161.4375 39.44375 161.5 39.303123Q161.5625 39.1625 161.5625 38.44375L161.5625 34.1625Q161.5625 33.2875 161.51562 33.053123Q161.46875 32.865623 161.35938 32.771873Q161.25 32.678123 161.09375 32.678123Q160.875 32.678123 160.5 32.865623L160.40625 32.678123Z" fill-rule="nonzero"/><path fill="#f09c70" d="M193.0 35.85C193.0 39.163708 190.3137 41.85 187.0 41.85C183.6863 41.85 181.0 39.163708 181.0 35.85C181.0 32.536293 183.6863 29.85 187.0 29.85C190.3137 29.85 193.0 32.536293 193.0 35.85Z" fill-rule="nonzero"/><path fill="#1a1a1a" d="M208.35938 31.724998L208.57812 34.225L208.35938 34.225Q208.0625 33.2875 207.5625 32.81875Q206.85938 32.13125 205.73438 32.13125Q204.21875 32.13125 203.4375 33.334373Q202.76562 34.35 202.76562 35.740623Q202.76562 36.88125 203.20312 37.81875Q203.65625 38.75625 204.35938 39.19375Q205.07812 39.63125 205.82812 39.63125Q206.26562 39.63125 206.67188 39.521873Q207.07812 39.4125 207.46875 39.19375L207.46875 36.896873Q207.46875 36.303123 207.375 36.115623Q207.28125 35.928123 207.09375 35.834373Q206.90625 35.740623 206.42188 35.740623L206.42188 35.50625L209.5 35.50625L209.5 35.740623L209.34375 35.740623Q208.89062 35.740623 208.71875 36.0375Q208.60938 36.25625 208.60938 36.896873L208.60938 39.334373Q207.9375 39.69375 207.28125 39.865623Q206.625 40.0375 205.8125 40.0375Q203.51562 40.0375 202.3125 38.553123Q201.42188 37.44375 201.42188 36.00625Q201.42188 34.94375 201.92188 33.990623Q202.53125 32.85 203.5625 32.225Q204.4375 31.724998 205.625 31.724998Q206.0625 31.724998 206.40625 31.803123Q206.76562 31.865623 207.42188 32.1Q207.75 32.225 207.85938 32.225Q207.96875 32.225 208.04688 32.13125Q208.125 32.021873 208.15625 31.724998L208.35938 31.724998ZM211.28125 36.50625Q211.26562 37.69375 211.85938 38.38125Q212.4375 39.053123 213.23438 39.053123Q213.76562 39.053123 214.15625 38.771873Q214.54688 38.475 214.8125 37.771873L214.98438 37.896873Q214.85938 38.69375 214.26562 39.365623Q213.6875 40.021873 212.79688 40.021873Q211.82812 40.021873 211.14062 39.271873Q210.45312 38.50625 210.45312 37.240623Q210.45312 35.865623 211.15625 35.1Q211.85938 34.31875 212.92188 34.31875Q213.82812 34.31875 214.40625 34.9125Q214.98438 35.50625 214.98438 36.50625L211.28125 36.50625ZM211.28125 36.1625L213.76562 36.1625Q213.73438 35.646873 213.64062 35.44375Q213.5 35.115623 213.20312 34.928123Q212.90625 34.740623 212.59375 34.740623Q212.10938 34.740623 211.71875 35.115623Q211.34375 35.490623 211.28125 36.1625ZM215.60938 33.4125Q215.95312 32.615623 216.46875 32.178123Q216.98438 31.740623 217.76562 31.740623Q218.71875 31.740623 219.21875 32.365623Q219.60938 32.81875 219.60938 33.35Q219.60938 34.225 218.51562 35.146873Q219.25 35.428123 219.625 35.959373Q220.0 36.490623 220.0 37.225Q220.0 38.25625 219.34375 39.00625Q218.5 39.990623 216.875 39.990623Q216.0625 39.990623 215.76562 39.7875Q215.48438 39.584373 215.48438 39.365623Q215.48438 39.19375 215.625 39.06875Q215.76562 38.928123 215.95312 38.928123Q216.10938 38.928123 216.25 38.975Q216.35938 39.00625 216.70312 39.19375Q217.0625 39.38125 217.1875 39.4125Q217.40625 39.475 217.65625 39.475Q218.25 39.475 218.6875 39.021873Q219.14062 38.553123 219.14062 37.928123Q219.14062 37.459373 218.9375 37.021873Q218.78125 36.69375 218.59375 36.521873Q218.34375 36.2875 217.90625 36.1Q217.46875 35.9125 217.01562 35.9125L216.82812 35.9125L216.82812 35.725Q217.28125 35.678123 217.75 35.396873Q218.21875 35.115623 218.42188 34.740623Q218.64062 34.35 218.64062 33.88125Q218.64062 33.2875 218.26562 32.9125Q217.89062 32.5375 217.32812 32.5375Q216.40625 32.5375 215.79688 33.50625L215.60938 33.4125Z" fill-rule="nonzero"/></svg>