<svg version="1.1" viewBox="0.0 0.0 351.0 217.0" fill="none" stroke="none" stroke-linecap="square" stroke-miterlimit="10" width="351" height="217" xmlns:xlink="http://www.w3.org/1999/xlink" xmlns="http://www.w3.org/2000/svg"><path fill="#ffffff" d="M0 0L351.0 0L351.0 217.0L0 217.0L0 0Z" fill-rule="nonzero"/><path stroke="#cccccc" stroke-width="1.0" stroke-linecap="butt" d="M37.5 186.5L340.5 186.5" fill-rule="nonzero"/><path stroke="#cccccc" stroke-width="1.0" stroke-linecap="butt" d="M37.5 171.5L340.5 171.5" fill-rule="nonzero"/><path stroke="#cccccc" stroke-width="1.0" stroke-linecap="butt" d="M37.5 157.5L340.5 157.5" fill-rule="nonzero"/><path stroke="#cccccc" stroke-width="1.0" stroke-linecap="butt" d="M37.5 143.5L340.5 143.5" fill-rule="nonzero"/><path stroke="#cccccc" stroke-width="1.0" stroke-linecap="butt" d="M37.5 128.5L340.5 128.5" fill-rule="nonzero"/><path stroke="#cccccc" stroke-width="1.0" stroke-linecap="butt" d="M37.5 114.5L340.5 114.5" fill-rule="nonzero"/><path stroke="#cccccc" stroke-width="1.0" stroke-linecap="butt" d="M37.5 100.5L340.5 100.5" fill-rule="nonzero"/><path stroke="#cccccc" stroke-width="1.0" stroke-linecap="butt" d="M37.5 85.5L340.5 85.5" fill-rule="nonzero"/><path stroke="#cccccc" stroke-width="1.0" stroke-linecap="butt" d="M37.5 71.5L340.5 71.5" fill-rule="nonzero"/><path stroke="#cccccc" stroke-width="1.0" stroke-linecap="butt" d="M37.5 57.5L340.5 57.5" fill-rule="nonzero"/><clipPath id="id_0"><path d="M37.85 57.083332L340.15 57.083332L340.15 186.15L37.85 186.15L37.85 57.083332Z" clip-rule="nonzero"/></clipPath><path stroke="#156082" stroke-width="2.0" stroke-linecap="butt" clip-path="url(#id_0)" d="M68.08 78.594444L128.54 128.78703L189.0 128.78703L249.46 64.2537L309.92 114.4463" fill-rule="nonzero"/><path stroke="#e97132" stroke-width="2.0" stroke-linecap="butt" clip-path="url(#id_0)" d="M68.08 171.80927L128.54 164.63889L189.0 171.80927L249.46 150.29814L309.92 150.29814" fill-rule="nonzero"/><path stroke="#196b24" stroke-width="2.0" stroke-linecap="butt" clip-path="url(#id_0)" d="M68.08 128.78703L128.54 135.95741L189.0 143.12778L249.46 107.275925L309.92 121.61667" fill-rule="nonzero"/><path stroke="#0f9ed5" stroke-width="2.0" stroke-linecap="butt" clip-path="url(#id_0)" d="M68.08 100.10555L128.54 107.275925L189.0 121.61667L249.46 92.93519L309.92 107.275925" fill-rule="nonzero"/><path stroke="#a02b93" stroke-width="2.0" stroke-linecap="butt" clip-path="url(#id_0)" d="M68.08 143.12778L128.54 157.46852L189.0 164.63889L249.46 143.12778L309.92 143.12778" fill-rule="nonzero"/><path stroke="#4ea72e" stroke-width="2.0" stroke-linecap="butt" clip-path="url(#id_0)" d="M68.08 107.275925L128.54 114.4463L189.0 128.78703L249.46 107.275925L309.92 114.4463" fill-rule="nonzero"/><path stroke="#5b90a8" stroke-width="2.0" stroke-linecap="butt" clip-path="url(#id_0)" d="M68.08 85.76482L128.54 143.12778L189.0 157.46852L249.46 121.61667L309.92 107.275925" fill-rule="nonzero"/><path stroke="#f09c70" stroke-width="2.0" stroke-linecap="butt" clip-path="url(#id_0)" d="M68.08 143.12778L128.54 157.46852L189.0 143.12778L249.46 143.12778L309.92 143.12778" fill-rule="nonzero"/><path fill="#156082" clip-path="url(#id_0)" d="M71.08 78.594444C71.08 80.2513 69.736855 81.594444 68.08 81.594444C66.42315 81.594444 65.08 80.2513 65.08 78.594444C65.08 76.93759 66.42315 75.594444 68.08 75.594444C69.736855 75.594444 71.08 76.93759 71.08 78.594444Z" fill-rule="nonzero"/><path fill="#156082" clip-path="url(#id_0)" d="M131.54 128.78703C131.54 130.4439 130.19685 131.78703 128.54 131.78703C126.88315 131.78703 125.54 130.4439 125.54 128.78703C125.54 127.13018 126.88315 125.78704 128.54 125.78704C130.19685 125.78704 131.54 127.13018 131.54 128.78703Z" fill-rule="nonzero"/><path fill="#156082" clip-path="url(#id_0)" d="M192.0 128.78703C192.0 130.4439 190.65686 131.78703 189.0 131.78703C187.34314 131.78703 186.0 130.4439 186.0 128.78703C186.0 127.13018 187.34314 125.78704 189.0 125.78704C190.65686 125.78704 192.0 127.13018 192.0 128.78703Z" fill-rule="nonzero"/><path fill="#156082" clip-path="url(#id_0)" d="M252.46 64.2537C252.46 65.91056 251.11685 67.2537 249.46 67.2537C247.80315 67.2537 246.46 65.91056 246.46 64.2537C246.46 62.59685 247.80315 61.253704 249.46 61.253704C251.11685 61.253704 252.46 62.59685 252.46 64.2537Z" fill-rule="nonzero"/><path fill="#156082" clip-path="url(#id_0)" d="M312.92 114.4463C312.92 116.10315 311.57684 117.4463 309.92 117.4463C308.26315 117.4463 306.92 116.10315 306.92 114.4463C306.92 112.789444 308.26315 111.4463 309.92 111.4463C311.57684 111.4463 312.92 112.789444 312.92 114.4463Z" fill-rule="nonzero"/><path fill="#e97132" clip-path="url(#id_0)" d="M71.08 171.80927C71.08 173.46611 69.736855 174.80927 68.08 174.80927C66.42315 174.80927 65.08 173.46611 65.08 171.80927C65.08 170.1524 66.42315 168.80927 68.08 168.80927C69.736855 168.80927 71.08 170.1524 71.08 171.80927Z" fill-rule="nonzero"/><path fill="#e97132" clip-path="url(#id_0)" d="M131.54 164.63889C131.54 166.29575 130.19685 167.63889 128.54 167.63889C126.88315 167.63889 125.54 166.29575 125.54 164.63889C125.54 162.98204 126.88315 161.63889 128.54 161.63889C130.19685 161.63889 131.54 162.98204 131.54 164.63889Z" fill-rule="nonzero"/><path fill="#e97132" clip-path="url(#id_0)" d="M192.0 171.80927C192.0 173.46611 190.65686 174.80927 189.0 174.80927C187.34314 174.80927 186.0 173.46611 186.0 171.80927C186.0 170.1524 187.34314 168.80927 189.0 168.80927C190.65686 168.80927 192.0 170.1524 192.0 171.80927Z" fill-rule="nonzero"/><path fill="#e97132" clip-path="url(#id_0)" d="M252.46 150.29814C252.46 151.955 251.11685 153.29814 249.46 153.29814C247.80315 153.29814 246.46 151.955 246.46 150.29814C246.46 148.6413 247.80315 147.29814 249.46 147.29814C251.11685 147.29814 252.46 148.6413 252.46 150.29814Z" fill-rule="nonzero"/><path fill="#e97132" clip-path="url(#id_0)" d="M312.92 150.29814C312.92 151.955 311.57684 153.29814 309.92 153.29814C308.26315 153.29814 306.92 151.955 306.92 150.29814C306.92 148.6413 308.26315 147.29814 309.92 147.29814C311.57684 147.29814 312.92 148.6413 312.92 150.29814Z" fill-rule="nonzero"/><path fill="#196b24" clip-path="url(#id_0)" d="M71.08 128.78703C71.08 130.4439 69.736855 131.78703 68.08 131.78703C66.42315 131.78703 65.08 130.4439 65.08 128.78703C65.08 127.13018 66.42315 125.78704 68.08 125.78704C69.736855 125.78704 71.08 127.13018 71.08 128.78703Z" fill-rule="nonzero"/><path fill="#196b24" clip-path="url(#id_0)" d="M131.54 135.95741C131.54 137.61426 130.19685 138.95741 128.54 138.95741C126.88315 138.95741 125.54 137.61426 125.54 135.95741C125.54 134.30055 126.88315 132.95741 128.54 132.95741C130.19685 132.95741 131.54 134.30055 131.54 135.95741Z" fill-rule="nonzero"/><path fill="#196b24" clip-path="url(#id_0)" d="M192.0 143.12778C192.0 144.78464 190.65686 146.12778 189.0 146.12778C187.34314 146.12778 186.0 144.78464 186.0 143.12778C186.0 141.47092 187.34314 140.12778 189.0 140.12778C190.65686 140.12778 192.0 141.47092 192.0 143.12778Z" fill-rule="nonzero"/><path fill="#196b24" clip-path="url(#id_0)" d="M252.46 107.275925C252.46 108.93278 251.11685 110.275925 249.46 110.275925C247.80315 110.275925 246.46 108.93278 246.46 107.275925C246.46 105.61907 247.80315 104.275925 249.46 104.275925C251.11685 104.275925 252.46 105.61907 252.46 107.275925Z" fill-rule="nonzero"/><path fill="#196b24" clip-path="url(#id_0)" d="M312.92 121.61667C312.92 123.27352 311.57684 124.61667 309.92 124.61667C308.26315 124.61667 306.92 123.27352 306.92 121.61667C306.92 119.959816 308.26315 118.61667 309.92 118.61667C311.57684 118.61667 312.92 119.959816 312.92 121.61667Z" fill-rule="nonzero"/><path fill="#0f9ed5" clip-path="url(#id_0)" d="M71.08 100.10555C71.08 101.76241 69.736855 103.10555 68.08 103.10555C66.42315 103.10555 65.08 101.76241 65.08 100.10555C65.08 98.4487 66.42315 97.10555 68.08 97.10555C69.736855 97.10555 71.08 98.4487 71.08 100.10555Z" fill-rule="nonzero"/><path fill="#0f9ed5" clip-path="url(#id_0)" d="M131.54 107.275925C131.54 108.93278 130.19685 110.275925 128.54 110.275925C126.88315 110.275925 125.54 108.93278 125.54 107.275925C125.54 105.61907 126.88315 104.275925 128.54 104.275925C130.19685 104.275925 131.54 105.61907 131.54 107.275925Z" fill-rule="nonzero"/><path fill="#0f9ed5" clip-path="url(#id_0)" d="M192.0 121.61667C192.0 123.27352 190.65686 124.61667 189.0 124.61667C187.34314 124.61667 186.0 123.27352 186.0 121.61667C186.0 119.959816 187.34314 118.61667 189.0 118.61667C190.65686 118.61667 192.0 119.959816 192.0 121.61667Z" fill-rule="nonzero"/><path fill="#0f9ed5" clip-path="url(#id_0)" d="M252.46 92.93519C252.46 94.59204 251.11685 95.93519 249.46 95.93519C247.80315 95.93519 246.46 94.59204 246.46 92.93519C246.46 91.27833 247.80315 89.93519 249.46 89.93519C251.11685 89.93519 252.46 91.27833 252.46 92.93519Z" fill-rule="nonzero"/><path fill="#0f9ed5" clip-path="url(#id_0)" d="M312.92 107.275925C312.92 108.93278 311.57684 110.275925 309.92 110.275925C308.26315 110.275925 306.92 108.93278 306.92 107.275925C306.92 105.61907 308.26315 104.275925 309.92 104.275925C311.57684 104.275925 312.92 105.61907 312.92 107.275925Z" fill-rule="nonzero"/><path fill="#a02b93" clip-path="url(#id_0)" d="M71.08 143.12778C71.08 144.78464 69.736855 146.12778 68.08 146.12778C66.42315 146.12778 65.08 144.78464 65.08 143.12778C65.08 141.47092 66.42315 140.12778 68.08 140.12778C69.736855 140.12778 71.08 141.47092 71.08 143.12778Z" fill-rule="nonzero"/><path fill="#a02b93" clip-path="url(#id_0)" d="M131.54 157.46852C131.54 159.12537 130.19685 160.46852 128.54 160.46852C126.88315 160.46852 125.54 159.12537 125.54 157.46852C125.54 155.81166 126.88315 154.46852 128.54 154.46852C130.19685 154.46852 131.54 155.81166 131.54 157.46852Z" fill-rule="nonzero"/><path fill="#a02b93" clip-path="url(#id_0)" d="M192.0 164.63889C192.0 166.29575 190.65686 167.63889 189.0 167.63889C187.34314 167.63889 186.0 166.29575 186.0 164.63889C186.0 162.98204 187.34314 161.63889 189.0 161.63889C190.65686 161.63889 192.0 162.98204 192.0 164.63889Z" fill-rule="nonzero"/><path fill="#a02b93" clip-path="url(#id_0)" d="M252.46 143.12778C252.46 144.78464 251.11685 146.12778 249.46 146.12778C247.80315 146.12778 246.46 144.78464 246.46 143.12778C246.46 141.47092 247.80315 140.12778 249.46 140.12778C251.11685 140.12778 252.46 141.47092 252.46 143.12778Z" fill-rule="nonzero"/><path fill="#a02b93" clip-path="url(#id_0)" d="M312.92 143.12778C312.92 144.78464 311.57684 146.12778 309.92 146.12778C308.26315 146.12778 306.92 144.78464 306.92 143.12778C306.92 141.47092 308.26315 140.12778 309.92 140.12778C311.57684 140.12778 312.92 141.47092 312.92 143.12778Z" fill-rule="nonzero"/><path fill="#4ea72e" clip-path="url(#id_0)" d="M71.08 107.275925C71.08 108.93278 69.736855 110.275925 68.08 110.275925C66.42315 110.275925 65.08 108.93278 65.08 107.275925C65.08 105.61907 66.42315 104.275925 68.08 104.275925C69.736855 104.275925 71.08 105.61907 71.08 107.275925Z" fill-rule="nonzero"/><path fill="#4ea72e" clip-path="url(#id_0)" d="M131.54 114.4463C131.54 116.10315 130.19685 117.4463 128.54 117.4463C126.88315 117.4463 125.54 116.10315 125.54 114.4463C125.54 112.789444 126.88315 111.4463 128.54 111.4463C130.19685 111.4463 131.54 112.789444 131.54 114.4463Z" fill-rule="nonzero"/><path fill="#4ea72e" clip-path="url(#id_0)" d="M192.0 128.78703C192.0 130.4439 190.65686 131.78703 189.0 131.78703C187.34314 131.78703 186.0 130.4439 186.0 128.78703C186.0 127.13018 187.34314 125.78704 189.0 125.78704C190.65686 125.78704 192.0 127.13018 192.0 128.78703Z" fill-rule="nonzero"/><path fill="#4ea72e" clip-path="url(#id_0)" d="M252.46 107.275925C252.46 108.93278 251.11685 110.275925 249.46 110.275925C247.80315 110.275925 246.46 108.93278 246.46 107.275925C246.46 105.61907 247.80315 104.275925 249.46 104.275925C251.11685 104.275925 252.46 105.61907 252.46 107.275925Z" fill-rule="nonzero"/><path fill="#4ea72e" clip-path="url(#id_0)" d="M312.92 114.4463C312.92 116.10315 311.57684 117.4463 309.92 117.4463C308.26315 117.4463 306.92 116.10315 306.92 114.4463C306.92 112.789444 308.26315 111.4463 309.92 111.4463C311.57684 111.4463 312.92 112.789444 312.92 114.4463Z" fill-rule="nonzero"/><path fill="#5b90a8" clip-path="url(#id_0)" d="M71.08 85.76482C71.08 87.42167 69.736855 88.76482 68.08 88.76482C66.42315 88.76482 65.08 87.42167 65.08 85.76482C65.08 84.10796 66.42315 82.76482 68.08 82.76482C69.736855 82.76482 71.08 84.10796 71.08 85.76482Z" fill-rule="nonzero"/><path fill="#5b90a8" clip-path="url(#id_0)" d="M131.54 143.12778C131.54 144.78464 130.19685 146.12778 128.54 146.12778C126.88315 146.12778 125.54 144.78464 125.54 143.12778C125.54 141.47092 126.88315 140.12778 128.54 140.12778C130.19685 140.12778 131.54 141.47092 131.54 143.12778Z" fill-rule="nonzero"/><path fill="#5b90a8" clip-path="url(#id_0)" d="M192.0 157.46852C192.0 159.12537 190.65686 160.46852 189.0 160.46852C187.34314 160.46852 186.0 159.12537 186.0 157.46852C186.0 155.81166 187.34314 154.46852 189.0 154.46852C190.65686 154.46852 192.0 155.81166 192.0 157.46852Z" fill-rule="nonzero"/><path fill="#5b90a8" clip-path="url(#id_0)" d="M252.46 121.61667C252.46 123.27352 251.11685 124.61667 249.46 124.61667C247.80315 124.61667 246.46 123.27352 246.46 121.61667C246.46 119.959816 247.80315 118.61667 249.46 118.61667C251.11685 118.61667 252.46 119.959816 252.46 121.61667Z" fill-rule="nonzero"/><path fill="#5b90a8" clip-path="url(#id_0)" d="M312.92 107.275925C312.92 108.93278 311.57684 110.275925 309.92 110.275925C308.26315 110.275925 306.92 108.93278 306.92 107.275925C306.92 105.61907 308.26315 104.275925 309.92 104.275925C311.57684 104.275925 312.92 105.61907 312.92 107.275925Z" fill-rule="nonzero"/><path fill="#f09c70" clip-path="url(#id_0)" d="M71.08 143.12778C71.08 144.78464 69.736855 146.12778 68.08 146.12778C66.42315 146.12778 65.08 144.78464 65.08 143.12778C65.08 141.47092 66.42315 140.12778 68.08 140.12778C69.736855 140.12778 71.08 141.47092 71.08 143.12778Z" fill-rule="nonzero"/><path fill="#f09c70" clip-path="url(#id_0)" d="M131.54 157.46852C131.54 159.12537 130.19685 160.46852 128.54 160.46852C126.88315 160.46852 125.54 159.12537 125.54 157.46852C125.54 155.81166 126.88315 154.46852 128.54 154.46852C130.19685 154.46852 131.54 155.81166 131.54 157.46852Z" fill-rule="nonzero"/><path fill="#f09c70" clip-path="url(#id_0)" d="M192.0 143.12778C192.0 144.78464 190.65686 146.12778 189.0 146.12778C187.34314 146.12778 186.0 144.78464 186.0 143.12778C186.0 141.47092 187.34314 140.12778 189.0 140.12778C190.65686 140.12778 192.0 141.47092 192.0 143.12778Z" fill-rule="nonzero"/><path fill="#f09c70" clip-path="url(#id_0)" d="M252.46 143.12778C252.46 144.78464 251.11685 146.12778 249.46 146.12778C247.80315 146.12778 246.46 144.78464 246.46 143.12778C246.46 141.47092 247.80315 140.12778 249.46 140.12778C251.11685 140.12778 252.46 141.47092 252.46 143.12778Z" fill-rule="nonzero"/><path fill="#f09c70" clip-path="url(#id_0)" d="M312.92 143.12778C312.92 144.78464 311.57684 146.12778 309.92 146.12778C308.26315 146.12778 306.92 144.78464 306.92 143.12778C306.92 141.47092 308.26315 140.12778 309.92 140.12778C311.57684 140.12778 312.92 141.47092 312.92 143.12778Z" fill-rule="nonzero"/><path fill="#000000" d="M11.2875 186.22812Q11.2875 184.86874 11.69375 183.88437Q12.1 182.9 12.7875 182.41562Q13.31875 182.04062 13.88125 182.04062Q14.7875 182.04062 15.521875 182.97812Q16.428125 184.11874 16.428125 186.10312Q16.428125 187.47812 16.021875 188.44687Q15.63125 189.41562 15.00625 189.85312Q14.396875 190.29062 13.81875 190.29062Q12.678125 190.29062 11.928125 188.94687Q11.2875 187.82187 11.2875 186.22812ZM12.428125 186.36874Q12.428125 188.00937 12.834375 189.04062Q13.178125 189.91562 13.834375 189.91562Q14.146875 189.91562 14.490625 189.63437Q14.834375 189.35312 15.00625 188.68124Q15.271875 187.68124 15.271875 185.8375Q15.271875 184.47812 14.990625 183.57187Q14.7875 182.9 14.44375 182.61874Q14.209375 182.43124 13.865625 182.43124Q13.475 182.43124 13.1625 182.79062Q12.740625 183.275 12.584375 184.32187Q12.428125 185.35312 12.428125 186.36874ZM18.35 189.00937Q18.63125 189.00937 18.81875 189.2125Q19.00625 189.4 19.00625 189.66562Q19.00625 189.93124 18.803125 190.13437Q18.615625 190.32187 18.35 190.32187Q18.084375 190.32187 17.88125 190.13437Q17.69375 189.93124 17.69375 189.66562Q17.69375 189.38437 17.88125 189.19687Q18.084375 189.00937 18.35 189.00937ZM25.225 182.04062L25.225 182.25937Q24.459375 182.3375 23.959375 182.57187Q23.475 182.79062 22.990625 183.275Q22.521875 183.74374 22.209375 184.3375Q21.896875 184.91562 21.678125 185.7125Q22.521875 185.13437 23.38125 185.13437Q24.19375 185.13437 24.7875 185.79062Q25.38125 186.44687 25.38125 187.47812Q25.38125 188.47812 24.7875 189.29062Q24.053125 190.29062 22.865625 190.29062Q22.053125 190.29062 21.475 189.74374Q20.365625 188.69687 20.365625 187.025Q20.365625 185.9625 20.7875 185.00937Q21.225 184.04062 22.00625 183.30624Q22.803125 182.55624 23.521875 182.30624Q24.25625 182.04062 24.896875 182.04062L25.225 182.04062ZM21.584375 186.13437Q21.475 186.93124 21.475 187.41562Q21.475 187.97812 21.678125 188.65Q21.896875 189.30624 22.303125 189.68124Q22.6 189.9625 23.0375 189.9625Q23.5375 189.9625 23.94375 189.47812Q24.35 188.99374 24.35 188.10312Q24.35 187.10312 23.94375 186.38437Q23.553125 185.65 22.81875 185.65Q22.6 185.65 22.334375 185.74374Q22.084375 185.8375 21.584375 186.13437ZM26.2875 186.22812Q26.2875 184.86874 26.69375 183.88437Q27.1 182.9 27.7875 182.41562Q28.31875 182.04062 28.88125 182.04062Q29.7875 182.04062 30.521875 182.97812Q31.428125 184.11874 31.428125 186.10312Q31.428125 187.47812 31.021875 188.44687Q30.63125 189.41562 30.00625 189.85312Q29.396875 190.29062 28.81875 190.29062Q27.678125 190.29062 26.928125 188.94687Q26.2875 187.82187 26.2875 186.22812ZM27.428125 186.36874Q27.428125 188.00937 27.834375 189.04062Q28.178125 189.91562 28.834375 189.91562Q29.146875 189.91562 29.490625 189.63437Q29.834375 189.35312 30.00625 188.68124Q30.271875 187.68124 30.271875 185.8375Q30.271875 184.47812 29.990625 183.57187Q29.7875 182.9 29.44375 182.61874Q29.209375 182.43124 28.865625 182.43124Q28.475 182.43124 28.1625 182.79062Q27.740625 183.275 27.584375 184.32187Q27.428125 185.35312 27.428125 186.36874Z" fill-rule="nonzero"/><path fill="#000000" d="M11.2875 157.54665Q11.2875 156.18727 11.69375 155.2029Q12.1 154.21852 12.7875 153.73415Q13.31875 153.35915 13.88125 153.35915Q14.7875 153.35915 15.521875 154.29665Q16.428125 155.43727 16.428125 157.42165Q16.428125 158.79665 16.021875 159.7654Q15.63125 160.73415 15.00625 161.17165Q14.396875 161.60915 13.81875 161.60915Q12.678125 161.60915 11.928125 160.2654Q11.2875 159.1404 11.2875 157.54665ZM12.428125 157.68727Q12.428125 159.3279 12.834375 160.35915Q13.178125 161.23415 13.834375 161.23415Q14.146875 161.23415 14.490625 160.9529Q14.834375 160.67165 15.00625 159.99977Q15.271875 158.99977 15.271875 157.15602Q15.271875 155.79665 14.990625 154.8904Q14.7875 154.21852 14.44375 153.93727Q14.209375 153.74977 13.865625 153.74977Q13.475 153.74977 13.1625 154.10915Q12.740625 154.59352 12.584375 155.6404Q12.428125 156.67165 12.428125 157.68727ZM18.35 160.3279Q18.63125 160.3279 18.81875 160.53102Q19.00625 160.71852 19.00625 160.98415Q19.00625 161.24977 18.803125 161.4529Q18.615625 161.6404 18.35 161.6404Q18.084375 161.6404 17.88125 161.4529Q17.69375 161.24977 17.69375 160.98415Q17.69375 160.7029 17.88125 160.5154Q18.084375 160.3279 18.35 160.3279ZM25.225 153.35915L25.225 153.5779Q24.459375 153.65602 23.959375 153.8904Q23.475 154.10915 22.990625 154.59352Q22.521875 155.06227 22.209375 155.65602Q21.896875 156.23415 21.678125 157.03102Q22.521875 156.4529 23.38125 156.4529Q24.19375 156.4529 24.7875 157.10915Q25.38125 157.7654 25.38125 158.79665Q25.38125 159.79665 24.7875 160.60915Q24.053125 161.60915 22.865625 161.60915Q22.053125 161.60915 21.475 161.06227Q20.365625 160.0154 20.365625 158.34352Q20.365625 157.28102 20.7875 156.3279Q21.225 155.35915 22.00625 154.62477Q22.803125 153.87477 23.521875 153.62477Q24.25625 153.35915 24.896875 153.35915L25.225 153.35915ZM21.584375 157.4529Q21.475 158.24977 21.475 158.73415Q21.475 159.29665 21.678125 159.96852Q21.896875 160.62477 22.303125 160.99977Q22.6 161.28102 23.0375 161.28102Q23.5375 161.28102 23.94375 160.79665Q24.35 160.31227 24.35 159.42165Q24.35 158.42165 23.94375 157.7029Q23.553125 156.96852 22.81875 156.96852Q22.6 156.96852 22.334375 157.06227Q22.084375 157.15602 21.584375 157.4529ZM31.428125 158.53102L31.428125 159.37477L30.365625 159.37477L30.365625 161.46852L29.396875 161.46852L29.396875 159.37477L26.0375 159.37477L26.0375 158.62477L29.725 153.35915L30.365625 153.35915L30.365625 158.53102L31.428125 158.53102ZM29.396875 158.53102L29.396875 154.59352L26.615625 158.53102L29.396875 158.53102Z" fill-rule="nonzero"/><path fill="#000000" d="M11.2875 128.86516Q11.2875 127.50578 11.69375 126.52141Q12.1 125.53703 12.7875 125.05266Q13.31875 124.67766 13.88125 124.67766Q14.7875 124.67766 15.521875 125.61516Q16.428125 126.75578 16.428125 128.74016Q16.428125 130.11516 16.021875 131.08391Q15.63125 132.05266 15.00625 132.49016Q14.396875 132.92766 13.81875 132.92766Q12.678125 132.92766 11.928125 131.58391Q11.2875 130.45891 11.2875 128.86516ZM12.428125 129.00578Q12.428125 130.64641 12.834375 131.67766Q13.178125 132.55266 13.834375 132.55266Q14.146875 132.55266 14.490625 132.27141Q14.834375 131.99016 15.00625 131.31828Q15.271875 130.31828 15.271875 128.47453Q15.271875 127.11516 14.990625 126.20891Q14.7875 125.53703 14.44375 125.25578Q14.209375 125.06828 13.865625 125.06828Q13.475 125.06828 13.1625 125.42766Q12.740625 125.91203 12.584375 126.95891Q12.428125 127.99016 12.428125 129.00578ZM18.35 131.64641Q18.63125 131.64641 18.81875 131.84953Q19.00625 132.03703 19.00625 132.30266Q19.00625 132.56828 18.803125 132.77141Q18.615625 132.95891 18.35 132.95891Q18.084375 132.95891 17.88125 132.77141Q17.69375 132.56828 17.69375 132.30266Q17.69375 132.02141 17.88125 131.83391Q18.084375 131.64641 18.35 131.64641ZM25.225 124.67766L25.225 124.89641Q24.459375 124.97453 23.959375 125.20891Q23.475 125.42766 22.990625 125.91203Q22.521875 126.38078 22.209375 126.97453Q21.896875 127.55266 21.678125 128.34953Q22.521875 127.77141 23.38125 127.77141Q24.19375 127.77141 24.7875 128.42766Q25.38125 129.08391 25.38125 130.11516Q25.38125 131.11516 24.7875 131.92766Q24.053125 132.92766 22.865625 132.92766Q22.053125 132.92766 21.475 132.38078Q20.365625 131.33391 20.365625 129.66203Q20.365625 128.59953 20.7875 127.64641Q21.225 126.67766 22.00625 125.94328Q22.803125 125.19328 23.521875 124.94328Q24.25625 124.67766 24.896875 124.67766L25.225 124.67766ZM21.584375 128.77141Q21.475 129.56828 21.475 130.05266Q21.475 130.61516 21.678125 131.28703Q21.896875 131.94328 22.303125 132.31828Q22.6 132.59953 23.0375 132.59953Q23.5375 132.59953 23.94375 132.11516Q24.35 131.63078 24.35 130.74016Q24.35 129.74016 23.94375 129.02141Q23.553125 128.28703 22.81875 128.28703Q22.6 128.28703 22.334375 128.38078Q22.084375 128.47453 21.584375 128.77141ZM28.146875 128.78703Q27.209375 128.00578 26.928125 127.53703Q26.6625 127.06828 26.6625 126.56828Q26.6625 125.80266 27.25625 125.24016Q27.865625 124.67766 28.85 124.67766Q29.81875 124.67766 30.396875 125.20891Q30.990625 125.72453 30.990625 126.38078Q30.990625 126.83391 30.6625 127.30266Q30.35 127.75578 29.35 128.38078Q30.38125 129.17766 30.709375 129.64641Q31.1625 130.24016 31.1625 130.89641Q31.1625 131.74016 30.521875 132.33391Q29.88125 132.92766 28.85 132.92766Q27.709375 132.92766 27.084375 132.22453Q26.584375 131.64641 26.584375 130.97453Q26.584375 130.44328 26.928125 129.92766Q27.2875 129.41203 28.146875 128.78703ZM29.06875 128.16203Q29.771875 127.52141 29.959375 127.16203Q30.146875 126.78703 30.146875 126.33391Q30.146875 125.70891 29.803125 125.36516Q29.459375 125.02141 28.865625 125.02141Q28.271875 125.02141 27.896875 125.36516Q27.521875 125.70891 27.521875 126.17766Q27.521875 126.47453 27.6625 126.78703Q27.81875 127.08391 28.115625 127.36516L29.06875 128.16203ZM28.428125 129.00578Q27.94375 129.41203 27.709375 129.89641Q27.475 130.38078 27.475 130.94328Q27.475 131.70891 27.88125 132.16203Q28.303125 132.61516 28.94375 132.61516Q29.56875 132.61516 29.94375 132.25578Q30.334375 131.89641 30.334375 131.38078Q30.334375 130.95891 30.115625 130.63078Q29.69375 130.00578 28.428125 129.00578Z" fill-rule="nonzero"/><path fill="#000000" d="M11.2875 100.18368Q11.2875 98.8243 11.69375 97.83993Q12.1 96.85555 12.7875 96.37118Q13.31875 95.99618 13.88125 95.99618Q14.7875 95.99618 15.521875 96.93368Q16.428125 98.0743 16.428125 100.05868Q16.428125 101.43368 16.021875 102.40243Q15.63125 103.37118 15.00625 103.80868Q14.396875 104.24618 13.81875 104.24618Q12.678125 104.24618 11.928125 102.90243Q11.2875 101.77743 11.2875 100.18368ZM12.428125 100.3243Q12.428125 101.96493 12.834375 102.99618Q13.178125 103.87118 13.834375 103.87118Q14.146875 103.87118 14.490625 103.58993Q14.834375 103.30868 15.00625 102.6368Q15.271875 101.6368 15.271875 99.79305Q15.271875 98.43368 14.990625 97.52743Q14.7875 96.85555 14.44375 96.5743Q14.209375 96.3868 13.865625 96.3868Q13.475 96.3868 13.1625 96.74618Q12.740625 97.23055 12.584375 98.27743Q12.428125 99.30868 12.428125 100.3243ZM18.35 102.96493Q18.63125 102.96493 18.81875 103.16805Q19.00625 103.35555 19.00625 103.62118Q19.00625 103.8868 18.803125 104.08993Q18.615625 104.27743 18.35 104.27743Q18.084375 104.27743 17.88125 104.08993Q17.69375 103.8868 17.69375 103.62118Q17.69375 103.33993 17.88125 103.15243Q18.084375 102.96493 18.35 102.96493ZM21.053125 96.15243L25.31875 96.15243L25.31875 96.3868L22.6625 104.27743L22.00625 104.27743L24.38125 97.12118L22.19375 97.12118Q21.5375 97.12118 21.25625 97.27743Q20.771875 97.54305 20.459375 98.10555L20.303125 98.04305L21.053125 96.15243ZM31.35 102.5743L30.803125 104.10555L26.115625 104.10555L26.115625 103.8868Q28.178125 101.99618 29.021875 100.80868Q29.865625 99.60555 29.865625 98.62118Q29.865625 97.87118 29.396875 97.3868Q28.94375 96.8868 28.2875 96.8868Q27.709375 96.8868 27.240625 97.23055Q26.771875 97.5743 26.553125 98.24618L26.334375 98.24618Q26.490625 97.15243 27.084375 96.5743Q27.69375 95.99618 28.6 95.99618Q29.56875 95.99618 30.209375 96.62118Q30.865625 97.23055 30.865625 98.0743Q30.865625 98.68368 30.584375 99.29305Q30.146875 100.23055 29.178125 101.29305Q27.725 102.8868 27.35 103.21493L29.428125 103.21493Q30.06875 103.21493 30.31875 103.16805Q30.56875 103.12118 30.771875 102.98055Q30.990625 102.83993 31.13125 102.5743L31.35 102.5743Z" fill-rule="nonzero"/><path fill="#000000" d="M11.2875 71.5022Q11.2875 70.14282 11.69375 69.15845Q12.1 68.17407 12.7875 67.6897Q13.31875 67.3147 13.88125 67.3147Q14.7875 67.3147 15.521875 68.2522Q16.428125 69.39282 16.428125 71.3772Q16.428125 72.7522 16.021875 73.72095Q15.63125 74.6897 15.00625 75.1272Q14.396875 75.5647 13.81875 75.5647Q12.678125 75.5647 11.928125 74.22095Q11.2875 73.09595 11.2875 71.5022ZM12.428125 71.64282Q12.428125 73.28345 12.834375 74.3147Q13.178125 75.1897 13.834375 75.1897Q14.146875 75.1897 14.490625 74.90845Q14.834375 74.6272 15.00625 73.95532Q15.271875 72.95532 15.271875 71.11157Q15.271875 69.7522 14.990625 68.84595Q14.7875 68.17407 14.44375 67.89282Q14.209375 67.70532 13.865625 67.70532Q13.475 67.70532 13.1625 68.0647Q12.740625 68.54907 12.584375 69.59595Q12.428125 70.6272 12.428125 71.64282ZM18.35 74.28345Q18.63125 74.28345 18.81875 74.48657Q19.00625 74.67407 19.00625 74.9397Q19.00625 75.20532 18.803125 75.40845Q18.615625 75.59595 18.35 75.59595Q18.084375 75.59595 17.88125 75.40845Q17.69375 75.20532 17.69375 74.9397Q17.69375 74.65845 17.88125 74.47095Q18.084375 74.28345 18.35 74.28345ZM21.053125 67.47095L25.31875 67.47095L25.31875 67.70532L22.6625 75.59595L22.00625 75.59595L24.38125 68.4397L22.19375 68.4397Q21.5375 68.4397 21.25625 68.59595Q20.771875 68.86157 20.459375 69.42407L20.303125 69.36157L21.053125 67.47095ZM31.225 67.3147L31.225 67.53345Q30.459375 67.61157 29.959375 67.84595Q29.475 68.0647 28.990625 68.54907Q28.521875 69.01782 28.209375 69.61157Q27.896875 70.1897 27.678125 70.98657Q28.521875 70.40845 29.38125 70.40845Q30.19375 70.40845 30.7875 71.0647Q31.38125 71.72095 31.38125 72.7522Q31.38125 73.7522 30.7875 74.5647Q30.053125 75.5647 28.865625 75.5647Q28.053125 75.5647 27.475 75.01782Q26.365625 73.97095 26.365625 72.29907Q26.365625 71.23657 26.7875 70.28345Q27.225 69.3147 28.00625 68.58032Q28.803125 67.83032 29.521875 67.58032Q30.25625 67.3147 30.896875 67.3147L31.225 67.3147ZM27.584375 71.40845Q27.475 72.20532 27.475 72.6897Q27.475 73.2522 27.678125 73.92407Q27.896875 74.58032 28.303125 74.95532Q28.6 75.23657 29.0375 75.23657Q29.5375 75.23657 29.94375 74.7522Q30.35 74.26782 30.35 73.3772Q30.35 72.3772 29.94375 71.65845Q29.553125 70.92407 28.81875 70.92407Q28.6 70.92407 28.334375 71.01782Q28.084375 71.11157 27.584375 71.40845Z" fill-rule="nonzero"/><path fill="#000000" d="M57.48625 195.97812L59.42375 195.04062L59.61125 195.04062L59.61125 201.74374Q59.61125 202.41562 59.658127 202.5875Q59.720627 202.74374 59.8925 202.8375Q60.08 202.91562 60.61125 202.93124L60.61125 203.15L57.626877 203.15L57.626877 202.93124Q58.189377 202.91562 58.345627 202.8375Q58.5175 202.74374 58.58 202.60312Q58.6425 202.4625 58.6425 201.74374L58.6425 197.4625Q58.6425 196.5875 58.595627 196.35312Q58.54875 196.16562 58.439377 196.07187Q58.33 195.97812 58.17375 195.97812Q57.955 195.97812 57.58 196.16562L57.48625 195.97812ZM71.18938 198.00937Q71.97063 198.86874 72.53313 199.30624Q73.11125 199.74374 73.61125 199.9625L73.61125 200.22812Q73.03313 200.50937 72.48625 200.94687Q71.93938 201.38437 71.18938 202.22812L70.73625 202.22812Q71.28313 201.05624 71.8925 200.41562L62.54875 200.41562L62.54875 199.82187L71.8925 199.82187Q71.43938 199.25937 71.2675 198.99374Q71.09563 198.7125 70.75188 198.00937L71.18938 198.00937ZM79.58 201.61874L79.03313 203.15L74.34563 203.15L74.34563 202.93124Q76.40813 201.04062 77.25188 199.85312Q78.09563 198.65 78.09563 197.66562Q78.09563 196.91562 77.62688 196.43124Q77.17375 195.93124 76.5175 195.93124Q75.93938 195.93124 75.47063 196.275Q75.00188 196.61874 74.78313 197.29062L74.56438 197.29062Q74.72063 196.19687 75.31438 195.61874Q75.92375 195.04062 76.83 195.04062Q77.79875 195.04062 78.43938 195.66562Q79.09563 196.275 79.09563 197.11874Q79.09563 197.72812 78.81438 198.3375Q78.37688 199.275 77.40813 200.3375Q75.955 201.93124 75.58 202.25937L77.65813 202.25937Q78.29875 202.25937 78.54875 202.2125Q78.79875 202.16562 79.00188 202.025Q79.22063 201.88437 79.36125 201.61874L79.58 201.61874Z" fill-rule="nonzero"/><path fill="#000000" d="M122.04 201.61874L121.493126 203.15L116.805626 203.15L116.805626 202.93124Q118.868126 201.04062 119.711876 199.85312Q120.555626 198.65 120.555626 197.66562Q120.555626 196.91562 120.086876 196.43124Q119.63375 195.93124 118.9775 195.93124Q118.399376 195.93124 117.930626 196.275Q117.461876 196.61874 117.243126 197.29062L117.024376 197.29062Q117.180626 196.19687 117.774376 195.61874Q118.38375 195.04062 119.29 195.04062Q120.25875 195.04062 120.899376 195.66562Q121.555626 196.275 121.555626 197.11874Q121.555626 197.72812 121.274376 198.3375Q120.836876 199.275 119.868126 200.3375Q118.415 201.93124 118.04 202.25937L120.118126 202.25937Q120.75875 202.25937 121.00875 202.2125Q121.25875 202.16562 121.461876 202.025Q121.680626 201.88437 121.82125 201.61874L122.04 201.61874ZM131.64938 198.00937Q132.43063 198.86874 132.99313 199.30624Q133.57126 199.74374 134.07126 199.9625L134.07126 200.22812Q133.49313 200.50937 132.94626 200.94687Q132.39938 201.38437 131.64938 202.22812L131.19626 202.22812Q131.74313 201.05624 132.35251 200.41562L123.00875 200.41562L123.00875 199.82187L132.35251 199.82187Q131.89938 199.25937 131.72751 198.99374Q131.55563 198.7125 131.21188 198.00937L131.64938 198.00937ZM135.14938 196.7125Q135.49313 195.91562 136.00876 195.47812Q136.52438 195.04062 137.30563 195.04062Q138.25876 195.04062 138.75876 195.66562Q139.14938 196.11874 139.14938 196.65Q139.14938 197.525 138.05563 198.44687Q138.79001 198.72812 139.16501 199.25937Q139.54001 199.79062 139.54001 200.525Q139.54001 201.55624 138.88376 202.30624Q138.04001 203.29062 136.41501 203.29062Q135.60251 203.29062 135.30563 203.0875Q135.02438 202.88437 135.02438 202.66562Q135.02438 202.49374 135.16501 202.36874Q135.30563 202.22812 135.49313 202.22812Q135.64938 202.22812 135.79001 202.275Q135.89938 202.30624 136.24313 202.49374Q136.60251 202.68124 136.72751 202.7125Q136.94626 202.775 137.19626 202.775Q137.79001 202.775 138.22751 202.32187Q138.68063 201.85312 138.68063 201.22812Q138.68063 200.75937 138.47751 200.32187Q138.32126 199.99374 138.13376 199.82187Q137.88376 199.5875 137.44626 199.4Q137.00876 199.2125 136.55563 199.2125L136.36813 199.2125L136.36813 199.025Q136.82126 198.97812 137.29001 198.69687Q137.75876 198.41562 137.96188 198.04062Q138.18063 197.65 138.18063 197.18124Q138.18063 196.5875 137.80563 196.2125Q137.43063 195.8375 136.86813 195.8375Q135.94626 195.8375 135.33688 196.80624L135.14938 196.7125Z" fill-rule="nonzero"/><path fill="#000000" d="M177.60938 196.7125Q177.95312 195.91562 178.46875 195.47812Q178.98438 195.04062 179.76562 195.04062Q180.71875 195.04062 181.21875 195.66562Q181.60938 196.11874 181.60938 196.65Q181.60938 197.525 180.51562 198.44687Q181.25 198.72812 181.625 199.25937Q182.0 199.79062 182.0 200.525Q182.0 201.55624 181.34375 202.30624Q180.5 203.29062 178.875 203.29062Q178.0625 203.29062 177.76562 203.0875Q177.48438 202.88437 177.48438 202.66562Q177.48438 202.49374 177.625 202.36874Q177.76562 202.22812 177.95312 202.22812Q178.10938 202.22812 178.25 202.275Q178.35938 202.30624 178.70312 202.49374Q179.0625 202.68124 179.1875 202.7125Q179.40625 202.775 179.65625 202.775Q180.25 202.775 180.6875 202.32187Q181.14062 201.85312 181.14062 201.22812Q181.14062 200.75937 180.9375 200.32187Q180.78125 199.99374 180.59375 199.82187Q180.34375 199.5875 179.90625 199.4Q179.46875 199.2125 179.01562 199.2125L178.82812 199.2125L178.82812 199.025Q179.28125 198.97812 179.75 198.69687Q180.21875 198.41562 180.42188 198.04062Q180.64062 197.65 180.64062 197.18124Q180.64062 196.5875 180.26562 196.2125Q179.89062 195.8375 179.32812 195.8375Q178.40625 195.8375 177.79688 196.80624L177.60938 196.7125ZM192.10938 198.00937Q192.89062 198.86874 193.45312 199.30624Q194.03125 199.74374 194.53125 199.9625L194.53125 200.22812Q193.95312 200.50937 193.40625 200.94687Q192.85938 201.38437 192.10938 202.22812L191.65625 202.22812Q192.20312 201.05624 192.8125 200.41562L183.46875 200.41562L183.46875 199.82187L192.8125 199.82187Q192.35938 199.25937 192.1875 198.99374Q192.01562 198.7125 191.67188 198.00937L192.10938 198.00937ZM200.57812 200.2125L200.57812 201.05624L199.51562 201.05624L199.51562 203.15L198.54688 203.15L198.54688 201.05624L195.1875 201.05624L195.1875 200.30624L198.875 195.04062L199.51562 195.04062L199.51562 200.2125L200.57812 200.2125ZM198.54688 200.2125L198.54688 196.275L195.76562 200.2125L198.54688 200.2125Z" fill-rule="nonzero"/><path fill="#000000" d="M243.03813 200.2125L243.03813 201.05624L241.97563 201.05624L241.97563 203.15L241.00688 203.15L241.00688 201.05624L237.6475 201.05624L237.6475 200.30624L241.335 195.04062L241.97563 195.04062L241.97563 200.2125L243.03813 200.2125ZM241.00688 200.2125L241.00688 196.275L238.22563 200.2125L241.00688 200.2125ZM252.56938 198.00937Q253.35063 198.86874 253.91313 199.30624Q254.49126 199.74374 254.99126 199.9625L254.99126 200.22812Q254.41313 200.50937 253.86626 200.94687Q253.31938 201.38437 252.56938 202.22812L252.11626 202.22812Q252.66313 201.05624 253.2725 200.41562L243.92876 200.41562L243.92876 199.82187L253.2725 199.82187Q252.81938 199.25937 252.6475 198.99374Q252.47563 198.7125 252.13188 198.00937L252.56938 198.00937ZM260.66315 195.19687L260.21002 196.19687L257.8194 196.19687L257.30377 197.25937Q258.85065 197.49374 259.7569 198.41562Q260.53815 199.2125 260.53815 200.29062Q260.53815 200.91562 260.28815 201.4625Q260.03815 201.99374 259.64752 202.36874Q259.2569 202.74374 258.78815 202.9625Q258.11627 203.29062 257.39752 203.29062Q256.67877 203.29062 256.35065 203.05624Q256.03815 202.80624 256.03815 202.50937Q256.03815 202.35312 256.16315 202.22812Q256.30377 202.0875 256.5069 202.0875Q256.66315 202.0875 256.77252 202.13437Q256.89752 202.18124 257.16315 202.38437Q257.60065 202.68124 258.05377 202.68124Q258.74127 202.68124 259.2569 202.16562Q259.77252 201.65 259.77252 200.9Q259.77252 200.18124 259.30377 199.55624Q258.85065 198.93124 258.03815 198.60312Q257.39752 198.3375 256.30377 198.29062L257.8194 195.19687L260.66315 195.19687Z" fill-rule="nonzero"/><path fill="#000000" d="M303.12314 195.19687L302.67 196.19687L300.2794 196.19687L299.76376 197.25937Q301.31064 197.49374 302.2169 198.41562Q302.99814 199.2125 302.99814 200.29062Q302.99814 200.91562 302.74814 201.4625Q302.49814 201.99374 302.1075 202.36874Q301.7169 202.74374 301.24814 202.9625Q300.57626 203.29062 299.8575 203.29062Q299.13876 203.29062 298.81064 203.05624Q298.49814 202.80624 298.49814 202.50937Q298.49814 202.35312 298.62314 202.22812Q298.76376 202.0875 298.9669 202.0875Q299.12314 202.0875 299.2325 202.13437Q299.3575 202.18124 299.62314 202.38437Q300.06064 202.68124 300.51376 202.68124Q301.20126 202.68124 301.7169 202.16562Q302.2325 201.65 302.2325 200.9Q302.2325 200.18124 301.76376 199.55624Q301.31064 198.93124 300.49814 198.60312Q299.8575 198.3375 298.76376 198.29062L300.2794 195.19687L303.12314 195.19687ZM313.0294 198.00937Q313.81064 198.86874 314.37314 199.30624Q314.95126 199.74374 315.45126 199.9625L315.45126 200.22812Q314.87314 200.50937 314.32626 200.94687Q313.7794 201.38437 313.0294 202.22812L312.57626 202.22812Q313.12314 201.05624 313.7325 200.41562L304.38876 200.41562L304.38876 199.82187L313.7325 199.82187Q313.2794 199.25937 313.1075 198.99374Q312.93564 198.7125 312.5919 198.00937L313.0294 198.00937ZM321.295 195.04062L321.295 195.25937Q320.5294 195.3375 320.0294 195.57187Q319.545 195.79062 319.06064 196.275Q318.5919 196.74374 318.2794 197.3375Q317.9669 197.91562 317.74814 198.7125Q318.5919 198.13437 319.45126 198.13437Q320.26376 198.13437 320.8575 198.79062Q321.45126 199.44687 321.45126 200.47812Q321.45126 201.47812 320.8575 202.29062Q320.12314 203.29062 318.93564 203.29062Q318.12314 203.29062 317.545 202.74374Q316.43564 201.69687 316.43564 200.025Q316.43564 198.9625 316.8575 198.00937Q317.295 197.04062 318.07626 196.30624Q318.87314 195.55624 319.5919 195.30624Q320.32626 195.04062 320.9669 195.04062L321.295 195.04062ZM317.6544 199.13437Q317.545 199.93124 317.545 200.41562Q317.545 200.97812 317.74814 201.65Q317.9669 202.30624 318.37314 202.68124Q318.67 202.9625 319.1075 202.9625Q319.6075 202.9625 320.01376 202.47812Q320.42 201.99374 320.42 201.10312Q320.42 200.10312 320.01376 199.38437Q319.62314 198.65 318.88876 198.65Q318.67 198.65 318.4044 198.74374Q318.1544 198.8375 317.6544 199.13437Z" fill-rule="nonzero"/><path fill="#156082" d="M31.5 17.85C31.5 21.163708 28.81371 23.85 25.5 23.85C22.18629 23.85 19.5 21.163708 19.5 17.85C19.5 14.536291 22.18629 11.85 25.5 11.85C28.81371 11.85 31.5 14.536291 31.5 17.85Z" fill-rule="nonzero"/><path fill="#1a1a1a" d="M46.859375 13.725L47.078125 16.225L46.859375 16.225Q46.5625 15.2875 46.0625 14.81875Q45.359375 14.13125 44.234375 14.13125Q42.71875 14.13125 41.9375 15.334375Q41.265625 16.35 41.265625 17.740625Q41.265625 18.88125 41.703125 19.81875Q42.15625 20.75625 42.859375 21.19375Q43.578125 21.63125 44.328125 21.63125Q44.765625 21.63125 45.171875 21.521875Q45.578125 21.4125 45.96875 21.19375L45.96875 18.896875Q45.96875 18.303125 45.875 18.115625Q45.78125 17.928125 45.59375 17.834375Q45.40625 17.740625 44.921875 17.740625L44.921875 17.50625L48.0 17.50625L48.0 17.740625L47.84375 17.740625Q47.390625 17.740625 47.21875 18.0375Q47.109375 18.25625 47.109375 18.896875L47.109375 21.334375Q46.4375 21.69375 45.78125 21.865625Q45.125 22.0375 44.3125 22.0375Q42.015625 22.0375 40.8125 20.553125Q39.921875 19.44375 39.921875 18.00625Q39.921875 16.94375 40.421875 15.990625Q41.03125 14.85 42.0625 14.225Q42.9375 13.725 44.125 13.725Q44.5625 13.725 44.90625 13.803125Q45.265625 13.865625 45.921875 14.1Q46.25 14.225 46.359375 14.225Q46.46875 14.225 46.546875 14.13125Q46.625 14.021875 46.65625 13.725L46.859375 13.725ZM50.453125 16.31875L50.453125 17.5375Q51.125 16.31875 51.828125 16.31875Q52.15625 16.31875 52.359375 16.521875Q52.578125 16.709375 52.578125 16.975Q52.578125 17.209375 52.421875 17.365625Q52.265625 17.521875 52.0625 17.521875Q51.859375 17.521875 51.59375 17.31875Q51.34375 17.115625 51.21875 17.115625Q51.109375 17.115625 50.984375 17.225Q50.734375 17.475 50.453125 18.021875L50.453125 20.6Q50.453125 21.0375 50.5625 21.271875Q50.640625 21.428125 50.828125 21.5375Q51.015625 21.63125 51.390625 21.63125L51.390625 21.85L48.640625 21.85L48.640625 21.63125Q49.046875 21.63125 49.25 21.50625Q49.390625 21.4125 49.453125 21.209375Q49.484375 21.115625 49.484375 20.646875L49.484375 18.56875Q49.484375 17.63125 49.4375 17.459375Q49.40625 17.271875 49.296875 17.19375Q49.203125 17.1 49.046875 17.1Q48.859375 17.1 48.640625 17.19375L48.578125 16.975L50.203125 16.31875L50.453125 16.31875ZM58.078125 18.9125L58.078125 19.75625L57.015625 19.75625L57.015625 21.85L56.046875 21.85L56.046875 19.75625L52.6875 19.75625L52.6875 19.00625L56.375 13.740625L57.015625 13.740625L57.015625 18.9125L58.078125 18.9125ZM56.046875 18.9125L56.046875 14.975L53.265625 18.9125L56.046875 18.9125Z" fill-rule="nonzero"/><path fill="#e97132" d="M86.5 17.85C86.5 21.163708 83.813705 23.85 80.5 23.85C77.186295 23.85 74.5 21.163708 74.5 17.85C74.5 14.536291 77.186295 11.85 80.5 11.85C83.813705 11.85 86.5 14.536291 86.5 17.85Z" fill-rule="nonzero"/><path fill="#1a1a1a" d="M96.96875 18.13125L96.96875 20.44375Q96.96875 21.19375 97.125 21.38125Q97.34375 21.63125 97.796875 21.63125L98.109375 21.63125L98.109375 21.85L94.703125 21.85L94.703125 21.63125L95.0 21.63125Q95.5 21.63125 95.71875 21.303125Q95.84375 21.115625 95.84375 20.44375L95.84375 15.303125Q95.84375 14.553125 95.671875 14.38125Q95.453125 14.115625 95.0 14.115625L94.703125 14.115625L94.703125 13.896875L97.609375 13.896875Q98.671875 13.896875 99.28125 14.13125Q99.90625 14.35 100.328125 14.865625Q100.75 15.38125 100.75 16.1Q100.75 17.06875 100.109375 17.678125Q99.46875 18.2875 98.296875 18.2875Q98.015625 18.2875 97.671875 18.25625Q97.34375 18.209375 96.96875 18.13125ZM96.96875 17.7875Q97.265625 17.85 97.5 17.88125Q97.75 17.9125 97.921875 17.9125Q98.53125 17.9125 98.96875 17.44375Q99.421875 16.975 99.421875 16.225Q99.421875 15.709375 99.203125 15.271875Q99.0 14.81875 98.609375 14.6Q98.21875 14.38125 97.734375 14.38125Q97.4375 14.38125 96.96875 14.490625L96.96875 17.7875ZM107.078125 18.9125L107.078125 19.75625L106.015625 19.75625L106.015625 21.85L105.046875 21.85L105.046875 19.75625L101.6875 19.75625L101.6875 19.00625L105.375 13.740625L106.015625 13.740625L106.015625 18.9125L107.078125 18.9125ZM105.046875 18.9125L105.046875 14.975L102.265625 18.9125L105.046875 18.9125ZM109.46875 17.459375Q110.0625 16.88125 110.15625 16.7875Q110.421875 16.56875 110.71875 16.44375Q111.03125 16.31875 111.328125 16.31875Q111.84375 16.31875 112.203125 16.615625Q112.5625 16.9125 112.6875 17.459375Q113.296875 16.75625 113.703125 16.5375Q114.125 16.31875 114.5625 16.31875Q114.984375 16.31875 115.3125 16.5375Q115.65625 16.75625 115.84375 17.25625Q115.96875 17.6 115.96875 18.334375L115.96875 20.63125Q115.96875 21.146875 116.046875 21.334375Q116.109375 21.459375 116.265625 21.553125Q116.421875 21.63125 116.78125 21.63125L116.78125 21.85L114.140625 21.85L114.140625 21.63125L114.25 21.63125Q114.59375 21.63125 114.78125 21.50625Q114.921875 21.4125 114.984375 21.209375Q115.0 21.1 115.0 20.63125L115.0 18.334375Q115.0 17.678125 114.84375 17.396875Q114.609375 17.021875 114.109375 17.021875Q113.796875 17.021875 113.484375 17.178125Q113.171875 17.334375 112.734375 17.75625L112.71875 17.81875L112.734375 18.06875L112.734375 20.63125Q112.734375 21.19375 112.78125 21.334375Q112.84375 21.459375 113.015625 21.553125Q113.1875 21.63125 113.59375 21.63125L113.59375 21.85L110.890625 21.85L110.890625 21.63125Q111.328125 21.63125 111.5 21.5375Q111.671875 21.428125 111.734375 21.209375Q111.765625 21.115625 111.765625 20.63125L111.765625 18.334375Q111.765625 17.678125 111.5625 17.38125Q111.3125 17.00625 110.84375 17.00625Q110.53125 17.00625 110.21875 17.178125Q109.734375 17.44375 109.46875 17.75625L109.46875 20.63125Q109.46875 21.1625 109.53125 21.31875Q109.609375 21.475 109.75 21.553125Q109.90625 21.63125 110.34375 21.63125L110.34375 21.85L107.6875 21.85L107.6875 21.63125Q108.0625 21.63125 108.203125 21.553125Q108.34375 21.475 108.421875 21.303125Q108.5 21.13125 108.5 20.63125L108.5 18.584375Q108.5 17.69375 108.453125 17.44375Q108.40625 17.25625 108.3125 17.178125Q108.234375 17.1 108.078125 17.1Q107.921875 17.1 107.6875 17.19375L107.59375 16.975L109.21875 16.31875L109.46875 16.31875L109.46875 17.459375Z" fill-rule="nonzero"/><path fill="#196b24" d="M144.5 17.85C144.5 21.163708 141.8137 23.85 138.5 23.85C135.1863 23.85 132.5 21.163708 132.5 17.85C132.5 14.536291 135.1863 11.85 138.5 11.85C141.8137 11.85 144.5 14.536291 144.5 17.85Z" fill-rule="nonzero"/><path fill="#1a1a1a" d="M159.375 19.646875L159.57812 19.69375L158.89062 21.85L152.73438 21.85L152.73438 21.63125L153.04688 21.63125Q153.54688 21.63125 153.76562 21.303125Q153.89062 21.115625 153.89062 20.44375L153.89062 15.303125Q153.89062 14.56875 153.71875 14.38125Q153.48438 14.115625 153.04688 14.115625L152.73438 14.115625L152.73438 13.896875L156.34375 13.896875L156.34375 14.115625Q155.70312 14.115625 155.45312 14.240625Q155.20312 14.365625 155.10938 14.553125Q155.01562 14.740625 155.01562 15.44375L155.01562 20.44375Q155.01562 20.928125 155.10938 21.1Q155.17188 21.225 155.3125 21.2875Q155.46875 21.35 156.23438 21.35L156.8125 21.35Q157.73438 21.35 158.09375 21.209375Q158.46875 21.06875 158.76562 20.740625Q159.07812 20.396875 159.375 19.646875ZM160.10938 15.4125Q160.45312 14.615625 160.96875 14.178125Q161.48438 13.740625 162.26562 13.740625Q163.21875 13.740625 163.71875 14.365625Q164.10938 14.81875 164.10938 15.35Q164.10938 16.225 163.01562 17.146875Q163.75 17.428125 164.125 17.959375Q164.5 18.490625 164.5 19.225Q164.5 20.25625 163.84375 21.00625Q163.0 21.990625 161.375 21.990625Q160.5625 21.990625 160.26562 21.7875Q159.98438 21.584375 159.98438 21.365625Q159.98438 21.19375 160.125 21.06875Q160.26562 20.928125 160.45312 20.928125Q160.60938 20.928125 160.75 20.975Q160.85938 21.00625 161.20312 21.19375Q161.5625 21.38125 161.6875 21.4125Q161.90625 21.475 162.15625 21.475Q162.75 21.475 163.1875 21.021875Q163.64062 20.553125 163.64062 19.928125Q163.64062 19.459375 163.4375 19.021875Q163.28125 18.69375 163.09375 18.521875Q162.84375 18.2875 162.40625 18.1Q161.96875 17.9125 161.51562 17.9125L161.32812 17.9125L161.32812 17.725Q161.78125 17.678125 162.25 17.396875Q162.71875 17.115625 162.92188 16.740625Q163.14062 16.35 163.14062 15.88125Q163.14062 15.2875 162.76562 14.9125Q162.39062 14.5375 161.82812 14.5375Q160.90625 14.5375 160.29688 15.50625L160.10938 15.4125ZM167.0 20.709375Q167.28125 20.709375 167.46875 20.9125Q167.65625 21.1 167.65625 21.365625Q167.65625 21.63125 167.45312 21.834375Q167.26562 22.021875 167.0 22.021875Q166.73438 22.021875 166.53125 21.834375Q166.34375 21.63125 166.34375 21.365625Q166.34375 21.084375 166.53125 20.896875Q166.73438 20.709375 167.0 20.709375ZM174.0 20.31875L173.45312 21.85L168.76562 21.85L168.76562 21.63125Q170.82812 19.740625 171.67188 18.553125Q172.51562 17.35 172.51562 16.365625Q172.51562 15.615625 172.04688 15.13125Q171.59375 14.63125 170.9375 14.63125Q170.35938 14.63125 169.89062 14.975Q169.42188 15.31875 169.20312 15.990625L168.98438 15.990625Q169.14062 14.896875 169.73438 14.31875Q170.34375 13.740625 171.25 13.740625Q172.21875 13.740625 172.85938 14.365625Q173.51562 14.975 173.51562 15.81875Q173.51562 16.428125 173.23438 17.0375Q172.79688 17.975 171.82812 19.0375Q170.375 20.63125 170.0 20.959375L172.07812 20.959375Q172.71875 20.959375 172.96875 20.9125Q173.21875 20.865625 173.42188 20.725Q173.64062 20.584375 173.78125 20.31875L174.0 20.31875Z" fill-rule="nonzero"/><path fill="#0f9ed5" d="M202.5 17.85C202.5 21.163708 199.8137 23.85 196.5 23.85C193.1863 23.85 190.5 21.163708 190.5 17.85C190.5 14.536291 193.1863 11.85 196.5 11.85C199.8137 11.85 202.5 14.536291 202.5 17.85Z" fill-rule="nonzero"/><path fill="#1a1a1a" d="M215.40625 21.85L212.34375 15.1625L212.34375 20.475Q212.34375 21.209375 212.5 21.38125Q212.71875 21.63125 213.1875 21.63125L213.46875 21.63125L213.46875 21.85L210.70312 21.85L210.70312 21.63125L210.98438 21.63125Q211.48438 21.63125 211.70312 21.334375Q211.82812 21.146875 211.82812 20.475L211.82812 15.2875Q211.82812 14.75625 211.70312 14.521875Q211.625 14.35 211.40625 14.240625Q211.1875 14.115625 210.70312 14.115625L210.70312 13.896875L212.95312 13.896875L215.82812 20.115625L218.67188 13.896875L220.92188 13.896875L220.92188 14.115625L220.64062 14.115625Q220.14062 14.115625 219.92188 14.428125Q219.79688 14.615625 219.79688 15.2875L219.79688 20.475Q219.79688 21.209375 219.95312 21.38125Q220.17188 21.63125 220.64062 21.63125L220.92188 21.63125L220.92188 21.85L217.54688 21.85L217.54688 21.63125L217.82812 21.63125Q218.32812 21.63125 218.54688 21.334375Q218.67188 21.146875 218.67188 20.475L218.67188 15.1625L215.60938 21.85L215.40625 21.85ZM228.0 13.725L228.0 16.475L227.78125 16.475Q227.6875 15.678125 227.40625 15.209375Q227.14062 14.740625 226.625 14.475Q226.125 14.19375 225.59375 14.19375Q224.98438 14.19375 224.57812 14.56875Q224.1875 14.928125 224.1875 15.4125Q224.1875 15.771875 224.4375 16.06875Q224.79688 16.50625 226.15625 17.240625Q227.28125 17.834375 227.6875 18.1625Q228.09375 18.475 228.3125 18.9125Q228.53125 19.35 228.53125 19.81875Q228.53125 20.725 227.82812 21.38125Q227.125 22.0375 226.03125 22.0375Q225.6875 22.0375 225.375 21.975Q225.20312 21.94375 224.625 21.771875Q224.04688 21.584375 223.90625 21.584375Q223.75 21.584375 223.65625 21.678125Q223.57812 21.75625 223.54688 22.0375L223.32812 22.0375L223.32812 19.303125L223.54688 19.303125Q223.70312 20.1625 223.95312 20.584375Q224.21875 21.00625 224.73438 21.2875Q225.26562 21.56875 225.90625 21.56875Q226.64062 21.56875 227.0625 21.19375Q227.48438 20.803125 227.48438 20.271875Q227.48438 19.975 227.32812 19.678125Q227.17188 19.38125 226.82812 19.13125Q226.59375 18.94375 225.57812 18.38125Q224.5625 17.803125 224.125 17.475Q223.70312 17.13125 223.46875 16.725Q223.25 16.303125 223.25 15.81875Q223.25 14.959375 223.90625 14.35Q224.5625 13.725 225.57812 13.725Q226.20312 13.725 226.92188 14.0375Q227.25 14.178125 227.375 14.178125Q227.53125 14.178125 227.625 14.084375Q227.73438 13.990625 227.78125 13.725L228.0 13.725Z" fill-rule="nonzero"/><path fill="#a02b93" d="M256.5 17.85C256.5 21.163708 253.8137 23.85 250.5 23.85C247.1863 23.85 244.5 21.163708 244.5 17.85C244.5 14.536291 247.1863 11.85 250.5 11.85C253.8137 11.85 256.5 14.536291 256.5 17.85Z" fill-rule="nonzero"/><path fill="#1a1a1a" d="M271.85938 13.725L272.07812 16.225L271.85938 16.225Q271.5625 15.2875 271.0625 14.81875Q270.35938 14.13125 269.23438 14.13125Q267.71875 14.13125 266.9375 15.334375Q266.26562 16.35 266.26562 17.740625Q266.26562 18.88125 266.70312 19.81875Q267.15625 20.75625 267.85938 21.19375Q268.57812 21.63125 269.32812 21.63125Q269.76562 21.63125 270.17188 21.521875Q270.57812 21.4125 270.96875 21.19375L270.96875 18.896875Q270.96875 18.303125 270.875 18.115625Q270.78125 17.928125 270.59375 17.834375Q270.40625 17.740625 269.92188 17.740625L269.92188 17.50625L273.0 17.50625L273.0 17.740625L272.84375 17.740625Q272.39062 17.740625 272.21875 18.0375Q272.10938 18.25625 272.10938 18.896875L272.10938 21.334375Q271.4375 21.69375 270.78125 21.865625Q270.125 22.0375 269.3125 22.0375Q267.01562 22.0375 265.8125 20.553125Q264.92188 19.44375 264.92188 18.00625Q264.92188 16.94375 265.42188 15.990625Q266.03125 14.85 267.0625 14.225Q267.9375 13.725 269.125 13.725Q269.5625 13.725 269.90625 13.803125Q270.26562 13.865625 270.92188 14.1Q271.25 14.225 271.35938 14.225Q271.46875 14.225 271.54688 14.13125Q271.625 14.021875 271.65625 13.725L271.85938 13.725ZM277.89062 13.725Q279.4375 13.725 280.5625 14.896875Q281.70312 16.06875 281.70312 17.834375Q281.70312 19.646875 280.5625 20.85Q279.42188 22.0375 277.79688 22.0375Q276.15625 22.0375 275.03125 20.865625Q273.92188 19.69375 273.92188 17.85Q273.92188 15.959375 275.21875 14.75625Q276.32812 13.725 277.89062 13.725ZM277.78125 14.146875Q276.71875 14.146875 276.0625 14.94375Q275.26562 15.928125 275.26562 17.81875Q275.26562 19.771875 276.09375 20.81875Q276.73438 21.615625 277.78125 21.615625Q278.90625 21.615625 279.625 20.740625Q280.35938 19.865625 280.35938 17.990625Q280.35938 15.94375 279.5625 14.94375Q278.92188 14.146875 277.78125 14.146875Z" fill-rule="nonzero"/><path fill="#4ea72e" d="M310.5 17.85C310.5 21.163708 307.81372 23.85 304.5 23.85C301.18628 23.85 298.5 21.163708 298.5 17.85C298.5 14.536291 301.18628 11.85 304.5 11.85C307.81372 11.85 310.5 14.536291 310.5 17.85Z" fill-rule="nonzero"/><path fill="#1a1a1a" d="M320.96875 18.13125L320.96875 20.44375Q320.96875 21.19375 321.125 21.38125Q321.34375 21.63125 321.79688 21.63125L322.10938 21.63125L322.10938 21.85L318.70312 21.85L318.70312 21.63125L319.0 21.63125Q319.5 21.63125 319.71875 21.303125Q319.84375 21.115625 319.84375 20.44375L319.84375 15.303125Q319.84375 14.553125 319.67188 14.38125Q319.45312 14.115625 319.0 14.115625L318.70312 14.115625L318.70312 13.896875L321.60938 13.896875Q322.67188 13.896875 323.28125 14.13125Q323.90625 14.35 324.32812 14.865625Q324.75 15.38125 324.75 16.1Q324.75 17.06875 324.10938 17.678125Q323.46875 18.2875 322.29688 18.2875Q322.01562 18.2875 321.67188 18.25625Q321.34375 18.209375 320.96875 18.13125ZM320.96875 17.7875Q321.26562 17.85 321.5 17.88125Q321.75 17.9125 321.92188 17.9125Q322.53125 17.9125 322.96875 17.44375Q323.42188 16.975 323.42188 16.225Q323.42188 15.709375 323.20312 15.271875Q323.0 14.81875 322.60938 14.6Q322.21875 14.38125 321.73438 14.38125Q321.4375 14.38125 320.96875 14.490625L320.96875 17.7875ZM331.07812 18.9125L331.07812 19.75625L330.01562 19.75625L330.01562 21.85L329.04688 21.85L329.04688 19.75625L325.6875 19.75625L325.6875 19.00625L329.375 13.740625L330.01562 13.740625L330.01562 18.9125L331.07812 18.9125ZM329.04688 18.9125L329.04688 14.975L326.26562 18.9125L329.04688 18.9125Z" fill-rule="nonzero"/><path fill="#5b90a8" d="M142.0 35.85C142.0 39.163708 139.3137 41.85 136.0 41.85C132.6863 41.85 130.0 39.163708 130.0 35.85C130.0 32.536293 132.6863 29.85 136.0 29.85C139.3137 29.85 142.0 32.536293 142.0 35.85Z" fill-rule="nonzero"/><path fill="#1a1a1a" d="M150.20312 39.85L150.20312 39.63125L150.5 39.63125Q151.01562 39.63125 151.21875 39.303123Q151.34375 39.115623 151.34375 38.44375L151.34375 33.303123Q151.34375 32.56875 151.1875 32.38125Q150.95312 32.115623 150.5 32.115623L150.20312 32.115623L150.20312 31.896873L153.4375 31.896873Q155.21875 31.896873 156.14062 32.303123Q157.07812 32.709373 157.64062 33.6625Q158.20312 34.6 158.20312 35.834373Q158.20312 37.490623 157.20312 38.6Q156.07812 39.85 153.75 39.85L150.20312 39.85ZM152.46875 39.271873Q153.21875 39.44375 153.71875 39.44375Q155.07812 39.44375 155.96875 38.490623Q156.875 37.521873 156.875 35.896873Q156.875 34.240623 155.96875 33.303123Q155.07812 32.35 153.67188 32.35Q153.14062 32.35 152.46875 32.521873L152.46875 39.271873ZM160.40625 32.678123L162.34375 31.740623L162.53125 31.740623L162.53125 38.44375Q162.53125 39.115623 162.57812 39.2875Q162.64062 39.44375 162.8125 39.5375Q163.0 39.615623 163.53125 39.63125L163.53125 39.85L160.54688 39.85L160.54688 39.63125Q161.10938 39.615623 161.26562 39.5375Q161.4375 39.44375 161.5 39.303123Q161.5625 39.1625 161.5625 38.44375L161.5625 34.1625Q161.5625 33.2875 161.51562 33.053123Q161.46875 32.865623 161.35938 32.771873Q161.25 32.678123 161.09375 32.678123Q160.875 32.678123 160.5 32.865623L160.40625 32.678123Z" fill-rule="nonzero"/><path fill="#f09c70" d="M193.0 35.85C193.0 39.163708 190.3137 41.85 187.0 41.85C183.6863 41.85 181.0 39.163708 181.0 35.85C181.0 32.536293 183.6863 29.85 187.0 29.85C190.3137 29.85 193.0 32.536293 193.0 35.85Z" fill-rule="nonzero"/><path fill="#1a1a1a" d="M208.35938 31.724998L208.57812 34.225L208.35938 34.225Q208.0625 33.2875 207.5625 32.81875Q206.85938 32.13125 205.73438 32.13125Q204.21875 32.13125 203.4375 33.334373Q202.76562 34.35 202.76562 35.740623Q202.76562 36.88125 203.20312 37.81875Q203.65625 38.75625 204.35938 39.19375Q205.07812 39.63125 205.82812 39.63125Q206.26562 39.63125 206.67188 39.521873Q207.07812 39.4125 207.46875 39.19375L207.46875 36.896873Q207.46875 36.303123 207.375 36.115623Q207.28125 35.928123 207.09375 35.834373Q206.90625 35.740623 206.42188 35.740623L206.42188 35.50625L209.5 35.50625L209.5 35.740623L209.34375 35.740623Q208.89062 35.740623 208.71875 36.0375Q208.60938 36.25625 208.60938 36.896873L208.60938 39.334373Q207.9375 39.69375 207.28125 39.865623Q206.625 40.0375 205.8125 40.0375Q203.51562 40.0375 202.3125 38.553123Q201.42188 37.44375 201.42188 36.00625Q201.42188 34.94375 201.92188 33.990623Q202.53125 32.85 203.5625 32.225Q204.4375 31.724998 205.625 31.724998Q206.0625 31.724998 206.40625 31.803123Q206.76562 31.865623 207.42188 32.1Q207.75 32.225 207.85938 32.225Q207.96875 32.225 208.04688 32.13125Q208.125 32.021873 208.15625 31.724998L208.35938 31.724998ZM211.28125 36.50625Q211.26562 37.69375 211.85938 38.38125Q212.4375 39.053123 213.23438 39.053123Q213.76562 39.053123 214.15625 38.771873Q214.54688 38.475 214.8125 37.771873L214.98438 37.896873Q214.85938 38.69375 214.26562 39.365623Q213.6875 40.021873 212.79688 40.021873Q211.82812 40.021873 211.14062 39.271873Q210.45312 38.50625 210.45312 37.240623Q210.45312 35.865623 211.15625 35.1Q211.85938 34.31875 212.92188 34.31875Q213.82812 34.31875 214.40625 34.9125Q214.98438 35.50625 214.98438 36.50625L211.28125 36.50625ZM211.28125 36.1625L213.76562 36.1625Q213.73438 35.646873 213.64062 35.44375Q213.5 35.115623 213.20312 34.928123Q212.90625 34.740623 212.59375 34.740623Q212.10938 34.740623 211.71875 35.115623Q211.34375 35.490623 211.28125 36.1625ZM215.60938 33.4125Q215.95312 32.615623 216.46875 32.178123Q216.98438 31.740623 217.76562 31.740623Q218.71875 31.740623 219.21875 32.365623Q219.60938 32.81875 219.60938 33.35Q219.60938 34.225 218.51562 35.146873Q219.25 35.428123 219.625 35.959373Q220.0 36.490623 220.0 37.225Q220.0 38.25625 219.34375 39.00625Q218.5 39.990623 216.875 39.990623Q216.0625 39.990623 215.76562 39.7875Q215.48438 39.584373 215.48438 39.365623Q215.48438 39.19375 215.625 39.06875Q215.76562 38.928123 215.95312 38.928123Q216.10938 38.928123 216.25 38.975Q216.35938 39.00625 216.70312 39.19375Q217.0625 39.38125 217.1875 39.4125Q217.40625 39.475 217.65625 39.475Q218.25 39.475 218.6875 39.021873Q219.14062 38.553123 219.14062 37.928123Q219.14062 37.459373 218.9375 37.021873Q218.78125 36.69375 218.59375 36.521873Q218.34375 36.2875 217.90625 36.1Q217.46875 35.9125 217.01562 35.9125L216.82812 35.9125L216.82812 35.725Q217.28125 35.678123 217.75 35.396873Q218.21875 35.115623 218.42188 34.740623Q218.64062 34.35 218.64062 33.88125Q218.64062 33.2875 218.26562 32.9125Q217.89062 32.5375 217.32812 32.5375Q216.40625 32.5375 215.79688 33.50625L215.60938 33.4125Z" fill-rule="nonzero"/></svg>