<svg version="1.1" viewBox="0.0 0.0 351.0 217.0" fill="none" stroke="none" stroke-linecap="square" stroke-miterlimit="10" width="351" height="217" xmlns:xlink="http://www.w3.org/1999/xlink" xmlns="http://www.w3.org/2000/svg"><path fill="#ffffff" d="M0 0L351.0 0L351.0 217.0L0 217.0L0 0Z" fill-rule="nonzero"/><path stroke="#cccccc" stroke-width="1.0" stroke-linecap="butt" d="M37.5 186.5L340.5 186.5" fill-rule="nonzero"/><path stroke="#cccccc" stroke-width="1.0" stroke-linecap="butt" d="M37.5 167.5L340.5 167.5" fill-rule="nonzero"/><path stroke="#cccccc" stroke-width="1.0" stroke-linecap="butt" d="M37.5 149.5L340.5 149.5" fill-rule="nonzero"/><path stroke="#cccccc" stroke-width="1.0" stroke-linecap="butt" d="M37.5 130.5L340.5 130.5" fill-rule="nonzero"/><path stroke="#cccccc" stroke-width="1.0" stroke-linecap="butt" d="M37.5 112.5L340.5 112.5" fill-rule="nonzero"/><path stroke="#cccccc" stroke-width="1.0" stroke-linecap="butt" d="M37.5 93.5L340.5 93.5" fill-rule="nonzero"/><path stroke="#cccccc" stroke-width="1.0" stroke-linecap="butt" d="M37.5 75.5L340.5 75.5" fill-rule="nonzero"/><path stroke="#cccccc" stroke-width="1.0" stroke-linecap="butt" d="M37.5 57.5L340.5 57.5" fill-rule="nonzero"/><clipPath id="id_0"><path d="M37.85 57.083332L340.15 57.083332L340.15 186.15L37.85 186.15L37.85 57.083332Z" clip-rule="nonzero"/></clipPath><path stroke="#156082" stroke-width="2.0" stroke-linecap="butt" clip-path="url(#id_0)" d="M68.08 93.959526L128.54 121.61667L189.0 130.83571L249.46 66.30238L309.92 103.17857" fill-rule="nonzero"/><path stroke="#e97132" stroke-width="2.0" stroke-linecap="butt" clip-path="url(#id_0)" d="M68.08 167.7119L128.54 158.49286L189.0 167.7119L249.46 158.49286L309.92 140.05476" fill-rule="nonzero"/><path stroke="#196b24" stroke-width="2.0" stroke-linecap="butt" clip-path="url(#id_0)" d="M68.08 121.61667L128.54 130.83571L189.0 140.05476L249.46 93.959526L309.92 121.61667" fill-rule="nonzero"/><path stroke="#0f9ed5" stroke-width="2.0" stroke-linecap="butt" clip-path="url(#id_0)" d="M68.08 112.39762L128.54 121.61667L189.0 140.05476L249.46 93.959526L309.92 121.61667" fill-rule="nonzero"/><path stroke="#a02b93" stroke-width="2.0" stroke-linecap="butt" clip-path="url(#id_0)" d="M68.08 121.61667L128.54 149.2738L189.0 158.49286L249.46 149.2738L309.92 140.05476" fill-rule="nonzero"/><path stroke="#4ea72e" stroke-width="2.0" stroke-linecap="butt" clip-path="url(#id_0)" d="M68.08 93.959526L128.54 121.61667L189.0 103.17857L249.46 84.74048L309.92 112.39762" fill-rule="nonzero"/><path stroke="#5b90a8" stroke-width="2.0" stroke-linecap="butt" clip-path="url(#id_0)" d="M68.08 112.39762L128.54 130.83571L189.0 149.2738L249.46 121.61667L309.92 103.17857" fill-rule="nonzero"/><path stroke="#f09c70" stroke-width="2.0" stroke-linecap="butt" clip-path="url(#id_0)" d="M68.08 158.49286L128.54 158.49286L189.0 158.49286L249.46 149.2738L309.92 149.2738" fill-rule="nonzero"/><path fill="#156082" clip-path="url(#id_0)" d="M71.08 93.959526C71.08 95.61638 69.736855 96.959526 68.08 96.959526C66.42315 96.959526 65.08 95.61638 65.08 93.959526C65.08 92.30267 66.42315 90.959526 68.08 90.959526C69.736855 90.959526 71.08 92.30267 71.08 93.959526Z" fill-rule="nonzero"/><path fill="#156082" clip-path="url(#id_0)" d="M131.54 121.61667C131.54 123.27352 130.19685 124.61667 128.54 124.61667C126.88315 124.61667 125.54 123.27352 125.54 121.61667C125.54 119.959816 126.88315 118.61667 128.54 118.61667C130.19685 118.61667 131.54 119.959816 131.54 121.61667Z" fill-rule="nonzero"/><path fill="#156082" clip-path="url(#id_0)" d="M192.0 130.83571C192.0 132.49257 190.65686 133.83571 189.0 133.83571C187.34314 133.83571 186.0 132.49257 186.0 130.83571C186.0 129.17886 187.34314 127.83572 189.0 127.83572C190.65686 127.83572 192.0 129.17886 192.0 130.83571Z" fill-rule="nonzero"/><path fill="#156082" clip-path="url(#id_0)" d="M252.46 66.30238C252.46 67.959236 251.11685 69.30238 249.46 69.30238C247.80315 69.30238 246.46 67.959236 246.46 66.30238C246.46 64.64552 247.80315 63.30238 249.46 63.30238C251.11685 63.30238 252.46 64.64552 252.46 66.30238Z" fill-rule="nonzero"/><path fill="#156082" clip-path="url(#id_0)" d="M312.92 103.17857C312.92 104.83543 311.57684 106.17857 309.92 106.17857C308.26315 106.17857 306.92 104.83543 306.92 103.17857C306.92 101.52172 308.26315 100.17857 309.92 100.17857C311.57684 100.17857 312.92 101.52172 312.92 103.17857Z" fill-rule="nonzero"/><path fill="#e97132" clip-path="url(#id_0)" d="M71.08 167.7119C71.08 169.36876 69.736855 170.7119 68.08 170.7119C66.42315 170.7119 65.08 169.36876 65.08 167.7119C65.08 166.05505 66.42315 164.7119 68.08 164.7119C69.736855 164.7119 71.08 166.05505 71.08 167.7119Z" fill-rule="nonzero"/><path fill="#e97132" clip-path="url(#id_0)" d="M131.54 158.49286C131.54 160.1497 130.19685 161.49286 128.54 161.49286C126.88315 161.49286 125.54 160.1497 125.54 158.49286C125.54 156.836 126.88315 155.49286 128.54 155.49286C130.19685 155.49286 131.54 156.836 131.54 158.49286Z" fill-rule="nonzero"/><path fill="#e97132" clip-path="url(#id_0)" d="M192.0 167.7119C192.0 169.36876 190.65686 170.7119 189.0 170.7119C187.34314 170.7119 186.0 169.36876 186.0 167.7119C186.0 166.05505 187.34314 164.7119 189.0 164.7119C190.65686 164.7119 192.0 166.05505 192.0 167.7119Z" fill-rule="nonzero"/><path fill="#e97132" clip-path="url(#id_0)" d="M252.46 158.49286C252.46 160.1497 251.11685 161.49286 249.46 161.49286C247.80315 161.49286 246.46 160.1497 246.46 158.49286C246.46 156.836 247.80315 155.49286 249.46 155.49286C251.11685 155.49286 252.46 156.836 252.46 158.49286Z" fill-rule="nonzero"/><path fill="#e97132" clip-path="url(#id_0)" d="M312.92 140.05476C312.92 141.71161 311.57684 143.05476 309.92 143.05476C308.26315 143.05476 306.92 141.71161 306.92 140.05476C306.92 138.3979 308.26315 137.05476 309.92 137.05476C311.57684 137.05476 312.92 138.3979 312.92 140.05476Z" fill-rule="nonzero"/><path fill="#196b24" clip-path="url(#id_0)" d="M71.08 121.61667C71.08 123.27352 69.736855 124.61667 68.08 124.61667C66.42315 124.61667 65.08 123.27352 65.08 121.61667C65.08 119.959816 66.42315 118.61667 68.08 118.61667C69.736855 118.61667 71.08 119.959816 71.08 121.61667Z" fill-rule="nonzero"/><path fill="#196b24" clip-path="url(#id_0)" d="M131.54 130.83571C131.54 132.49257 130.19685 133.83571 128.54 133.83571C126.88315 133.83571 125.54 132.49257 125.54 130.83571C125.54 129.17886 126.88315 127.83572 128.54 127.83572C130.19685 127.83572 131.54 129.17886 131.54 130.83571Z" fill-rule="nonzero"/><path fill="#196b24" clip-path="url(#id_0)" d="M192.0 140.05476C192.0 141.71161 190.65686 143.05476 189.0 143.05476C187.34314 143.05476 186.0 141.71161 186.0 140.05476C186.0 138.3979 187.34314 137.05476 189.0 137.05476C190.65686 137.05476 192.0 138.3979 192.0 140.05476Z" fill-rule="nonzero"/><path fill="#196b24" clip-path="url(#id_0)" d="M252.46 93.959526C252.46 95.61638 251.11685 96.959526 249.46 96.959526C247.80315 96.959526 246.46 95.61638 246.46 93.959526C246.46 92.30267 247.80315 90.959526 249.46 90.959526C251.11685 90.959526 252.46 92.30267 252.46 93.959526Z" fill-rule="nonzero"/><path fill="#196b24" clip-path="url(#id_0)" d="M312.92 121.61667C312.92 123.27352 311.57684 124.61667 309.92 124.61667C308.26315 124.61667 306.92 123.27352 306.92 121.61667C306.92 119.959816 308.26315 118.61667 309.92 118.61667C311.57684 118.61667 312.92 119.959816 312.92 121.61667Z" fill-rule="nonzero"/><path fill="#0f9ed5" clip-path="url(#id_0)" d="M71.08 112.39762C71.08 114.054474 69.736855 115.39762 68.08 115.39762C66.42315 115.39762 65.08 114.054474 65.08 112.39762C65.08 110.74077 66.42315 109.39762 68.08 109.39762C69.736855 109.39762 71.08 110.74077 71.08 112.39762Z" fill-rule="nonzero"/><path fill="#0f9ed5" clip-path="url(#id_0)" d="M131.54 121.61667C131.54 123.27352 130.19685 124.61667 128.54 124.61667C126.88315 124.61667 125.54 123.27352 125.54 121.61667C125.54 119.959816 126.88315 118.61667 128.54 118.61667C130.19685 118.61667 131.54 119.959816 131.54 121.61667Z" fill-rule="nonzero"/><path fill="#0f9ed5" clip-path="url(#id_0)" d="M192.0 140.05476C192.0 141.71161 190.65686 143.05476 189.0 143.05476C187.34314 143.05476 186.0 141.71161 186.0 140.05476C186.0 138.3979 187.34314 137.05476 189.0 137.05476C190.65686 137.05476 192.0 138.3979 192.0 140.05476Z" fill-rule="nonzero"/><path fill="#0f9ed5" clip-path="url(#id_0)" d="M252.46 93.959526C252.46 95.61638 251.11685 96.959526 249.46 96.959526C247.80315 96.959526 246.46 95.61638 246.46 93.959526C246.46 92.30267 247.80315 90.959526 249.46 90.959526C251.11685 90.959526 252.46 92.30267 252.46 93.959526Z" fill-rule="nonzero"/><path fill="#0f9ed5" clip-path="url(#id_0)" d="M312.92 121.61667C312.92 123.27352 311.57684 124.61667 309.92 124.61667C308.26315 124.61667 306.92 123.27352 306.92 121.61667C306.92 119.959816 308.26315 118.61667 309.92 118.61667C311.57684 118.61667 312.92 119.959816 312.92 121.61667Z" fill-rule="nonzero"/><path fill="#a02b93" clip-path="url(#id_0)" d="M71.08 121.61667C71.08 123.27352 69.736855 124.61667 68.08 124.61667C66.42315 124.61667 65.08 123.27352 65.08 121.61667C65.08 119.959816 66.42315 118.61667 68.08 118.61667C69.736855 118.61667 71.08 119.959816 71.08 121.61667Z" fill-rule="nonzero"/><path fill="#a02b93" clip-path="url(#id_0)" d="M131.54 149.2738C131.54 150.93066 130.19685 152.2738 128.54 152.2738C126.88315 152.2738 125.54 150.93066 125.54 149.2738C125.54 147.61696 126.88315 146.2738 128.54 146.2738C130.19685 146.2738 131.54 147.61696 131.54 149.2738Z" fill-rule="nonzero"/><path fill="#a02b93" clip-path="url(#id_0)" d="M192.0 158.49286C192.0 160.1497 190.65686 161.49286 189.0 161.49286C187.34314 161.49286 186.0 160.1497 186.0 158.49286C186.0 156.836 187.34314 155.49286 189.0 155.49286C190.65686 155.49286 192.0 156.836 192.0 158.49286Z" fill-rule="nonzero"/><path fill="#a02b93" clip-path="url(#id_0)" d="M252.46 149.2738C252.46 150.93066 251.11685 152.2738 249.46 152.2738C247.80315 152.2738 246.46 150.93066 246.46 149.2738C246.46 147.61696 247.80315 146.2738 249.46 146.2738C251.11685 146.2738 252.46 147.61696 252.46 149.2738Z" fill-rule="nonzero"/><path fill="#a02b93" clip-path="url(#id_0)" d="M312.92 140.05476C312.92 141.71161 311.57684 143.05476 309.92 143.05476C308.26315 143.05476 306.92 141.71161 306.92 140.05476C306.92 138.3979 308.26315 137.05476 309.92 137.05476C311.57684 137.05476 312.92 138.3979 312.92 140.05476Z" fill-rule="nonzero"/><path fill="#4ea72e" clip-path="url(#id_0)" d="M71.08 93.959526C71.08 95.61638 69.736855 96.959526 68.08 96.959526C66.42315 96.959526 65.08 95.61638 65.08 93.959526C65.08 92.30267 66.42315 90.959526 68.08 90.959526C69.736855 90.959526 71.08 92.30267 71.08 93.959526Z" fill-rule="nonzero"/><path fill="#4ea72e" clip-path="url(#id_0)" d="M131.54 121.61667C131.54 123.27352 130.19685 124.61667 128.54 124.61667C126.88315 124.61667 125.54 123.27352 125.54 121.61667C125.54 119.959816 126.88315 118.61667 128.54 118.61667C130.19685 118.61667 131.54 119.959816 131.54 121.61667Z" fill-rule="nonzero"/><path fill="#4ea72e" clip-path="url(#id_0)" d="M192.0 103.17857C192.0 104.83543 190.65686 106.17857 189.0 106.17857C187.34314 106.17857 186.0 104.83543 186.0 103.17857C186.0 101.52172 187.34314 100.17857 189.0 100.17857C190.65686 100.17857 192.0 101.52172 192.0 103.17857Z" fill-rule="nonzero"/><path fill="#4ea72e" clip-path="url(#id_0)" d="M252.46 84.74048C252.46 86.39733 251.11685 87.74048 249.46 87.74048C247.80315 87.74048 246.46 86.39733 246.46 84.74048C246.46 83.08362 247.80315 81.74048 249.46 81.74048C251.11685 81.74048 252.46 83.08362 252.46 84.74048Z" fill-rule="nonzero"/><path fill="#4ea72e" clip-path="url(#id_0)" d="M312.92 112.39762C312.92 114.054474 311.57684 115.39762 309.92 115.39762C308.26315 115.39762 306.92 114.054474 306.92 112.39762C306.92 110.74077 308.26315 109.39762 309.92 109.39762C311.57684 109.39762 312.92 110.74077 312.92 112.39762Z" fill-rule="nonzero"/><path fill="#5b90a8" clip-path="url(#id_0)" d="M71.08 112.39762C71.08 114.054474 69.736855 115.39762 68.08 115.39762C66.42315 115.39762 65.08 114.054474 65.08 112.39762C65.08 110.74077 66.42315 109.39762 68.08 109.39762C69.736855 109.39762 71.08 110.74077 71.08 112.39762Z" fill-rule="nonzero"/><path fill="#5b90a8" clip-path="url(#id_0)" d="M131.54 130.83571C131.54 132.49257 130.19685 133.83571 128.54 133.83571C126.88315 133.83571 125.54 132.49257 125.54 130.83571C125.54 129.17886 126.88315 127.83572 128.54 127.83572C130.19685 127.83572 131.54 129.17886 131.54 130.83571Z" fill-rule="nonzero"/><path fill="#5b90a8" clip-path="url(#id_0)" d="M192.0 149.2738C192.0 150.93066 190.65686 152.2738 189.0 152.2738C187.34314 152.2738 186.0 150.93066 186.0 149.2738C186.0 147.61696 187.34314 146.2738 189.0 146.2738C190.65686 146.2738 192.0 147.61696 192.0 149.2738Z" fill-rule="nonzero"/><path fill="#5b90a8" clip-path="url(#id_0)" d="M252.46 121.61667C252.46 123.27352 251.11685 124.61667 249.46 124.61667C247.80315 124.61667 246.46 123.27352 246.46 121.61667C246.46 119.959816 247.80315 118.61667 249.46 118.61667C251.11685 118.61667 252.46 119.959816 252.46 121.61667Z" fill-rule="nonzero"/><path fill="#5b90a8" clip-path="url(#id_0)" d="M312.92 103.17857C312.92 104.83543 311.57684 106.17857 309.92 106.17857C308.26315 106.17857 306.92 104.83543 306.92 103.17857C306.92 101.52172 308.26315 100.17857 309.92 100.17857C311.57684 100.17857 312.92 101.52172 312.92 103.17857Z" fill-rule="nonzero"/><path fill="#f09c70" clip-path="url(#id_0)" d="M71.08 158.49286C71.08 160.1497 69.736855 161.49286 68.08 161.49286C66.42315 161.49286 65.08 160.1497 65.08 158.49286C65.08 156.836 66.42315 155.49286 68.08 155.49286C69.736855 155.49286 71.08 156.836 71.08 158.49286Z" fill-rule="nonzero"/><path fill="#f09c70" clip-path="url(#id_0)" d="M131.54 158.49286C131.54 160.1497 130.19685 161.49286 128.54 161.49286C126.88315 161.49286 125.54 160.1497 125.54 158.49286C125.54 156.836 126.88315 155.49286 128.54 155.49286C130.19685 155.49286 131.54 156.836 131.54 158.49286Z" fill-rule="nonzero"/><path fill="#f09c70" clip-path="url(#id_0)" d="M192.0 158.49286C192.0 160.1497 190.65686 161.49286 189.0 161.49286C187.34314 161.49286 186.0 160.1497 186.0 158.49286C186.0 156.836 187.34314 155.49286 189.0 155.49286C190.65686 155.49286 192.0 156.836 192.0 158.49286Z" fill-rule="nonzero"/><path fill="#f09c70" clip-path="url(#id_0)" d="M252.46 149.2738C252.46 150.93066 251.11685 152.2738 249.46 152.2738C247.80315 152.2738 246.46 150.93066 246.46 149.2738C246.46 147.61696 247.80315 146.2738 249.46 146.2738C251.11685 146.2738 252.46 147.61696 252.46 149.2738Z" fill-rule="nonzero"/><path fill="#f09c70" clip-path="url(#id_0)" d="M312.92 149.2738C312.92 150.93066 311.57684 152.2738 309.92 152.2738C308.26315 152.2738 306.92 150.93066 306.92 149.2738C306.92 147.61696 308.26315 146.2738 309.92 146.2738C311.57684 146.2738 312.92 147.61696 312.92 149.2738Z" fill-rule="nonzero"/><path fill="#000000" d="M11.2875 186.22812Q11.2875 184.86874 11.69375 183.88437Q12.1 182.9 12.7875 182.41562Q13.31875 182.04062 13.88125 182.04062Q14.7875 182.04062 15.521875 182.97812Q16.428125 184.11874 16.428125 186.10312Q16.428125 187.47812 16.021875 188.44687Q15.63125 189.41562 15.00625 189.85312Q14.396875 190.29062 13.81875 190.29062Q12.678125 190.29062 11.928125 188.94687Q11.2875 187.82187 11.2875 186.22812ZM12.428125 186.36874Q12.428125 188.00937 12.834375 189.04062Q13.178125 189.91562 13.834375 189.91562Q14.146875 189.91562 14.490625 189.63437Q14.834375 189.35312 15.00625 188.68124Q15.271875 187.68124 15.271875 185.8375Q15.271875 184.47812 14.990625 183.57187Q14.7875 182.9 14.44375 182.61874Q14.209375 182.43124 13.865625 182.43124Q13.475 182.43124 13.1625 182.79062Q12.740625 183.275 12.584375 184.32187Q12.428125 185.35312 12.428125 186.36874ZM18.35 189.00937Q18.63125 189.00937 18.81875 189.2125Q19.00625 189.4 19.00625 189.66562Q19.00625 189.93124 18.803125 190.13437Q18.615625 190.32187 18.35 190.32187Q18.084375 190.32187 17.88125 190.13437Q17.69375 189.93124 17.69375 189.66562Q17.69375 189.38437 17.88125 189.19687Q18.084375 189.00937 18.35 189.00937ZM25.225 182.04062L25.225 182.25937Q24.459375 182.3375 23.959375 182.57187Q23.475 182.79062 22.990625 183.275Q22.521875 183.74374 22.209375 184.3375Q21.896875 184.91562 21.678125 185.7125Q22.521875 185.13437 23.38125 185.13437Q24.19375 185.13437 24.7875 185.79062Q25.38125 186.44687 25.38125 187.47812Q25.38125 188.47812 24.7875 189.29062Q24.053125 190.29062 22.865625 190.29062Q22.053125 190.29062 21.475 189.74374Q20.365625 188.69687 20.365625 187.025Q20.365625 185.9625 20.7875 185.00937Q21.225 184.04062 22.00625 183.30624Q22.803125 182.55624 23.521875 182.30624Q24.25625 182.04062 24.896875 182.04062L25.225 182.04062ZM21.584375 186.13437Q21.475 186.93124 21.475 187.41562Q21.475 187.97812 21.678125 188.65Q21.896875 189.30624 22.303125 189.68124Q22.6 189.9625 23.0375 189.9625Q23.5375 189.9625 23.94375 189.47812Q24.35 188.99374 24.35 188.10312Q24.35 187.10312 23.94375 186.38437Q23.553125 185.65 22.81875 185.65Q22.6 185.65 22.334375 185.74374Q22.084375 185.8375 21.584375 186.13437ZM31.35 188.61874L30.803125 190.15L26.115625 190.15L26.115625 189.93124Q28.178125 188.04062 29.021875 186.85312Q29.865625 185.65 29.865625 184.66562Q29.865625 183.91562 29.396875 183.43124Q28.94375 182.93124 28.2875 182.93124Q27.709375 182.93124 27.240625 183.275Q26.771875 183.61874 26.553125 184.29062L26.334375 184.29062Q26.490625 183.19687 27.084375 182.61874Q27.69375 182.04062 28.6 182.04062Q29.56875 182.04062 30.209375 182.66562Q30.865625 183.275 30.865625 184.11874Q30.865625 184.72812 30.584375 185.3375Q30.146875 186.275 29.178125 187.3375Q27.725 188.93124 27.35 189.25937L29.428125 189.25937Q30.06875 189.25937 30.31875 189.2125Q30.56875 189.16562 30.771875 189.025Q30.990625 188.88437 31.13125 188.61874L31.35 188.61874Z" fill-rule="nonzero"/><path fill="#000000" d="M11.2875 167.79002Q11.2875 166.43065 11.69375 165.44627Q12.1 164.4619 12.7875 163.97752Q13.31875 163.60252 13.88125 163.60252Q14.7875 163.60252 15.521875 164.54002Q16.428125 165.68065 16.428125 167.66502Q16.428125 169.04002 16.021875 170.00877Q15.63125 170.97752 15.00625 171.41502Q14.396875 171.85252 13.81875 171.85252Q12.678125 171.85252 11.928125 170.50877Q11.2875 169.38377 11.2875 167.79002ZM12.428125 167.93065Q12.428125 169.57127 12.834375 170.60252Q13.178125 171.47752 13.834375 171.47752Q14.146875 171.47752 14.490625 171.19627Q14.834375 170.91502 15.00625 170.24315Q15.271875 169.24315 15.271875 167.3994Q15.271875 166.04002 14.990625 165.13377Q14.7875 164.4619 14.44375 164.18065Q14.209375 163.99315 13.865625 163.99315Q13.475 163.99315 13.1625 164.35252Q12.740625 164.8369 12.584375 165.88377Q12.428125 166.91502 12.428125 167.93065ZM18.35 170.57127Q18.63125 170.57127 18.81875 170.7744Q19.00625 170.9619 19.00625 171.22752Q19.00625 171.49315 18.803125 171.69627Q18.615625 171.88377 18.35 171.88377Q18.084375 171.88377 17.88125 171.69627Q17.69375 171.49315 17.69375 171.22752Q17.69375 170.94627 17.88125 170.75877Q18.084375 170.57127 18.35 170.57127ZM25.225 163.60252L25.225 163.82127Q24.459375 163.8994 23.959375 164.13377Q23.475 164.35252 22.990625 164.8369Q22.521875 165.30565 22.209375 165.8994Q21.896875 166.47752 21.678125 167.2744Q22.521875 166.69627 23.38125 166.69627Q24.19375 166.69627 24.7875 167.35252Q25.38125 168.00877 25.38125 169.04002Q25.38125 170.04002 24.7875 170.85252Q24.053125 171.85252 22.865625 171.85252Q22.053125 171.85252 21.475 171.30565Q20.365625 170.25877 20.365625 168.5869Q20.365625 167.5244 20.7875 166.57127Q21.225 165.60252 22.00625 164.86815Q22.803125 164.11815 23.521875 163.86815Q24.25625 163.60252 24.896875 163.60252L25.225 163.60252ZM21.584375 167.69627Q21.475 168.49315 21.475 168.97752Q21.475 169.54002 21.678125 170.2119Q21.896875 170.86815 22.303125 171.24315Q22.6 171.5244 23.0375 171.5244Q23.5375 171.5244 23.94375 171.04002Q24.35 170.55565 24.35 169.66502Q24.35 168.66502 23.94375 167.94627Q23.553125 167.2119 22.81875 167.2119Q22.6 167.2119 22.334375 167.30565Q22.084375 167.3994 21.584375 167.69627ZM31.428125 168.7744L31.428125 169.61815L30.365625 169.61815L30.365625 171.7119L29.396875 171.7119L29.396875 169.61815L26.0375 169.61815L26.0375 168.86815L29.725 163.60252L30.365625 163.60252L30.365625 168.7744L31.428125 168.7744ZM29.396875 168.7744L29.396875 164.8369L26.615625 168.7744L29.396875 168.7744Z" fill-rule="nonzero"/><path fill="#000000" d="M11.2875 149.35193Q11.2875 147.99255 11.69375 147.00818Q12.1 146.0238 12.7875 145.53943Q13.31875 145.16443 13.88125 145.16443Q14.7875 145.16443 15.521875 146.10193Q16.428125 147.24255 16.428125 149.22693Q16.428125 150.60193 16.021875 151.57068Q15.63125 152.53943 15.00625 152.97693Q14.396875 153.41443 13.81875 153.41443Q12.678125 153.41443 11.928125 152.07068Q11.2875 150.94568 11.2875 149.35193ZM12.428125 149.49255Q12.428125 151.13318 12.834375 152.16443Q13.178125 153.03943 13.834375 153.03943Q14.146875 153.03943 14.490625 152.75818Q14.834375 152.47693 15.00625 151.80505Q15.271875 150.80505 15.271875 148.9613Q15.271875 147.60193 14.990625 146.69568Q14.7875 146.0238 14.44375 145.74255Q14.209375 145.55505 13.865625 145.55505Q13.475 145.55505 13.1625 145.91443Q12.740625 146.3988 12.584375 147.44568Q12.428125 148.47693 12.428125 149.49255ZM18.35 152.13318Q18.63125 152.13318 18.81875 152.3363Q19.00625 152.5238 19.00625 152.78943Q19.00625 153.05505 18.803125 153.25818Q18.615625 153.44568 18.35 153.44568Q18.084375 153.44568 17.88125 153.25818Q17.69375 153.05505 17.69375 152.78943Q17.69375 152.50818 17.88125 152.32068Q18.084375 152.13318 18.35 152.13318ZM25.225 145.16443L25.225 145.38318Q24.459375 145.4613 23.959375 145.69568Q23.475 145.91443 22.990625 146.3988Q22.521875 146.86755 22.209375 147.4613Q21.896875 148.03943 21.678125 148.8363Q22.521875 148.25818 23.38125 148.25818Q24.19375 148.25818 24.7875 148.91443Q25.38125 149.57068 25.38125 150.60193Q25.38125 151.60193 24.7875 152.41443Q24.053125 153.41443 22.865625 153.41443Q22.053125 153.41443 21.475 152.86755Q20.365625 151.82068 20.365625 150.1488Q20.365625 149.0863 20.7875 148.13318Q21.225 147.16443 22.00625 146.43005Q22.803125 145.68005 23.521875 145.43005Q24.25625 145.16443 24.896875 145.16443L25.225 145.16443ZM21.584375 149.25818Q21.475 150.05505 21.475 150.53943Q21.475 151.10193 21.678125 151.7738Q21.896875 152.43005 22.303125 152.80505Q22.6 153.0863 23.0375 153.0863Q23.5375 153.0863 23.94375 152.60193Q24.35 152.11755 24.35 151.22693Q24.35 150.22693 23.94375 149.50818Q23.553125 148.7738 22.81875 148.7738Q22.6 148.7738 22.334375 148.86755Q22.084375 148.9613 21.584375 149.25818ZM31.225 145.16443L31.225 145.38318Q30.459375 145.4613 29.959375 145.69568Q29.475 145.91443 28.990625 146.3988Q28.521875 146.86755 28.209375 147.4613Q27.896875 148.03943 27.678125 148.8363Q28.521875 148.25818 29.38125 148.25818Q30.19375 148.25818 30.7875 148.91443Q31.38125 149.57068 31.38125 150.60193Q31.38125 151.60193 30.7875 152.41443Q30.053125 153.41443 28.865625 153.41443Q28.053125 153.41443 27.475 152.86755Q26.365625 151.82068 26.365625 150.1488Q26.365625 149.0863 26.7875 148.13318Q27.225 147.16443 28.00625 146.43005Q28.803125 145.68005 29.521875 145.43005Q30.25625 145.16443 30.896875 145.16443L31.225 145.16443ZM27.584375 149.25818Q27.475 150.05505 27.475 150.53943Q27.475 151.10193 27.678125 151.7738Q27.896875 152.43005 28.303125 152.80505Q28.6 153.0863 29.0375 153.0863Q29.5375 153.0863 29.94375 152.60193Q30.35 152.11755 30.35 151.22693Q30.35 150.22693 29.94375 149.50818Q29.553125 148.7738 28.81875 148.7738Q28.6 148.7738 28.334375 148.86755Q28.084375 148.9613 27.584375 149.25818Z" fill-rule="nonzero"/><path fill="#000000" d="M11.2875 130.91383Q11.2875 129.55446 11.69375 128.57008Q12.1 127.58571 12.7875 127.10133Q13.31875 126.72633 13.88125 126.72633Q14.7875 126.72633 15.521875 127.66383Q16.428125 128.80446 16.428125 130.78883Q16.428125 132.16383 16.021875 133.13258Q15.63125 134.10133 15.00625 134.53883Q14.396875 134.97633 13.81875 134.97633Q12.678125 134.97633 11.928125 133.63258Q11.2875 132.50758 11.2875 130.91383ZM12.428125 131.05446Q12.428125 132.69508 12.834375 133.72633Q13.178125 134.60133 13.834375 134.60133Q14.146875 134.60133 14.490625 134.32008Q14.834375 134.03883 15.00625 133.36696Q15.271875 132.36696 15.271875 130.52321Q15.271875 129.16383 14.990625 128.25758Q14.7875 127.58571 14.44375 127.30446Q14.209375 127.11696 13.865625 127.11696Q13.475 127.11696 13.1625 127.47633Q12.740625 127.96071 12.584375 129.00758Q12.428125 130.03883 12.428125 131.05446ZM18.35 133.69508Q18.63125 133.69508 18.81875 133.89821Q19.00625 134.08571 19.00625 134.35133Q19.00625 134.61696 18.803125 134.82008Q18.615625 135.00758 18.35 135.00758Q18.084375 135.00758 17.88125 134.82008Q17.69375 134.61696 17.69375 134.35133Q17.69375 134.07008 17.88125 133.88258Q18.084375 133.69508 18.35 133.69508ZM25.225 126.72633L25.225 126.94508Q24.459375 127.02321 23.959375 127.25758Q23.475 127.47633 22.990625 127.96071Q22.521875 128.42946 22.209375 129.02321Q21.896875 129.60133 21.678125 130.39821Q22.521875 129.82008 23.38125 129.82008Q24.19375 129.82008 24.7875 130.47633Q25.38125 131.13258 25.38125 132.16383Q25.38125 133.16383 24.7875 133.97633Q24.053125 134.97633 22.865625 134.97633Q22.053125 134.97633 21.475 134.42946Q20.365625 133.38258 20.365625 131.71071Q20.365625 130.64821 20.7875 129.69508Q21.225 128.72633 22.00625 127.99196Q22.803125 127.24196 23.521875 126.99196Q24.25625 126.72633 24.896875 126.72633L25.225 126.72633ZM21.584375 130.82008Q21.475 131.61696 21.475 132.10133Q21.475 132.66383 21.678125 133.33571Q21.896875 133.99196 22.303125 134.36696Q22.6 134.64821 23.0375 134.64821Q23.5375 134.64821 23.94375 134.16383Q24.35 133.67946 24.35 132.78883Q24.35 131.78883 23.94375 131.07008Q23.553125 130.33571 22.81875 130.33571Q22.6 130.33571 22.334375 130.42946Q22.084375 130.52321 21.584375 130.82008ZM28.146875 130.83571Q27.209375 130.05446 26.928125 129.58571Q26.6625 129.11696 26.6625 128.61696Q26.6625 127.85133 27.25625 127.28883Q27.865625 126.72633 28.85 126.72633Q29.81875 126.72633 30.396875 127.25758Q30.990625 127.77321 30.990625 128.42946Q30.990625 128.88258 30.6625 129.35133Q30.35 129.80446 29.35 130.42946Q30.38125 131.22633 30.709375 131.69508Q31.1625 132.28883 31.1625 132.94508Q31.1625 133.78883 30.521875 134.38258Q29.88125 134.97633 28.85 134.97633Q27.709375 134.97633 27.084375 134.27321Q26.584375 133.69508 26.584375 133.02321Q26.584375 132.49196 26.928125 131.97633Q27.2875 131.46071 28.146875 130.83571ZM29.06875 130.21071Q29.771875 129.57008 29.959375 129.21071Q30.146875 128.83571 30.146875 128.38258Q30.146875 127.75758 29.803125 127.41383Q29.459375 127.07008 28.865625 127.07008Q28.271875 127.07008 27.896875 127.41383Q27.521875 127.75758 27.521875 128.22633Q27.521875 128.52321 27.6625 128.83571Q27.81875 129.13258 28.115625 129.41383L29.06875 130.21071ZM28.428125 131.05446Q27.94375 131.46071 27.709375 131.94508Q27.475 132.42946 27.475 132.99196Q27.475 133.75758 27.88125 134.21071Q28.303125 134.66383 28.94375 134.66383Q29.56875 134.66383 29.94375 134.30446Q30.334375 133.94508 30.334375 133.42946Q30.334375 133.00758 30.115625 132.67946Q29.69375 132.05446 28.428125 131.05446Z" fill-rule="nonzero"/><path fill="#000000" d="M11.2875 112.475746Q11.2875 111.11637 11.69375 110.131996Q12.1 109.14762 12.7875 108.663246Q13.31875 108.288246 13.88125 108.288246Q14.7875 108.288246 15.521875 109.225746Q16.428125 110.36637 16.428125 112.350746Q16.428125 113.725746 16.021875 114.694496Q15.63125 115.663246 15.00625 116.100746Q14.396875 116.538246 13.81875 116.538246Q12.678125 116.538246 11.928125 115.194496Q11.2875 114.069496 11.2875 112.475746ZM12.428125 112.61637Q12.428125 114.256996 12.834375 115.288246Q13.178125 116.163246 13.834375 116.163246Q14.146875 116.163246 14.490625 115.881996Q14.834375 115.600746 15.00625 114.92887Q15.271875 113.92887 15.271875 112.08512Q15.271875 110.725746 14.990625 109.819496Q14.7875 109.14762 14.44375 108.86637Q14.209375 108.67887 13.865625 108.67887Q13.475 108.67887 13.1625 109.038246Q12.740625 109.52262 12.584375 110.569496Q12.428125 111.600746 12.428125 112.61637ZM18.35 115.256996Q18.63125 115.256996 18.81875 115.46012Q19.00625 115.64762 19.00625 115.913246Q19.00625 116.17887 18.803125 116.381996Q18.615625 116.569496 18.35 116.569496Q18.084375 116.569496 17.88125 116.381996Q17.69375 116.17887 17.69375 115.913246Q17.69375 115.631996 17.88125 115.444496Q18.084375 115.256996 18.35 115.256996ZM21.053125 108.444496L25.31875 108.444496L25.31875 108.67887L22.6625 116.569496L22.00625 116.569496L24.38125 109.413246L22.19375 109.413246Q21.5375 109.413246 21.25625 109.569496Q20.771875 109.83512 20.459375 110.39762L20.303125 110.33512L21.053125 108.444496ZM26.2875 112.475746Q26.2875 111.11637 26.69375 110.131996Q27.1 109.14762 27.7875 108.663246Q28.31875 108.288246 28.88125 108.288246Q29.7875 108.288246 30.521875 109.225746Q31.428125 110.36637 31.428125 112.350746Q31.428125 113.725746 31.021875 114.694496Q30.63125 115.663246 30.00625 116.100746Q29.396875 116.538246 28.81875 116.538246Q27.678125 116.538246 26.928125 115.194496Q26.2875 114.069496 26.2875 112.475746ZM27.428125 112.61637Q27.428125 114.256996 27.834375 115.288246Q28.178125 116.163246 28.834375 116.163246Q29.146875 116.163246 29.490625 115.881996Q29.834375 115.600746 30.00625 114.92887Q30.271875 113.92887 30.271875 112.08512Q30.271875 110.725746 29.990625 109.819496Q29.7875 109.14762 29.44375 108.86637Q29.209375 108.67887 28.865625 108.67887Q28.475 108.67887 28.1625 109.038246Q27.740625 109.52262 27.584375 110.569496Q27.428125 111.600746 27.428125 112.61637Z" fill-rule="nonzero"/><path fill="#000000" d="M11.2875 94.03765Q11.2875 92.678276 11.69375 91.6939Q12.1 90.709526 12.7875 90.22515Q13.31875 89.85015 13.88125 89.85015Q14.7875 89.85015 15.521875 90.78765Q16.428125 91.928276 16.428125 93.91265Q16.428125 95.28765 16.021875 96.2564Q15.63125 97.22515 15.00625 97.66265Q14.396875 98.10015 13.81875 98.10015Q12.678125 98.10015 11.928125 96.7564Q11.2875 95.6314 11.2875 94.03765ZM12.428125 94.178276Q12.428125 95.8189 12.834375 96.85015Q13.178125 97.72515 13.834375 97.72515Q14.146875 97.72515 14.490625 97.4439Q14.834375 97.16265 15.00625 96.490776Q15.271875 95.490776 15.271875 93.647026Q15.271875 92.28765 14.990625 91.3814Q14.7875 90.709526 14.44375 90.428276Q14.209375 90.240776 13.865625 90.240776Q13.475 90.240776 13.1625 90.60015Q12.740625 91.084526 12.584375 92.1314Q12.428125 93.16265 12.428125 94.178276ZM18.35 96.8189Q18.63125 96.8189 18.81875 97.022026Q19.00625 97.209526 19.00625 97.47515Q19.00625 97.740776 18.803125 97.9439Q18.615625 98.1314 18.35 98.1314Q18.084375 98.1314 17.88125 97.9439Q17.69375 97.740776 17.69375 97.47515Q17.69375 97.1939 17.88125 97.0064Q18.084375 96.8189 18.35 96.8189ZM21.053125 90.0064L25.31875 90.0064L25.31875 90.240776L22.6625 98.1314L22.00625 98.1314L24.38125 90.97515L22.19375 90.97515Q21.5375 90.97515 21.25625 91.1314Q20.771875 91.397026 20.459375 91.959526L20.303125 91.897026L21.053125 90.0064ZM31.35 96.428276L30.803125 97.959526L26.115625 97.959526L26.115625 97.740776Q28.178125 95.85015 29.021875 94.66265Q29.865625 93.459526 29.865625 92.47515Q29.865625 91.72515 29.396875 91.240776Q28.94375 90.740776 28.2875 90.740776Q27.709375 90.740776 27.240625 91.084526Q26.771875 91.428276 26.553125 92.10015L26.334375 92.10015Q26.490625 91.0064 27.084375 90.428276Q27.69375 89.85015 28.6 89.85015Q29.56875 89.85015 30.209375 90.47515Q30.865625 91.084526 30.865625 91.928276Q30.865625 92.53765 30.584375 93.147026Q30.146875 94.084526 29.178125 95.147026Q27.725 96.740776 27.35 97.0689L29.428125 97.0689Q30.06875 97.0689 30.31875 97.022026Q30.56875 96.97515 30.771875 96.834526Q30.990625 96.6939 31.13125 96.428276L31.35 96.428276Z" fill-rule="nonzero"/><path fill="#000000" d="M11.2875 75.599556Q11.2875 74.24018 11.69375 73.255806Q12.1 72.27143 12.7875 71.787056Q13.31875 71.412056 13.88125 71.412056Q14.7875 71.412056 15.521875 72.349556Q16.428125 73.49018 16.428125 75.474556Q16.428125 76.849556 16.021875 77.818306Q15.63125 78.787056 15.00625 79.224556Q14.396875 79.662056 13.81875 79.662056Q12.678125 79.662056 11.928125 78.318306Q11.2875 77.193306 11.2875 75.599556ZM12.428125 75.74018Q12.428125 77.380806 12.834375 78.412056Q13.178125 79.287056 13.834375 79.287056Q14.146875 79.287056 14.490625 79.005806Q14.834375 78.724556 15.00625 78.05268Q15.271875 77.05268 15.271875 75.20893Q15.271875 73.849556 14.990625 72.943306Q14.7875 72.27143 14.44375 71.99018Q14.209375 71.80268 13.865625 71.80268Q13.475 71.80268 13.1625 72.162056Q12.740625 72.64643 12.584375 73.693306Q12.428125 74.724556 12.428125 75.74018ZM18.35 78.380806Q18.63125 78.380806 18.81875 78.58393Q19.00625 78.77143 19.00625 79.037056Q19.00625 79.30268 18.803125 79.505806Q18.615625 79.693306 18.35 79.693306Q18.084375 79.693306 17.88125 79.505806Q17.69375 79.30268 17.69375 79.037056Q17.69375 78.755806 17.88125 78.568306Q18.084375 78.380806 18.35 78.380806ZM21.053125 71.568306L25.31875 71.568306L25.31875 71.80268L22.6625 79.693306L22.00625 79.693306L24.38125 72.537056L22.19375 72.537056Q21.5375 72.537056 21.25625 72.693306Q20.771875 72.95893 20.459375 73.52143L20.303125 73.45893L21.053125 71.568306ZM31.428125 76.58393L31.428125 77.42768L30.365625 77.42768L30.365625 79.52143L29.396875 79.52143L29.396875 77.42768L26.0375 77.42768L26.0375 76.67768L29.725 71.412056L30.365625 71.412056L30.365625 76.58393L31.428125 76.58393ZM29.396875 76.58393L29.396875 72.64643L26.615625 76.58393L29.396875 76.58393Z" fill-rule="nonzero"/><path fill="#000000" d="M11.2875 57.161457Q11.2875 55.802082 11.69375 54.817707Q12.1 53.833332 12.7875 53.348957Q13.31875 52.973957 13.88125 52.973957Q14.7875 52.973957 15.521875 53.911457Q16.428125 55.052082 16.428125 57.036457Q16.428125 58.411457 16.021875 59.380207Q15.63125 60.348957 15.00625 60.786457Q14.396875 61.223957 13.81875 61.223957Q12.678125 61.223957 11.928125 59.880207Q11.2875 58.755207 11.2875 57.161457ZM12.428125 57.302082Q12.428125 58.942707 12.834375 59.973957Q13.178125 60.848957 13.834375 60.848957Q14.146875 60.848957 14.490625 60.567707Q14.834375 60.286457 15.00625 59.614582Q15.271875 58.614582 15.271875 56.770832Q15.271875 55.411457 14.990625 54.505207Q14.7875 53.833332 14.44375 53.552082Q14.209375 53.364582 13.865625 53.364582Q13.475 53.364582 13.1625 53.723957Q12.740625 54.208332 12.584375 55.255207Q12.428125 56.286457 12.428125 57.302082ZM18.35 59.942707Q18.63125 59.942707 18.81875 60.145832Q19.00625 60.333332 19.00625 60.598957Q19.00625 60.864582 18.803125 61.067707Q18.615625 61.255207 18.35 61.255207Q18.084375 61.255207 17.88125 61.067707Q17.69375 60.864582 17.69375 60.598957Q17.69375 60.317707 17.88125 60.130207Q18.084375 59.942707 18.35 59.942707ZM21.053125 53.130207L25.31875 53.130207L25.31875 53.364582L22.6625 61.255207L22.00625 61.255207L24.38125 54.098957L22.19375 54.098957Q21.5375 54.098957 21.25625 54.255207Q20.771875 54.520832 20.459375 55.083332L20.303125 55.020832L21.053125 53.130207ZM31.225 52.973957L31.225 53.192707Q30.459375 53.270832 29.959375 53.505207Q29.475 53.723957 28.990625 54.208332Q28.521875 54.677082 28.209375 55.270832Q27.896875 55.848957 27.678125 56.645832Q28.521875 56.067707 29.38125 56.067707Q30.19375 56.067707 30.7875 56.723957Q31.38125 57.380207 31.38125 58.411457Q31.38125 59.411457 30.7875 60.223957Q30.053125 61.223957 28.865625 61.223957Q28.053125 61.223957 27.475 60.677082Q26.365625 59.630207 26.365625 57.958332Q26.365625 56.895832 26.7875 55.942707Q27.225 54.973957 28.00625 54.239582Q28.803125 53.489582 29.521875 53.239582Q30.25625 52.973957 30.896875 52.973957L31.225 52.973957ZM27.584375 57.067707Q27.475 57.864582 27.475 58.348957Q27.475 58.911457 27.678125 59.583332Q27.896875 60.239582 28.303125 60.614582Q28.6 60.895832 29.0375 60.895832Q29.5375 60.895832 29.94375 60.411457Q30.35 59.927082 30.35 59.036457Q30.35 58.036457 29.94375 57.317707Q29.553125 56.583332 28.81875 56.583332Q28.6 56.583332 28.334375 56.677082Q28.084375 56.770832 27.584375 57.067707Z" fill-rule="nonzero"/><path fill="#000000" d="M57.48625 195.97812L59.42375 195.04062L59.61125 195.04062L59.61125 201.74374Q59.61125 202.41562 59.658127 202.5875Q59.720627 202.74374 59.8925 202.8375Q60.08 202.91562 60.61125 202.93124L60.61125 203.15L57.626877 203.15L57.626877 202.93124Q58.189377 202.91562 58.345627 202.8375Q58.5175 202.74374 58.58 202.60312Q58.6425 202.4625 58.6425 201.74374L58.6425 197.4625Q58.6425 196.5875 58.595627 196.35312Q58.54875 196.16562 58.439377 196.07187Q58.33 195.97812 58.17375 195.97812Q57.955 195.97812 57.58 196.16562L57.48625 195.97812ZM71.18938 198.00937Q71.97063 198.86874 72.53313 199.30624Q73.11125 199.74374 73.61125 199.9625L73.61125 200.22812Q73.03313 200.50937 72.48625 200.94687Q71.93938 201.38437 71.18938 202.22812L70.73625 202.22812Q71.28313 201.05624 71.8925 200.41562L62.54875 200.41562L62.54875 199.82187L71.8925 199.82187Q71.43938 199.25937 71.2675 198.99374Q71.09563 198.7125 70.75188 198.00937L71.18938 198.00937ZM79.58 201.61874L79.03313 203.15L74.34563 203.15L74.34563 202.93124Q76.40813 201.04062 77.25188 199.85312Q78.09563 198.65 78.09563 197.66562Q78.09563 196.91562 77.62688 196.43124Q77.17375 195.93124 76.5175 195.93124Q75.93938 195.93124 75.47063 196.275Q75.00188 196.61874 74.78313 197.29062L74.56438 197.29062Q74.72063 196.19687 75.31438 195.61874Q75.92375 195.04062 76.83 195.04062Q77.79875 195.04062 78.43938 195.66562Q79.09563 196.275 79.09563 197.11874Q79.09563 197.72812 78.81438 198.3375Q78.37688 199.275 77.40813 200.3375Q75.955 201.93124 75.58 202.25937L77.65813 202.25937Q78.29875 202.25937 78.54875 202.2125Q78.79875 202.16562 79.00188 202.025Q79.22063 201.88437 79.36125 201.61874L79.58 201.61874Z" fill-rule="nonzero"/><path fill="#000000" d="M122.04 201.61874L121.493126 203.15L116.805626 203.15L116.805626 202.93124Q118.868126 201.04062 119.711876 199.85312Q120.555626 198.65 120.555626 197.66562Q120.555626 196.91562 120.086876 196.43124Q119.63375 195.93124 118.9775 195.93124Q118.399376 195.93124 117.930626 196.275Q117.461876 196.61874 117.243126 197.29062L117.024376 197.29062Q117.180626 196.19687 117.774376 195.61874Q118.38375 195.04062 119.29 195.04062Q120.25875 195.04062 120.899376 195.66562Q121.555626 196.275 121.555626 197.11874Q121.555626 197.72812 121.274376 198.3375Q120.836876 199.275 119.868126 200.3375Q118.415 201.93124 118.04 202.25937L120.118126 202.25937Q120.75875 202.25937 121.00875 202.2125Q121.25875 202.16562 121.461876 202.025Q121.680626 201.88437 121.82125 201.61874L122.04 201.61874ZM131.64938 198.00937Q132.43063 198.86874 132.99313 199.30624Q133.57126 199.74374 134.07126 199.9625L134.07126 200.22812Q133.49313 200.50937 132.94626 200.94687Q132.39938 201.38437 131.64938 202.22812L131.19626 202.22812Q131.74313 201.05624 132.35251 200.41562L123.00875 200.41562L123.00875 199.82187L132.35251 199.82187Q131.89938 199.25937 131.72751 198.99374Q131.55563 198.7125 131.21188 198.00937L131.64938 198.00937ZM135.14938 196.7125Q135.49313 195.91562 136.00876 195.47812Q136.52438 195.04062 137.30563 195.04062Q138.25876 195.04062 138.75876 195.66562Q139.14938 196.11874 139.14938 196.65Q139.14938 197.525 138.05563 198.44687Q138.79001 198.72812 139.16501 199.25937Q139.54001 199.79062 139.54001 200.525Q139.54001 201.55624 138.88376 202.30624Q138.04001 203.29062 136.41501 203.29062Q135.60251 203.29062 135.30563 203.0875Q135.02438 202.88437 135.02438 202.66562Q135.02438 202.49374 135.16501 202.36874Q135.30563 202.22812 135.49313 202.22812Q135.64938 202.22812 135.79001 202.275Q135.89938 202.30624 136.24313 202.49374Q136.60251 202.68124 136.72751 202.7125Q136.94626 202.775 137.19626 202.775Q137.79001 202.775 138.22751 202.32187Q138.68063 201.85312 138.68063 201.22812Q138.68063 200.75937 138.47751 200.32187Q138.32126 199.99374 138.13376 199.82187Q137.88376 199.5875 137.44626 199.4Q137.00876 199.2125 136.55563 199.2125L136.36813 199.2125L136.36813 199.025Q136.82126 198.97812 137.29001 198.69687Q137.75876 198.41562 137.96188 198.04062Q138.18063 197.65 138.18063 197.18124Q138.18063 196.5875 137.80563 196.2125Q137.43063 195.8375 136.86813 195.8375Q135.94626 195.8375 135.33688 196.80624L135.14938 196.7125Z" fill-rule="nonzero"/><path fill="#000000" d="M177.60938 196.7125Q177.95312 195.91562 178.46875 195.47812Q178.98438 195.04062 179.76562 195.04062Q180.71875 195.04062 181.21875 195.66562Q181.60938 196.11874 181.60938 196.65Q181.60938 197.525 180.51562 198.44687Q181.25 198.72812 181.625 199.25937Q182.0 199.79062 182.0 200.525Q182.0 201.55624 181.34375 202.30624Q180.5 203.29062 178.875 203.29062Q178.0625 203.29062 177.76562 203.0875Q177.48438 202.88437 177.48438 202.66562Q177.48438 202.49374 177.625 202.36874Q177.76562 202.22812 177.95312 202.22812Q178.10938 202.22812 178.25 202.275Q178.35938 202.30624 178.70312 202.49374Q179.0625 202.68124 179.1875 202.7125Q179.40625 202.775 179.65625 202.775Q180.25 202.775 180.6875 202.32187Q181.14062 201.85312 181.14062 201.22812Q181.14062 200.75937 180.9375 200.32187Q180.78125 199.99374 180.59375 199.82187Q180.34375 199.5875 179.90625 199.4Q179.46875 199.2125 179.01562 199.2125L178.82812 199.2125L178.82812 199.025Q179.28125 198.97812 179.75 198.69687Q180.21875 198.41562 180.42188 198.04062Q180.64062 197.65 180.64062 197.18124Q180.64062 196.5875 180.26562 196.2125Q179.89062 195.8375 179.32812 195.8375Q178.40625 195.8375 177.79688 196.80624L177.60938 196.7125ZM192.10938 198.00937Q192.89062 198.86874 193.45312 199.30624Q194.03125 199.74374 194.53125 199.9625L194.53125 200.22812Q193.95312 200.50937 193.40625 200.94687Q192.85938 201.38437 192.10938 202.22812L191.65625 202.22812Q192.20312 201.05624 192.8125 200.41562L183.46875 200.41562L183.46875 199.82187L192.8125 199.82187Q192.35938 199.25937 192.1875 198.99374Q192.01562 198.7125 191.67188 198.00937L192.10938 198.00937ZM200.57812 200.2125L200.57812 201.05624L199.51562 201.05624L199.51562 203.15L198.54688 203.15L198.54688 201.05624L195.1875 201.05624L195.1875 200.30624L198.875 195.04062L199.51562 195.04062L199.51562 200.2125L200.57812 200.2125ZM198.54688 200.2125L198.54688 196.275L195.76562 200.2125L198.54688 200.2125Z" fill-rule="nonzero"/><path fill="#000000" d="M243.03813 200.2125L243.03813 201.05624L241.97563 201.05624L241.97563 203.15L241.00688 203.15L241.00688 201.05624L237.6475 201.05624L237.6475 200.30624L241.335 195.04062L241.97563 195.04062L241.97563 200.2125L243.03813 200.2125ZM241.00688 200.2125L241.00688 196.275L238.22563 200.2125L241.00688 200.2125ZM252.56938 198.00937Q253.35063 198.86874 253.91313 199.30624Q254.49126 199.74374 254.99126 199.9625L254.99126 200.22812Q254.41313 200.50937 253.86626 200.94687Q253.31938 201.38437 252.56938 202.22812L252.11626 202.22812Q252.66313 201.05624 253.2725 200.41562L243.92876 200.41562L243.92876 199.82187L253.2725 199.82187Q252.81938 199.25937 252.6475 198.99374Q252.47563 198.7125 252.13188 198.00937L252.56938 198.00937ZM260.66315 195.19687L260.21002 196.19687L257.8194 196.19687L257.30377 197.25937Q258.85065 197.49374 259.7569 198.41562Q260.53815 199.2125 260.53815 200.29062Q260.53815 200.91562 260.28815 201.4625Q260.03815 201.99374 259.64752 202.36874Q259.2569 202.74374 258.78815 202.9625Q258.11627 203.29062 257.39752 203.29062Q256.67877 203.29062 256.35065 203.05624Q256.03815 202.80624 256.03815 202.50937Q256.03815 202.35312 256.16315 202.22812Q256.30377 202.0875 256.5069 202.0875Q256.66315 202.0875 256.77252 202.13437Q256.89752 202.18124 257.16315 202.38437Q257.60065 202.68124 258.05377 202.68124Q258.74127 202.68124 259.2569 202.16562Q259.77252 201.65 259.77252 200.9Q259.77252 200.18124 259.30377 199.55624Q258.85065 198.93124 258.03815 198.60312Q257.39752 198.3375 256.30377 198.29062L257.8194 195.19687L260.66315 195.19687Z" fill-rule="nonzero"/><path fill="#000000" d="M303.12314 195.19687L302.67 196.19687L300.2794 196.19687L299.76376 197.25937Q301.31064 197.49374 302.2169 198.41562Q302.99814 199.2125 302.99814 200.29062Q302.99814 200.91562 302.74814 201.4625Q302.49814 201.99374 302.1075 202.36874Q301.7169 202.74374 301.24814 202.9625Q300.57626 203.29062 299.8575 203.29062Q299.13876 203.29062 298.81064 203.05624Q298.49814 202.80624 298.49814 202.50937Q298.49814 202.35312 298.62314 202.22812Q298.76376 202.0875 298.9669 202.0875Q299.12314 202.0875 299.2325 202.13437Q299.3575 202.18124 299.62314 202.38437Q300.06064 202.68124 300.51376 202.68124Q301.20126 202.68124 301.7169 202.16562Q302.2325 201.65 302.2325 200.9Q302.2325 200.18124 301.76376 199.55624Q301.31064 198.93124 300.49814 198.60312Q299.8575 198.3375 298.76376 198.29062L300.2794 195.19687L303.12314 195.19687ZM313.0294 198.00937Q313.81064 198.86874 314.37314 199.30624Q314.95126 199.74374 315.45126 199.9625L315.45126 200.22812Q314.87314 200.50937 314.32626 200.94687Q313.7794 201.38437 313.0294 202.22812L312.57626 202.22812Q313.12314 201.05624 313.7325 200.41562L304.38876 200.41562L304.38876 199.82187L313.7325 199.82187Q313.2794 199.25937 313.1075 198.99374Q312.93564 198.7125 312.5919 198.00937L313.0294 198.00937ZM321.295 195.04062L321.295 195.25937Q320.5294 195.3375 320.0294 195.57187Q319.545 195.79062 319.06064 196.275Q318.5919 196.74374 318.2794 197.3375Q317.9669 197.91562 317.74814 198.7125Q318.5919 198.13437 319.45126 198.13437Q320.26376 198.13437 320.8575 198.79062Q321.45126 199.44687 321.45126 200.47812Q321.45126 201.47812 320.8575 202.29062Q320.12314 203.29062 318.93564 203.29062Q318.12314 203.29062 317.545 202.74374Q316.43564 201.69687 316.43564 200.025Q316.43564 198.9625 316.8575 198.00937Q317.295 197.04062 318.07626 196.30624Q318.87314 195.55624 319.5919 195.30624Q320.32626 195.04062 320.9669 195.04062L321.295 195.04062ZM317.6544 199.13437Q317.545 199.93124 317.545 200.41562Q317.545 200.97812 317.74814 201.65Q317.9669 202.30624 318.37314 202.68124Q318.67 202.9625 319.1075 202.9625Q319.6075 202.9625 320.01376 202.47812Q320.42 201.99374 320.42 201.10312Q320.42 200.10312 320.01376 199.38437Q319.62314 198.65 318.88876 198.65Q318.67 198.65 318.4044 198.74374Q318.1544 198.8375 317.6544 199.13437Z" fill-rule="nonzero"/><path fill="#156082" d="M31.5 17.85C31.5 21.163708 28.81371 23.85 25.5 23.85C22.18629 23.85 19.5 21.163708 19.5 17.85C19.5 14.536291 22.18629 11.85 25.5 11.85C28.81371 11.85 31.5 14.536291 31.5 17.85Z" fill-rule="nonzero"/><path fill="#1a1a1a" d="M46.859375 13.725L47.078125 16.225L46.859375 16.225Q46.5625 15.2875 46.0625 14.81875Q45.359375 14.13125 44.234375 14.13125Q42.71875 14.13125 41.9375 15.334375Q41.265625 16.35 41.265625 17.740625Q41.265625 18.88125 41.703125 19.81875Q42.15625 20.75625 42.859375 21.19375Q43.578125 21.63125 44.328125 21.63125Q44.765625 21.63125 45.171875 21.521875Q45.578125 21.4125 45.96875 21.19375L45.96875 18.896875Q45.96875 18.303125 45.875 18.115625Q45.78125 17.928125 45.59375 17.834375Q45.40625 17.740625 44.921875 17.740625L44.921875 17.50625L48.0 17.50625L48.0 17.740625L47.84375 17.740625Q47.390625 17.740625 47.21875 18.0375Q47.109375 18.25625 47.109375 18.896875L47.109375 21.334375Q46.4375 21.69375 45.78125 21.865625Q45.125 22.0375 44.3125 22.0375Q42.015625 22.0375 40.8125 20.553125Q39.921875 19.44375 39.921875 18.00625Q39.921875 16.94375 40.421875 15.990625Q41.03125 14.85 42.0625 14.225Q42.9375 13.725 44.125 13.725Q44.5625 13.725 44.90625 13.803125Q45.265625 13.865625 45.921875 14.1Q46.25 14.225 46.359375 14.225Q46.46875 14.225 46.546875 14.13125Q46.625 14.021875 46.65625 13.725L46.859375 13.725ZM50.453125 16.31875L50.453125 17.5375Q51.125 16.31875 51.828125 16.31875Q52.15625 16.31875 52.359375 16.521875Q52.578125 16.709375 52.578125 16.975Q52.578125 17.209375 52.421875 17.365625Q52.265625 17.521875 52.0625 17.521875Q51.859375 17.521875 51.59375 17.31875Q51.34375 17.115625 51.21875 17.115625Q51.109375 17.115625 50.984375 17.225Q50.734375 17.475 50.453125 18.021875L50.453125 20.6Q50.453125 21.0375 50.5625 21.271875Q50.640625 21.428125 50.828125 21.5375Q51.015625 21.63125 51.390625 21.63125L51.390625 21.85L48.640625 21.85L48.640625 21.63125Q49.046875 21.63125 49.25 21.50625Q49.390625 21.4125 49.453125 21.209375Q49.484375 21.115625 49.484375 20.646875L49.484375 18.56875Q49.484375 17.63125 49.4375 17.459375Q49.40625 17.271875 49.296875 17.19375Q49.203125 17.1 49.046875 17.1Q48.859375 17.1 48.640625 17.19375L48.578125 16.975L50.203125 16.31875L50.453125 16.31875ZM58.078125 18.9125L58.078125 19.75625L57.015625 19.75625L57.015625 21.85L56.046875 21.85L56.046875 19.75625L52.6875 19.75625L52.6875 19.00625L56.375 13.740625L57.015625 13.740625L57.015625 18.9125L58.078125 18.9125ZM56.046875 18.9125L56.046875 14.975L53.265625 18.9125L56.046875 18.9125Z" fill-rule="nonzero"/><path fill="#e97132" d="M86.5 17.85C86.5 21.163708 83.813705 23.85 80.5 23.85C77.186295 23.85 74.5 21.163708 74.5 17.85C74.5 14.536291 77.186295 11.85 80.5 11.85C83.813705 11.85 86.5 14.536291 86.5 17.85Z" fill-rule="nonzero"/><path fill="#1a1a1a" d="M96.96875 18.13125L96.96875 20.44375Q96.96875 21.19375 97.125 21.38125Q97.34375 21.63125 97.796875 21.63125L98.109375 21.63125L98.109375 21.85L94.703125 21.85L94.703125 21.63125L95.0 21.63125Q95.5 21.63125 95.71875 21.303125Q95.84375 21.115625 95.84375 20.44375L95.84375 15.303125Q95.84375 14.553125 95.671875 14.38125Q95.453125 14.115625 95.0 14.115625L94.703125 14.115625L94.703125 13.896875L97.609375 13.896875Q98.671875 13.896875 99.28125 14.13125Q99.90625 14.35 100.328125 14.865625Q100.75 15.38125 100.75 16.1Q100.75 17.06875 100.109375 17.678125Q99.46875 18.2875 98.296875 18.2875Q98.015625 18.2875 97.671875 18.25625Q97.34375 18.209375 96.96875 18.13125ZM96.96875 17.7875Q97.265625 17.85 97.5 17.88125Q97.75 17.9125 97.921875 17.9125Q98.53125 17.9125 98.96875 17.44375Q99.421875 16.975 99.421875 16.225Q99.421875 15.709375 99.203125 15.271875Q99.0 14.81875 98.609375 14.6Q98.21875 14.38125 97.734375 14.38125Q97.4375 14.38125 96.96875 14.490625L96.96875 17.7875ZM107.078125 18.9125L107.078125 19.75625L106.015625 19.75625L106.015625 21.85L105.046875 21.85L105.046875 19.75625L101.6875 19.75625L101.6875 19.00625L105.375 13.740625L106.015625 13.740625L106.015625 18.9125L107.078125 18.9125ZM105.046875 18.9125L105.046875 14.975L102.265625 18.9125L105.046875 18.9125ZM109.46875 17.459375Q110.0625 16.88125 110.15625 16.7875Q110.421875 16.56875 110.71875 16.44375Q111.03125 16.31875 111.328125 16.31875Q111.84375 16.31875 112.203125 16.615625Q112.5625 16.9125 112.6875 17.459375Q113.296875 16.75625 113.703125 16.5375Q114.125 16.31875 114.5625 16.31875Q114.984375 16.31875 115.3125 16.5375Q115.65625 16.75625 115.84375 17.25625Q115.96875 17.6 115.96875 18.334375L115.96875 20.63125Q115.96875 21.146875 116.046875 21.334375Q116.109375 21.459375 116.265625 21.553125Q116.421875 21.63125 116.78125 21.63125L116.78125 21.85L114.140625 21.85L114.140625 21.63125L114.25 21.63125Q114.59375 21.63125 114.78125 21.50625Q114.921875 21.4125 114.984375 21.209375Q115.0 21.1 115.0 20.63125L115.0 18.334375Q115.0 17.678125 114.84375 17.396875Q114.609375 17.021875 114.109375 17.021875Q113.796875 17.021875 113.484375 17.178125Q113.171875 17.334375 112.734375 17.75625L112.71875 17.81875L112.734375 18.06875L112.734375 20.63125Q112.734375 21.19375 112.78125 21.334375Q112.84375 21.459375 113.015625 21.553125Q113.1875 21.63125 113.59375 21.63125L113.59375 21.85L110.890625 21.85L110.890625 21.63125Q111.328125 21.63125 111.5 21.5375Q111.671875 21.428125 111.734375 21.209375Q111.765625 21.115625 111.765625 20.63125L111.765625 18.334375Q111.765625 17.678125 111.5625 17.38125Q111.3125 17.00625 110.84375 17.00625Q110.53125 17.00625 110.21875 17.178125Q109.734375 17.44375 109.46875 17.75625L109.46875 20.63125Q109.46875 21.1625 109.53125 21.31875Q109.609375 21.475 109.75 21.553125Q109.90625 21.63125 110.34375 21.63125L110.34375 21.85L107.6875 21.85L107.6875 21.63125Q108.0625 21.63125 108.203125 21.553125Q108.34375 21.475 108.421875 21.303125Q108.5 21.13125 108.5 20.63125L108.5 18.584375Q108.5 17.69375 108.453125 17.44375Q108.40625 17.25625 108.3125 17.178125Q108.234375 17.1 108.078125 17.1Q107.921875 17.1 107.6875 17.19375L107.59375 16.975L109.21875 16.31875L109.46875 16.31875L109.46875 17.459375Z" fill-rule="nonzero"/><path fill="#196b24" d="M144.5 17.85C144.5 21.163708 141.8137 23.85 138.5 23.85C135.1863 23.85 132.5 21.163708 132.5 17.85C132.5 14.536291 135.1863 11.85 138.5 11.85C141.8137 11.85 144.5 14.536291 144.5 17.85Z" fill-rule="nonzero"/><path fill="#1a1a1a" d="M159.375 19.646875L159.57812 19.69375L158.89062 21.85L152.73438 21.85L152.73438 21.63125L153.04688 21.63125Q153.54688 21.63125 153.76562 21.303125Q153.89062 21.115625 153.89062 20.44375L153.89062 15.303125Q153.89062 14.56875 153.71875 14.38125Q153.48438 14.115625 153.04688 14.115625L152.73438 14.115625L152.73438 13.896875L156.34375 13.896875L156.34375 14.115625Q155.70312 14.115625 155.45312 14.240625Q155.20312 14.365625 155.10938 14.553125Q155.01562 14.740625 155.01562 15.44375L155.01562 20.44375Q155.01562 20.928125 155.10938 21.1Q155.17188 21.225 155.3125 21.2875Q155.46875 21.35 156.23438 21.35L156.8125 21.35Q157.73438 21.35 158.09375 21.209375Q158.46875 21.06875 158.76562 20.740625Q159.07812 20.396875 159.375 19.646875ZM160.10938 15.4125Q160.45312 14.615625 160.96875 14.178125Q161.48438 13.740625 162.26562 13.740625Q163.21875 13.740625 163.71875 14.365625Q164.10938 14.81875 164.10938 15.35Q164.10938 16.225 163.01562 17.146875Q163.75 17.428125 164.125 17.959375Q164.5 18.490625 164.5 19.225Q164.5 20.25625 163.84375 21.00625Q163.0 21.990625 161.375 21.990625Q160.5625 21.990625 160.26562 21.7875Q159.98438 21.584375 159.98438 21.365625Q159.98438 21.19375 160.125 21.06875Q160.26562 20.928125 160.45312 20.928125Q160.60938 20.928125 160.75 20.975Q160.85938 21.00625 161.20312 21.19375Q161.5625 21.38125 161.6875 21.4125Q161.90625 21.475 162.15625 21.475Q162.75 21.475 163.1875 21.021875Q163.64062 20.553125 163.64062 19.928125Q163.64062 19.459375 163.4375 19.021875Q163.28125 18.69375 163.09375 18.521875Q162.84375 18.2875 162.40625 18.1Q161.96875 17.9125 161.51562 17.9125L161.32812 17.9125L161.32812 17.725Q161.78125 17.678125 162.25 17.396875Q162.71875 17.115625 162.92188 16.740625Q163.14062 16.35 163.14062 15.88125Q163.14062 15.2875 162.76562 14.9125Q162.39062 14.5375 161.82812 14.5375Q160.90625 14.5375 160.29688 15.50625L160.10938 15.4125ZM167.0 20.709375Q167.28125 20.709375 167.46875 20.9125Q167.65625 21.1 167.65625 21.365625Q167.65625 21.63125 167.45312 21.834375Q167.26562 22.021875 167.0 22.021875Q166.73438 22.021875 166.53125 21.834375Q166.34375 21.63125 166.34375 21.365625Q166.34375 21.084375 166.53125 20.896875Q166.73438 20.709375 167.0 20.709375ZM174.0 20.31875L173.45312 21.85L168.76562 21.85L168.76562 21.63125Q170.82812 19.740625 171.67188 18.553125Q172.51562 17.35 172.51562 16.365625Q172.51562 15.615625 172.04688 15.13125Q171.59375 14.63125 170.9375 14.63125Q170.35938 14.63125 169.89062 14.975Q169.42188 15.31875 169.20312 15.990625L168.98438 15.990625Q169.14062 14.896875 169.73438 14.31875Q170.34375 13.740625 171.25 13.740625Q172.21875 13.740625 172.85938 14.365625Q173.51562 14.975 173.51562 15.81875Q173.51562 16.428125 173.23438 17.0375Q172.79688 17.975 171.82812 19.0375Q170.375 20.63125 170.0 20.959375L172.07812 20.959375Q172.71875 20.959375 172.96875 20.9125Q173.21875 20.865625 173.42188 20.725Q173.64062 20.584375 173.78125 20.31875L174.0 20.31875Z" fill-rule="nonzero"/><path fill="#0f9ed5" d="M202.5 17.85C202.5 21.163708 199.8137 23.85 196.5 23.85C193.1863 23.85 190.5 21.163708 190.5 17.85C190.5 14.536291 193.1863 11.85 196.5 11.85C199.8137 11.85 202.5 14.536291 202.5 17.85Z" fill-rule="nonzero"/><path fill="#1a1a1a" d="M215.40625 21.85L212.34375 15.1625L212.34375 20.475Q212.34375 21.209375 212.5 21.38125Q212.71875 21.63125 213.1875 21.63125L213.46875 21.63125L213.46875 21.85L210.70312 21.85L210.70312 21.63125L210.98438 21.63125Q211.48438 21.63125 211.70312 21.334375Q211.82812 21.146875 211.82812 20.475L211.82812 15.2875Q211.82812 14.75625 211.70312 14.521875Q211.625 14.35 211.40625 14.240625Q211.1875 14.115625 210.70312 14.115625L210.70312 13.896875L212.95312 13.896875L215.82812 20.115625L218.67188 13.896875L220.92188 13.896875L220.92188 14.115625L220.64062 14.115625Q220.14062 14.115625 219.92188 14.428125Q219.79688 14.615625 219.79688 15.2875L219.79688 20.475Q219.79688 21.209375 219.95312 21.38125Q220.17188 21.63125 220.64062 21.63125L220.92188 21.63125L220.92188 21.85L217.54688 21.85L217.54688 21.63125L217.82812 21.63125Q218.32812 21.63125 218.54688 21.334375Q218.67188 21.146875 218.67188 20.475L218.67188 15.1625L215.60938 21.85L215.40625 21.85ZM228.0 13.725L228.0 16.475L227.78125 16.475Q227.6875 15.678125 227.40625 15.209375Q227.14062 14.740625 226.625 14.475Q226.125 14.19375 225.59375 14.19375Q224.98438 14.19375 224.57812 14.56875Q224.1875 14.928125 224.1875 15.4125Q224.1875 15.771875 224.4375 16.06875Q224.79688 16.50625 226.15625 17.240625Q227.28125 17.834375 227.6875 18.1625Q228.09375 18.475 228.3125 18.9125Q228.53125 19.35 228.53125 19.81875Q228.53125 20.725 227.82812 21.38125Q227.125 22.0375 226.03125 22.0375Q225.6875 22.0375 225.375 21.975Q225.20312 21.94375 224.625 21.771875Q224.04688 21.584375 223.90625 21.584375Q223.75 21.584375 223.65625 21.678125Q223.57812 21.75625 223.54688 22.0375L223.32812 22.0375L223.32812 19.303125L223.54688 19.303125Q223.70312 20.1625 223.95312 20.584375Q224.21875 21.00625 224.73438 21.2875Q225.26562 21.56875 225.90625 21.56875Q226.64062 21.56875 227.0625 21.19375Q227.48438 20.803125 227.48438 20.271875Q227.48438 19.975 227.32812 19.678125Q227.17188 19.38125 226.82812 19.13125Q226.59375 18.94375 225.57812 18.38125Q224.5625 17.803125 224.125 17.475Q223.70312 17.13125 223.46875 16.725Q223.25 16.303125 223.25 15.81875Q223.25 14.959375 223.90625 14.35Q224.5625 13.725 225.57812 13.725Q226.20312 13.725 226.92188 14.0375Q227.25 14.178125 227.375 14.178125Q227.53125 14.178125 227.625 14.084375Q227.73438 13.990625 227.78125 13.725L228.0 13.725Z" fill-rule="nonzero"/><path fill="#a02b93" d="M256.5 17.85C256.5 21.163708 253.8137 23.85 250.5 23.85C247.1863 23.85 244.5 21.163708 244.5 17.85C244.5 14.536291 247.1863 11.85 250.5 11.85C253.8137 11.85 256.5 14.536291 256.5 17.85Z" fill-rule="nonzero"/><path fill="#1a1a1a" d="M271.85938 13.725L272.07812 16.225L271.85938 16.225Q271.5625 15.2875 271.0625 14.81875Q270.35938 14.13125 269.23438 14.13125Q267.71875 14.13125 266.9375 15.334375Q266.26562 16.35 266.26562 17.740625Q266.26562 18.88125 266.70312 19.81875Q267.15625 20.75625 267.85938 21.19375Q268.57812 21.63125 269.32812 21.63125Q269.76562 21.63125 270.17188 21.521875Q270.57812 21.4125 270.96875 21.19375L270.96875 18.896875Q270.96875 18.303125 270.875 18.115625Q270.78125 17.928125 270.59375 17.834375Q270.40625 17.740625 269.92188 17.740625L269.92188 17.50625L273.0 17.50625L273.0 17.740625L272.84375 17.740625Q272.39062 17.740625 272.21875 18.0375Q272.10938 18.25625 272.10938 18.896875L272.10938 21.334375Q271.4375 21.69375 270.78125 21.865625Q270.125 22.0375 269.3125 22.0375Q267.01562 22.0375 265.8125 20.553125Q264.92188 19.44375 264.92188 18.00625Q264.92188 16.94375 265.42188 15.990625Q266.03125 14.85 267.0625 14.225Q267.9375 13.725 269.125 13.725Q269.5625 13.725 269.90625 13.803125Q270.26562 13.865625 270.92188 14.1Q271.25 14.225 271.35938 14.225Q271.46875 14.225 271.54688 14.13125Q271.625 14.021875 271.65625 13.725L271.85938 13.725ZM277.89062 13.725Q279.4375 13.725 280.5625 14.896875Q281.70312 16.06875 281.70312 17.834375Q281.70312 19.646875 280.5625 20.85Q279.42188 22.0375 277.79688 22.0375Q276.15625 22.0375 275.03125 20.865625Q273.92188 19.69375 273.92188 17.85Q273.92188 15.959375 275.21875 14.75625Q276.32812 13.725 277.89062 13.725ZM277.78125 14.146875Q276.71875 14.146875 276.0625 14.94375Q275.26562 15.928125 275.26562 17.81875Q275.26562 19.771875 276.09375 20.81875Q276.73438 21.615625 277.78125 21.615625Q278.90625 21.615625 279.625 20.740625Q280.35938 19.865625 280.35938 17.990625Q280.35938 15.94375 279.5625 14.94375Q278.92188 14.146875 277.78125 14.146875Z" fill-rule="nonzero"/><path fill="#4ea72e" d="M310.5 17.85C310.5 21.163708 307.81372 23.85 304.5 23.85C301.18628 23.85 298.5 21.163708 298.5 17.85C298.5 14.536291 301.18628 11.85 304.5 11.85C307.81372 11.85 310.5 14.536291 310.5 17.85Z" fill-rule="nonzero"/><path fill="#1a1a1a" d="M320.96875 18.13125L320.96875 20.44375Q320.96875 21.19375 321.125 21.38125Q321.34375 21.63125 321.79688 21.63125L322.10938 21.63125L322.10938 21.85L318.70312 21.85L318.70312 21.63125L319.0 21.63125Q319.5 21.63125 319.71875 21.303125Q319.84375 21.115625 319.84375 20.44375L319.84375 15.303125Q319.84375 14.553125 319.67188 14.38125Q319.45312 14.115625 319.0 14.115625L318.70312 14.115625L318.70312 13.896875L321.60938 13.896875Q322.67188 13.896875 323.28125 14.13125Q323.90625 14.35 324.32812 14.865625Q324.75 15.38125 324.75 16.1Q324.75 17.06875 324.10938 17.678125Q323.46875 18.2875 322.29688 18.2875Q322.01562 18.2875 321.67188 18.25625Q321.34375 18.209375 320.96875 18.13125ZM320.96875 17.7875Q321.26562 17.85 321.5 17.88125Q321.75 17.9125 321.92188 17.9125Q322.53125 17.9125 322.96875 17.44375Q323.42188 16.975 323.42188 16.225Q323.42188 15.709375 323.20312 15.271875Q323.0 14.81875 322.60938 14.6Q322.21875 14.38125 321.73438 14.38125Q321.4375 14.38125 320.96875 14.490625L320.96875 17.7875ZM331.07812 18.9125L331.07812 19.75625L330.01562 19.75625L330.01562 21.85L329.04688 21.85L329.04688 19.75625L325.6875 19.75625L325.6875 19.00625L329.375 13.740625L330.01562 13.740625L330.01562 18.9125L331.07812 18.9125ZM329.04688 18.9125L329.04688 14.975L326.26562 18.9125L329.04688 18.9125Z" fill-rule="nonzero"/><path fill="#5b90a8" d="M142.0 35.85C142.0 39.163708 139.3137 41.85 136.0 41.85C132.6863 41.85 130.0 39.163708 130.0 35.85C130.0 32.536293 132.6863 29.85 136.0 29.85C139.3137 29.85 142.0 32.536293 142.0 35.85Z" fill-rule="nonzero"/><path fill="#1a1a1a" d="M150.20312 39.85L150.20312 39.63125L150.5 39.63125Q151.01562 39.63125 151.21875 39.303123Q151.34375 39.115623 151.34375 38.44375L151.34375 33.303123Q151.34375 32.56875 151.1875 32.38125Q150.95312 32.115623 150.5 32.115623L150.20312 32.115623L150.20312 31.896873L153.4375 31.896873Q155.21875 31.896873 156.14062 32.303123Q157.07812 32.709373 157.64062 33.6625Q158.20312 34.6 158.20312 35.834373Q158.20312 37.490623 157.20312 38.6Q156.07812 39.85 153.75 39.85L150.20312 39.85ZM152.46875 39.271873Q153.21875 39.44375 153.71875 39.44375Q155.07812 39.44375 155.96875 38.490623Q156.875 37.521873 156.875 35.896873Q156.875 34.240623 155.96875 33.303123Q155.07812 32.35 153.67188 32.35Q153.14062 32.35 152.46875 32.521873L152.46875 39.271873ZM160.40625 32.678123L162.34375 31.740623L162.53125 31.740623L162.53125 38.44375Q162.53125 39.115623 162.57812 39.2875Q162.64062 39.44375 162.8125 39.5375Q163.0 39.615623 163.53125 39.63125L163.53125 39.85L160.54688 39.85L160.54688 39.63125Q161.10938 39.615623 161.26562 39.5375Q161.4375 39.44375 161.5 39.303123Q161.5625 39.1625 161.5625 38.44375L161.5625 34.1625Q161.5625 33.2875 161.51562 33.053123Q161.46875 32.865623 161.35938 32.771873Q161.25 32.678123 161.09375 32.678123Q160.875 32.678123 160.5 32.865623L160.40625 32.678123Z" fill-rule="nonzero"/><path fill="#f09c70" d="M193.0 35.85C193.0 39.163708 190.3137 41.85 187.0 41.85C183.6863 41.85 181.0 39.163708 181.0 35.85C181.0 32.536293 183.6863 29.85 187.0 29.85C190.3137 29.85 193.0 32.536293 193.0 35.85Z" fill-rule="nonzero"/><path fill="#1a1a1a" d="M208.35938 31.724998L208.57812 34.225L208.35938 34.225Q208.0625 33.2875 207.5625 32.81875Q206.85938 32.13125 205.73438 32.13125Q204.21875 32.13125 203.4375 33.334373Q202.76562 34.35 202.76562 35.740623Q202.76562 36.88125 203.20312 37.81875Q203.65625 38.75625 204.35938 39.19375Q205.07812 39.63125 205.82812 39.63125Q206.26562 39.63125 206.67188 39.521873Q207.07812 39.4125 207.46875 39.19375L207.46875 36.896873Q207.46875 36.303123 207.375 36.115623Q207.28125 35.928123 207.09375 35.834373Q206.90625 35.740623 206.42188 35.740623L206.42188 35.50625L209.5 35.50625L209.5 35.740623L209.34375 35.740623Q208.89062 35.740623 208.71875 36.0375Q208.60938 36.25625 208.60938 36.896873L208.60938 39.334373Q207.9375 39.69375 207.28125 39.865623Q206.625 40.0375 205.8125 40.0375Q203.51562 40.0375 202.3125 38.553123Q201.42188 37.44375 201.42188 36.00625Q201.42188 34.94375 201.92188 33.990623Q202.53125 32.85 203.5625 32.225Q204.4375 31.724998 205.625 31.724998Q206.0625 31.724998 206.40625 31.803123Q206.76562 31.865623 207.42188 32.1Q207.75 32.225 207.85938 32.225Q207.96875 32.225 208.04688 32.13125Q208.125 32.021873 208.15625 31.724998L208.35938 31.724998ZM211.28125 36.50625Q211.26562 37.69375 211.85938 38.38125Q212.4375 39.053123 213.23438 39.053123Q213.76562 39.053123 214.15625 38.771873Q214.54688 38.475 214.8125 37.771873L214.98438 37.896873Q214.85938 38.69375 214.26562 39.365623Q213.6875 40.021873 212.79688 40.021873Q211.82812 40.021873 211.14062 39.271873Q210.45312 38.50625 210.45312 37.240623Q210.45312 35.865623 211.15625 35.1Q211.85938 34.31875 212.92188 34.31875Q213.82812 34.31875 214.40625 34.9125Q214.98438 35.50625 214.98438 36.50625L211.28125 36.50625ZM211.28125 36.1625L213.76562 36.1625Q213.73438 35.646873 213.64062 35.44375Q213.5 35.115623 213.20312 34.928123Q212.90625 34.740623 212.59375 34.740623Q212.10938 34.740623 211.71875 35.115623Q211.34375 35.490623 211.28125 36.1625ZM215.60938 33.4125Q215.95312 32.615623 216.46875 32.178123Q216.98438 31.740623 217.76562 31.740623Q218.71875 31.740623 219.21875 32.365623Q219.60938 32.81875 219.60938 33.35Q219.60938 34.225 218.51562 35.146873Q219.25 35.428123 219.625 35.959373Q220.0 36.490623 220.0 37.225Q220.0 38.25625 219.34375 39.00625Q218.5 39.990623 216.875 39.990623Q216.0625 39.990623 215.76562 39.7875Q215.48438 39.584373 215.48438 39.365623Q215.48438 39.19375 215.625 39.06875Q215.76562 38.928123 215.95312 38.928123Q216.10938 38.928123 216.25 38.975Q216.35938 39.00625 216.70312 39.19375Q217.0625 39.38125 217.1875 39.4125Q217.40625 39.475 217.65625 39.475Q218.25 39.475 218.6875 39.021873Q219.14062 38.553123 219.14062 37.928123Q219.14062 37.459373 218.9375 37.021873Q218.78125 36.69375 218.59375 36.521873Q218.34375 36.2875 217.90625 36.1Q217.46875 35.9125 217.01562 35.9125L216.82812 35.9125L216.82812 35.725Q217.28125 35.678123 217.75 35.396873Q218.21875 35.115623 218.42188 34.740623Q218.64062 34.35 218.64062 33.88125Q218.64062 33.2875 218.26562 32.9125Q217.89062 32.5375 217.32812 32.5375Q216.40625 32.5375 215.79688 33.50625L215.60938 33.4125Z" fill-rule="nonzero"/></svg>